<?xml version="1.0" standalone="no"?>
<!DOCTYPE svg PUBLIC "-//W3C//DTD SVG 20010904//EN"
 "http://www.w3.org/TR/2001/REC-SVG-20010904/DTD/svg10.dtd">
<svg version="1.0" xmlns="http://www.w3.org/2000/svg"
 width="3359.000000pt" height="3359.000000pt" viewBox="0 0 3359.000000 3359.000000"
 preserveAspectRatio="xMidYMid meet">
<metadata>
Created by potrace 1.14, written by Peter Selinger 2001-2017
</metadata>
<g transform="translate(0.000000,3359.000000) scale(0.100000,-0.100000)"
fill="#000000" stroke="none">
<path d="M16340 33149 c-670 -12 -1227 -28 -1535 -44 -1123 -60 -1626 -99
-2110 -165 -83 -11 -224 -29 -315 -40 -91 -11 -253 -36 -360 -55 -107 -19
-274 -46 -370 -60 -203 -30 -380 -68 -790 -170 -389 -97 -544 -153 -767 -277
-166 -92 -293 -232 -293 -323 0 -196 318 -407 842 -559 348 -102 643 -165
1191 -256 277 -46 1028 -145 1292 -169 248 -24 1383 -101 1690 -116 182 -9
411 -20 510 -26 580 -30 2315 -30 2895 1 102 5 403 19 670 30 311 13 596 31
795 50 171 16 424 38 563 50 489 39 928 95 1572 201 409 67 565 101 920 199
306 85 423 126 576 199 348 167 462 312 380 486 -83 177 -485 379 -1016 509
-309 76 -821 174 -1150 221 -63 9 -206 32 -318 51 -203 34 -493 69 -822 99
-96 9 -278 27 -405 40 -328 35 -578 53 -905 65 -557 21 -2166 70 -2235 68 -38
0 -266 -5 -505 -9z"/>
<path d="M8619 30547 c-118 -49 -170 -113 -249 -307 -133 -324 -286 -539 -611
-855 -291 -283 -458 -408 -1199 -901 -894 -594 -1269 -867 -1750 -1273 -425
-359 -1118 -1028 -1452 -1401 -651 -728 -1158 -1414 -1630 -2205 -445 -746
-850 -1644 -1136 -2515 -148 -449 -352 -1275 -427 -1726 -73 -437 -93 -624
-142 -1314 -21 -304 -24 -1062 -5 -1340 30 -432 63 -833 77 -940 40 -304 172
-1022 250 -1355 173 -739 210 -875 397 -1420 253 -741 344 -977 588 -1525 283
-636 342 -754 762 -1530 334 -616 579 -1017 1039 -1705 373 -559 695 -999
1163 -1590 811 -1025 1326 -1607 2462 -2780 610 -630 1417 -1383 1894 -1768
508 -410 1247 -740 2266 -1012 169 -45 739 -171 994 -219 301 -57 1594 -236
1955 -270 244 -24 850 -74 1030 -86 213 -13 1625 -61 1840 -61 297 -1 1610 41
1910 62 945 63 1570 123 1930 184 110 19 272 44 360 55 293 38 1077 177 1365
241 224 51 843 229 1144 330 573 192 1104 471 1531 804 550 429 1888 1736
2856 2790 579 632 1393 1618 1937 2346 611 819 1281 1860 1769 2747 114 208
508 990 613 1217 601 1302 1011 2593 1219 3840 98 586 175 1166 191 1434 22
377 30 588 30 806 0 213 -4 315 -30 870 -10 211 -76 759 -131 1095 -53 319
-177 927 -230 1125 -101 377 -207 707 -407 1265 -89 251 -132 354 -287 695
-237 521 -424 879 -707 1350 -451 751 -959 1433 -1588 2130 -336 373 -932 949
-1335 1290 -523 443 -1117 881 -1775 1308 -723 470 -984 669 -1310 996 -309
309 -350 366 -531 736 -121 247 -132 265 -188 318 -75 69 -137 92 -225 84 -93
-9 -208 -51 -346 -127 -230 -127 -496 -236 -801 -329 -316 -95 -902 -242
-1254 -315 -376 -77 -1241 -198 -2145 -300 -563 -64 -614 -68 -1535 -121 -574
-33 -2996 -43 -3565 -15 -496 24 -1519 92 -1665 110 -88 11 -254 29 -370 40
-235 23 -277 28 -870 106 -456 60 -489 66 -1105 179 -432 79 -542 104 -925
210 -577 159 -811 244 -1140 415 -292 152 -387 175 -506 127z m14669 -1393
c248 -50 415 -135 902 -456 454 -300 600 -388 855 -517 432 -219 870 -388
1505 -581 422 -128 630 -225 868 -404 474 -358 640 -829 506 -1434 -70 -313
-228 -643 -420 -873 -173 -208 -445 -381 -694 -441 -116 -28 -284 -28 -395 1
-297 78 -574 309 -826 691 -289 438 -356 536 -423 620 -281 349 -586 597 -976
791 -149 74 -241 108 -462 168 -235 65 -244 61 -235 -106 10 -180 70 -374 193
-632 107 -224 242 -409 446 -612 222 -222 465 -399 803 -587 438 -244 541
-314 710 -486 131 -133 217 -252 291 -401 76 -154 97 -239 97 -395 0 -206 -44
-361 -145 -512 -171 -255 -502 -411 -872 -409 -579 2 -1077 328 -1563 1021
-80 115 -103 152 -309 499 -109 184 -182 279 -235 306 -47 25 -110 19 -155
-13 -58 -42 -110 -104 -143 -171 -32 -63 -278 -746 -431 -1196 -164 -485 -261
-852 -379 -1440 -106 -527 -146 -932 -174 -1785 -11 -313 -10 -388 5 -630 33
-514 58 -844 99 -1270 55 -574 51 -697 -28 -890 -98 -239 -305 -418 -589 -510
-132 -42 -240 -54 -449 -47 -201 6 -296 21 -460 74 -493 159 -805 478 -950
973 -124 424 -139 885 -49 1495 95 640 357 1540 649 2224 97 227 196 423 545
1081 404 762 617 1195 847 1720 248 567 404 994 602 1652 111 370 121 407 210
838 98 473 123 616 156 885 103 836 201 1213 388 1483 95 138 231 238 377 276
74 20 213 20 308 0z m-11753 -124 c178 -12 214 -18 598 -99 288 -61 421 -96
637 -167 512 -171 839 -430 950 -756 44 -127 53 -227 48 -522 -10 -551 79
-1261 221 -1762 74 -258 264 -791 382 -1068 158 -367 488 -979 994 -1841 389
-663 509 -885 699 -1299 223 -484 271 -615 405 -1105 77 -279 114 -439 141
-606 11 -71 27 -159 35 -195 21 -93 30 -364 16 -485 -54 -471 -220 -846 -500
-1126 -328 -328 -795 -507 -1266 -486 -249 12 -468 62 -650 151 -357 174 -577
484 -641 901 -20 125 -14 457 10 585 9 47 49 218 90 380 110 437 165 727 196
1030 17 170 24 810 11 1020 -25 393 -85 695 -197 997 -75 203 -225 487 -339
643 -66 89 -186 206 -270 262 -189 125 -324 113 -467 -41 -75 -81 -128 -175
-158 -281 -42 -149 -37 -505 10 -750 56 -291 74 -574 50 -792 -49 -448 -272
-796 -625 -975 -299 -152 -631 -232 -957 -233 -502 0 -800 149 -957 480 -67
141 -91 270 -91 490 0 149 12 255 46 410 36 159 64 240 235 671 387 977 641
1793 748 2406 117 663 149 995 138 1413 -10 361 -50 626 -132 878 -79 238
-149 364 -401 722 -174 246 -220 316 -289 435 -102 177 -128 277 -101 385 45
177 223 292 521 340 74 11 630 5 860 -10z m8986 -261 c364 -37 647 -166 812
-372 156 -195 242 -477 254 -833 7 -192 -1 -285 -52 -621 -49 -327 -56 -357
-166 -761 -110 -404 -223 -755 -319 -992 -183 -452 -617 -1349 -886 -1830
-136 -244 -467 -899 -598 -1185 -38 -82 -103 -233 -144 -335 -98 -245 -328
-935 -393 -1180 -28 -107 -91 -337 -139 -510 -180 -640 -309 -1156 -414 -1656
-132 -631 -175 -883 -231 -1344 -83 -679 -112 -849 -205 -1190 -183 -672 -459
-1235 -834 -1705 -108 -134 -404 -430 -541 -539 -309 -247 -647 -433 -1011
-555 -354 -119 -614 -185 -834 -211 -307 -36 -444 -43 -695 -36 -630 17 -892
50 -1378 172 -441 110 -768 250 -1101 471 -419 278 -704 597 -936 1048 -81
157 -135 301 -180 478 -58 226 -74 352 -74 557 1 310 60 504 233 761 159 237
380 396 693 497 146 48 262 72 498 106 415 60 653 61 1185 6 724 -76 1470 -88
1880 -30 295 42 673 129 910 210 148 50 410 179 527 257 216 145 416 337 531
509 74 111 180 326 221 448 94 277 130 595 107 941 -29 429 -73 741 -151 1050
-243 977 -498 1606 -1141 2815 -251 473 -556 1055 -623 1189 -118 235 -278
608 -369 861 -49 134 -237 771 -292 985 -37 144 -116 597 -140 800 -31 267
-15 599 40 815 147 585 458 839 1092 890 450 36 973 -130 1285 -409 216 -193
332 -388 407 -686 69 -276 91 -452 98 -795 8 -389 -7 -603 -89 -1280 -41 -332
-43 -356 -42 -630 0 -307 12 -429 70 -690 32 -145 126 -429 193 -585 103 -238
332 -655 409 -743 l37 -43 87 185 c146 308 212 488 333 907 68 235 103 395
137 619 27 181 6 828 -45 1335 -18 192 -21 283 -22 710 0 541 2 564 76 867 96
395 319 694 709 951 346 228 821 347 1221 306z m-12107 -394 c235 -35 446
-101 646 -201 363 -182 590 -376 780 -664 169 -257 280 -584 337 -990 14 -98
17 -193 17 -445 0 -367 -14 -530 -69 -800 -39 -194 -216 -920 -298 -1225 -174
-642 -393 -1590 -461 -1995 -59 -352 -107 -786 -126 -1150 -12 -235 -12 -1111
0 -1375 11 -235 45 -448 85 -538 34 -77 105 -146 166 -163 58 -15 131 -1 225
46 94 46 180 110 324 240 305 276 709 552 1080 739 332 168 524 243 727 285
301 62 518 50 710 -39 293 -136 430 -344 504 -766 19 -106 23 -165 23 -334 0
-616 -164 -1019 -508 -1250 -175 -117 -342 -175 -811 -279 -337 -75 -1360
-329 -1474 -366 -181 -59 -320 -115 -696 -282 -547 -244 -606 -267 -785 -309
-141 -34 -371 -43 -480 -20 -120 25 -212 77 -305 170 -115 116 -182 243 -234
439 -47 181 -65 518 -51 947 5 162 14 444 20 625 6 182 12 366 14 410 9 205
-26 1112 -54 1411 -11 115 -40 425 -65 689 -44 469 -57 579 -171 1395 -65 470
-186 1218 -249 1548 -95 493 -338 1686 -390 1912 -79 346 -143 680 -155 808
-7 80 -7 145 0 225 53 539 298 903 765 1135 305 152 654 213 959 167z m-2942
-2485 c338 -65 576 -223 762 -505 163 -247 232 -438 296 -821 71 -421 80 -562
60 -849 -13 -176 -24 -252 -60 -391 -134 -524 -450 -928 -1015 -1298 -214
-140 -340 -205 -810 -416 -606 -271 -997 -505 -1381 -827 -571 -480 -927
-1041 -1053 -1658 -45 -220 -56 -367 -42 -537 28 -341 120 -560 311 -748 212
-209 519 -250 808 -109 92 45 115 62 227 170 152 148 246 260 439 528 447 618
702 863 1119 1073 303 152 634 208 968 163 233 -30 446 -138 637 -320 211
-201 361 -493 435 -850 41 -195 50 -319 44 -593 -5 -258 -21 -415 -62 -617
-97 -481 -303 -912 -636 -1332 -119 -150 -383 -416 -519 -525 -396 -315 -901
-568 -1353 -678 -217 -53 -400 -79 -788 -110 -392 -32 -1009 70 -1417 234
-564 227 -992 649 -1317 1295 -100 201 -169 393 -245 686 -89 343 -127 557
-171 956 -29 274 -37 771 -15 999 8 91 20 239 26 330 17 278 26 335 126 844
83 423 144 659 249 971 295 880 768 1825 1314 2625 473 693 926 1205 1461
1654 429 359 690 516 1020 611 235 67 400 80 582 45z m23867 -450 c165 -21
304 -78 439 -180 101 -76 165 -146 252 -278 143 -215 226 -487 261 -857 16
-171 6 -605 -20 -820 -69 -569 -96 -725 -191 -1110 -94 -380 -167 -644 -373
-1350 -195 -666 -206 -708 -306 -1150 -125 -558 -159 -772 -196 -1235 -24
-312 -29 -482 -16 -523 7 -20 16 -37 20 -37 50 0 401 342 575 560 227 285 360
518 546 960 96 228 410 946 468 1072 131 284 385 663 540 809 144 135 255 184
398 177 70 -4 94 -10 156 -41 205 -102 404 -377 610 -847 121 -275 207 -563
292 -975 70 -342 89 -543 89 -930 0 -319 -7 -394 -68 -703 -63 -315 -161 -560
-321 -805 -134 -205 -237 -320 -384 -431 -252 -190 -419 -236 -1210 -331 -417
-50 -756 -116 -1310 -255 -361 -90 -446 -115 -955 -280 -656 -212 -729 -230
-856 -210 -214 33 -308 176 -309 465 0 146 7 184 104 575 242 967 306 1327
361 2010 14 173 32 378 41 455 22 193 30 821 15 1140 -12 246 -62 990 -82
1215 -11 132 -48 453 -84 745 -24 196 -81 729 -106 995 -18 185 -15 542 4 710
18 152 41 249 86 365 141 368 566 806 965 996 195 93 369 123 565 99z m-5854
-2820 c210 -49 398 -142 578 -288 199 -161 342 -460 403 -840 21 -132 29 -527
15 -727 -31 -428 -78 -726 -206 -1312 -36 -161 -83 -391 -105 -510 -22 -120
-52 -270 -65 -333 -60 -282 -75 -435 -75 -751 0 -426 39 -647 156 -882 66
-132 116 -201 224 -308 83 -84 109 -103 191 -142 117 -56 180 -71 275 -65 108
7 202 56 303 157 177 178 273 441 331 901 31 249 41 476 30 637 -15 210 -49
547 -66 653 -22 139 -144 673 -225 984 -122 471 -158 626 -179 765 -63 440
-15 832 140 1136 171 335 432 537 832 642 140 37 336 39 443 6 183 -57 312
-178 454 -425 134 -234 243 -566 330 -1008 51 -259 129 -859 151 -1160 12
-171 12 -709 0 -945 -9 -167 -69 -673 -105 -880 -36 -205 -174 -782 -234 -976
-76 -246 -234 -635 -371 -910 -475 -955 -1173 -1521 -1958 -1589 -501 -43
-1078 202 -1486 630 -383 404 -657 956 -811 1642 -64 283 -199 1063 -239 1383
-16 120 -37 420 -77 1070 l-21 350 26 420 c49 786 84 1049 193 1480 109 432
211 683 358 880 216 290 467 390 790 315z m-3225 -6584 c125 -23 355 -90 488
-142 363 -142 697 -392 788 -589 58 -125 79 -326 50 -465 -32 -155 -160 -358
-421 -667 -217 -256 -451 -615 -673 -1034 -166 -312 -419 -923 -552 -1333
-113 -350 -295 -1116 -335 -1411 -14 -104 -41 -298 -60 -430 -65 -449 -92
-951 -81 -1545 9 -554 25 -786 82 -1242 19 -152 43 -359 54 -459 22 -198 43
-334 89 -559 16 -80 46 -239 66 -355 75 -436 212 -996 334 -1366 84 -256 344
-1148 386 -1322 57 -237 75 -494 46 -658 -44 -256 -166 -491 -334 -645 -254
-232 -713 -413 -1219 -478 -379 -50 -955 -41 -1337 20 -370 59 -565 255 -564
569 1 127 26 250 98 475 64 200 96 349 124 570 50 392 52 706 6 1186 -47 508
-84 756 -151 1012 -24 96 -60 246 -80 335 -60 281 -145 579 -281 991 -107 326
-125 366 -157 366 -21 0 -28 -10 -55 -79 -164 -426 -258 -1166 -231 -1832 14
-345 33 -535 104 -1014 41 -274 79 -824 73 -1040 -11 -361 -68 -628 -183 -857
-128 -255 -392 -470 -708 -573 -226 -74 -519 -115 -819 -115 -672 0 -1181 167
-1619 531 -149 124 -256 261 -318 407 -95 224 -85 386 38 627 89 173 174 267
462 511 182 155 475 449 616 619 348 421 678 975 866 1455 71 181 244 703 277
835 38 155 53 235 101 545 58 378 63 464 57 934 -7 510 -15 581 -113 1041 -60
282 -83 364 -164 585 -150 412 -287 716 -432 960 -34 58 -160 251 -278 430
-299 448 -346 529 -388 660 -84 263 -46 479 112 635 210 206 568 312 1281 380
483 46 848 -9 1105 -166 98 -60 245 -201 305 -294 119 -181 207 -442 254 -755
6 -36 24 -258 41 -495 38 -538 54 -697 85 -866 13 -74 38 -222 54 -330 66
-435 178 -832 337 -1198 118 -271 407 -797 553 -1005 63 -91 82 -111 110 -118
18 -5 35 -7 37 -5 2 2 -25 183 -61 403 -246 1518 -365 2839 -365 4049 0 757
25 1153 115 1852 53 410 156 808 307 1183 285 708 750 1143 1355 1269 139 29
143 29 403 26 160 -2 262 -8 320 -19z m10930 -355 c300 -47 378 -63 479 -97
427 -142 703 -397 814 -749 48 -152 60 -231 60 -390 1 -332 -113 -710 -308
-1025 -167 -268 -420 -546 -619 -679 -282 -188 -520 -259 -826 -247 -240 9
-398 51 -795 211 -280 113 -339 133 -567 196 -358 97 -518 122 -803 122 -393
-1 -697 -63 -982 -203 -97 -48 -137 -74 -194 -127 -85 -80 -109 -123 -109
-194 0 -73 28 -125 113 -209 173 -173 429 -301 1032 -517 160 -57 333 -123
385 -147 380 -170 705 -509 849 -887 75 -196 111 -427 111 -712 0 -312 -24
-465 -135 -862 -84 -297 -114 -384 -222 -638 -305 -717 -811 -1551 -1482
-2442 -883 -1172 -1811 -2097 -2726 -2717 -673 -456 -1307 -727 -1960 -837
-166 -28 -701 -33 -840 -7 -372 68 -731 236 -1000 469 -121 104 -169 159 -340
388 -151 203 -206 292 -269 439 -296 691 -22 1231 844 1664 239 119 413 187
887 347 528 178 961 341 1488 559 514 213 1188 540 1458 707 51 32 198 120
327 198 269 161 359 221 590 388 694 503 1221 1038 1623 1647 197 300 261 506
223 720 -33 182 -144 334 -337 463 -188 124 -351 185 -684 252 -124 25 -272
61 -330 80 -566 185 -998 678 -1090 1245 -23 142 -24 454 -1 604 142 916 1061
1868 2357 2441 290 128 614 242 979 346 189 54 609 142 755 159 315 36 380 43
470 56 155 20 601 12 775 -15z m-22362 -111 c374 -55 717 -207 945 -420 198
-185 299 -405 300 -655 2 -392 -241 -755 -728 -1088 -60 -41 -225 -146 -365
-232 -424 -262 -562 -364 -729 -540 -363 -384 -431 -815 -240 -1510 112 -408
294 -839 724 -1715 368 -749 386 -793 509 -1218 96 -330 120 -427 150 -603 48
-276 71 -544 82 -929 17 -586 -83 -1256 -270 -1807 -61 -180 -105 -285 -198
-463 -186 -361 -357 -564 -583 -691 -236 -132 -483 -114 -767 58 -281 170
-505 444 -685 838 -82 180 -176 499 -217 737 -40 228 -45 753 -12 1014 9 67
38 241 66 387 93 496 118 738 127 1192 6 351 -5 569 -42 832 -78 540 -290
1065 -581 1436 -78 98 -284 302 -365 360 -174 123 -352 163 -502 111 -150 -51
-271 -269 -253 -455 18 -197 90 -308 666 -1029 192 -241 252 -330 325 -482
110 -230 184 -498 192 -693 7 -160 -13 -251 -82 -393 -107 -216 -313 -339
-643 -383 -361 -48 -769 94 -1132 396 -382 317 -873 947 -1402 1795 -579 930
-940 1605 -1227 2298 -141 339 -280 794 -330 1082 -135 768 126 1251 734 1355
178 30 627 20 870 -21 525 -87 938 -350 1115 -709 67 -135 88 -230 100 -450
18 -330 45 -591 76 -740 73 -351 256 -586 507 -652 80 -21 239 -21 288 -1 90
38 174 180 205 344 15 80 19 144 18 329 -1 265 -12 344 -111 778 -54 241 -57
258 -57 387 2 426 209 871 580 1245 373 377 837 625 1479 790 514 132 1057
175 1463 115z m14553 -1316 c365 -36 675 -119 902 -242 421 -228 789 -688 972
-1215 56 -158 123 -456 179 -788 27 -157 24 -683 -5 -934 -17 -149 -97 -570
-140 -735 -74 -288 -203 -652 -335 -946 -233 -523 -513 -1007 -838 -1449 -491
-668 -1301 -1362 -2006 -1719 -478 -243 -918 -334 -1227 -255 -187 47 -373
184 -507 373 -171 239 -222 544 -155 934 36 216 84 377 269 917 164 476 232
750 446 1795 65 316 196 1069 233 1340 28 203 53 604 54 865 1 217 0 223 -43
465 -51 287 -54 391 -20 559 44 218 125 368 284 527 260 260 628 423 1081 479
451 56 553 59 856 29z m-12401 -894 c121 -35 250 -103 325 -172 78 -72 258
-285 320 -378 59 -90 87 -168 130 -360 21 -91 49 -196 62 -235 64 -177 192
-391 361 -603 225 -283 472 -527 1162 -1149 338 -305 439 -411 622 -656 147
-196 223 -319 323 -522 171 -348 279 -693 341 -1097 21 -136 30 -687 15 -896
-17 -230 -81 -532 -192 -905 -157 -526 -343 -906 -571 -1167 -124 -142 -224
-221 -366 -288 -65 -31 -87 -36 -147 -36 -116 -1 -189 51 -258 181 -68 132
-78 180 -88 462 -6 182 -6 257 2 261 11 7 -1 385 -22 690 -30 440 -91 703
-226 978 -53 109 -76 145 -126 196 -88 88 -139 111 -252 111 -83 0 -96 -3
-165 -36 -131 -64 -260 -190 -326 -321 -72 -143 -100 -314 -91 -553 10 -234
47 -441 116 -652 16 -50 112 -293 212 -540 246 -607 282 -711 339 -988 71
-345 79 -707 20 -996 -152 -747 -640 -1356 -1249 -1559 -191 -64 -289 -81
-497 -87 -286 -8 -479 20 -745 107 -252 83 -498 213 -625 332 -78 74 -144 177
-180 283 -22 66 -27 98 -27 180 0 221 95 469 418 1100 252 492 352 725 494
1150 91 274 128 417 170 663 103 597 100 1076 -10 1612 -149 725 -345 1240
-726 1913 -140 248 -300 496 -537 832 -118 168 -178 282 -231 434 -98 287
-124 506 -89 773 49 377 202 728 457 1044 146 180 424 416 732 619 218 144
431 238 653 286 122 26 363 21 472 -11z"/>
<path d="M12531 26988 c-40 -55 -151 -388 -185 -558 -62 -307 -126 -755 -152
-1071 -15 -178 -16 -219 -5 -308 21 -160 68 -233 170 -261 92 -25 462 -8 597
29 58 16 120 64 145 113 28 53 37 204 20 327 -10 75 -94 472 -172 808 -85 367
-237 771 -342 906 l-45 58 -31 -43z"/>
<path d="M22645 12131 c-113 -14 -147 -46 -234 -211 -123 -235 -194 -550 -301
-1335 -28 -203 -73 -525 -100 -715 -56 -390 -72 -526 -99 -860 -35 -422 -35
-400 -16 -483 9 -43 18 -77 19 -77 9 0 158 55 241 88 443 179 833 438 1150
763 218 224 349 409 476 674 158 331 232 661 233 1050 0 202 -1 214 -27 300
-71 232 -198 402 -424 567 -75 55 -231 136 -331 172 -160 57 -427 88 -587 67z"/>
<path d="M10834 11013 c-11 -102 2 -549 21 -713 50 -440 184 -1039 270 -1210
43 -86 96 -169 121 -191 87 -76 188 -73 376 10 117 52 213 117 319 219 70 66
97 100 125 158 32 64 37 82 37 151 1 93 -18 164 -76 283 -73 150 -335 523
-538 765 -219 260 -575 594 -636 595 -7 0 -14 -27 -19 -67z"/>
</g>
</svg>
