<svg xmlns="http://www.w3.org/2000/svg" xmlns:xlink="http://www.w3.org/1999/xlink" width="1800" zoomAndPan="magnify" viewBox="0 0 1350 749.999995" height="1000" preserveAspectRatio="xMidYMid meet" version="1.0"><defs><clipPath id="fde1cf79ee"><path d="M 147 135 L 933 135 L 933 692 L 147 692 Z M 147 135 " clip-rule="nonzero"/></clipPath><clipPath id="6903e8821c"><path d="M 676.757812 965.632812 L 85.386719 554.351562 L 466.234375 6.746094 L 1057.605469 418.027344 Z M 676.757812 965.632812 " clip-rule="nonzero"/></clipPath><clipPath id="726f701ab7"><path d="M 393.277344 677.167969 C 477.5 649.09375 506.898438 595.722656 574.507812 603.421875 C 710.863281 618.769531 776.902344 740.515625 872.007812 670.355469 C 967.074219 596.835938 950.808594 450.554688 818.96875 274.382812 C 665.351562 68.738281 338.960938 110.679688 289.277344 276.246094 C 251.199219 415.5625 150.566406 418.222656 147.515625 506.246094 C 146.023438 652.679688 302.996094 707.359375 393.277344 677.167969 Z M 393.277344 677.167969 " clip-rule="nonzero"/></clipPath><clipPath id="628a50fc85"><path d="M 147 60 L 933 60 L 933 618 L 147 618 Z M 147 60 " clip-rule="nonzero"/></clipPath><clipPath id="58147ff691"><path d="M 676.757812 890.746094 L 85.386719 479.464844 L 466.234375 -68.144531 L 1057.605469 343.136719 Z M 676.757812 890.746094 " clip-rule="nonzero"/></clipPath><clipPath id="1a389c8d16"><path d="M 393.277344 602.28125 C 477.5 574.203125 506.898438 520.835938 574.507812 528.53125 C 710.863281 543.882812 776.902344 665.625 872.007812 595.464844 C 967.074219 521.945312 950.808594 375.664062 818.96875 199.492188 C 665.351562 -6.152344 338.960938 35.789062 289.277344 201.359375 C 251.199219 340.671875 150.566406 343.335938 147.515625 431.359375 C 146.023438 577.789062 302.996094 632.46875 393.277344 602.28125 Z M 393.277344 602.28125 " clip-rule="nonzero"/></clipPath><clipPath id="9d62ed22d6"><path d="M 156 99 L 942 99 L 942 657 L 156 657 Z M 156 99 " clip-rule="nonzero"/></clipPath><clipPath id="f572a2b3bf"><path d="M 686.132812 929.945312 L 94.761719 518.664062 L 475.609375 -28.945312 L 1066.980469 382.335938 Z M 686.132812 929.945312 " clip-rule="nonzero"/></clipPath><clipPath id="e69f87db5c"><path d="M 402.65625 641.480469 C 486.875 613.40625 516.273438 560.035156 583.882812 567.730469 C 720.238281 583.082031 786.277344 704.824219 881.382812 634.667969 C 976.449219 561.148438 960.183594 414.863281 828.34375 238.691406 C 674.726562 33.046875 348.335938 74.992188 298.652344 240.558594 C 260.574219 379.871094 159.941406 382.535156 156.890625 470.558594 C 155.398438 616.988281 312.371094 671.667969 402.65625 641.480469 Z M 402.65625 641.480469 " clip-rule="nonzero"/></clipPath><clipPath id="f360f2b4db"><path d="M 409 60 L 1202 60 L 1202 623 L 409 623 Z M 409 60 " clip-rule="nonzero"/></clipPath><clipPath id="130722e8b2"><path d="M 667.488281 -215.640625 L 1264.609375 199.640625 L 880.058594 752.574219 L 282.9375 337.292969 Z M 667.488281 -215.640625 " clip-rule="nonzero"/></clipPath><clipPath id="2ba63118a6"><path d="M 953.722656 75.628906 C 868.683594 103.980469 839 157.867188 770.730469 150.097656 C 633.050781 134.597656 566.371094 11.671875 470.339844 82.511719 C 374.347656 156.746094 390.773438 304.449219 523.894531 482.335938 C 679.003906 689.980469 1008.570312 647.628906 1058.734375 480.453125 C 1097.183594 339.78125 1198.796875 337.09375 1201.878906 248.214844 C 1203.382812 100.359375 1044.886719 45.148438 953.722656 75.628906 Z M 953.722656 75.628906 " clip-rule="nonzero"/></clipPath><clipPath id="ff17c297c1"><path d="M 409 136 L 1202 136 L 1202 699 L 409 699 Z M 409 136 " clip-rule="nonzero"/></clipPath><clipPath id="4b81510fbc"><path d="M 667.488281 -140.023438 L 1264.609375 275.261719 L 880.058594 828.195312 L 282.9375 412.910156 Z M 667.488281 -140.023438 " clip-rule="nonzero"/></clipPath><clipPath id="4990709830"><path d="M 953.722656 151.25 C 868.683594 179.597656 839 233.484375 770.730469 225.714844 C 633.050781 210.214844 566.371094 87.289062 470.339844 158.128906 C 374.347656 232.363281 390.773438 380.066406 523.894531 557.953125 C 679.003906 765.597656 1008.570312 723.246094 1058.734375 556.070312 C 1097.183594 415.402344 1198.796875 412.710938 1201.878906 323.832031 C 1203.382812 175.976562 1044.886719 120.765625 953.722656 151.25 Z M 953.722656 151.25 " clip-rule="nonzero"/></clipPath><clipPath id="27864df491"><path d="M 399 96 L 1193 96 L 1193 659 L 399 659 Z M 399 96 " clip-rule="nonzero"/></clipPath><clipPath id="42d56f1cfe"><path d="M 658.019531 -179.605469 L 1255.144531 235.679688 L 870.59375 788.613281 L 273.46875 373.328125 Z M 658.019531 -179.605469 " clip-rule="nonzero"/></clipPath><clipPath id="f62b2de211"><path d="M 944.257812 111.667969 C 859.21875 140.015625 829.535156 193.90625 761.265625 186.132812 C 623.582031 170.632812 556.902344 47.707031 460.871094 118.546875 C 364.882812 192.78125 381.304688 340.488281 514.429688 518.371094 C 669.535156 726.015625 999.101562 683.667969 1049.269531 516.488281 C 1087.71875 375.820312 1189.328125 373.128906 1192.410156 284.25 C 1193.917969 136.398438 1035.417969 81.183594 944.257812 111.667969 Z M 944.257812 111.667969 " clip-rule="nonzero"/></clipPath></defs><g clip-path="url(#fde1cf79ee)"><g clip-path="url(#6903e8821c)"><g clip-path="url(#726f701ab7)"><path fill="#27016d" d="M 676.757812 965.632812 L 85.386719 554.351562 L 465.453125 7.867188 L 1056.824219 419.148438 Z M 676.757812 965.632812 " fill-opacity="1" fill-rule="nonzero"/></g></g></g><g clip-path="url(#628a50fc85)"><g clip-path="url(#58147ff691)"><g clip-path="url(#1a389c8d16)"><path fill="#27016d" d="M 676.757812 890.746094 L 85.386719 479.464844 L 465.453125 -67.023438 L 1056.824219 344.257812 Z M 676.757812 890.746094 " fill-opacity="1" fill-rule="nonzero"/></g></g></g><g clip-path="url(#9d62ed22d6)"><g clip-path="url(#f572a2b3bf)"><g clip-path="url(#e69f87db5c)"><path fill="#27016d" d="M 686.132812 929.945312 L 94.761719 518.664062 L 474.828125 -27.820312 L 1066.199219 383.460938 Z M 686.132812 929.945312 " fill-opacity="1" fill-rule="nonzero"/></g></g></g><g clip-path="url(#f360f2b4db)"><g clip-path="url(#130722e8b2)"><g clip-path="url(#2ba63118a6)"><path fill="#27016d" d="M 667.488281 -215.640625 L 1264.609375 199.640625 L 880.847656 751.441406 L 283.726562 336.160156 Z M 667.488281 -215.640625 " fill-opacity="1" fill-rule="nonzero"/></g></g></g><g clip-path="url(#ff17c297c1)"><g clip-path="url(#4b81510fbc)"><g clip-path="url(#4990709830)"><path fill="#27016d" d="M 667.488281 -140.023438 L 1264.609375 275.261719 L 880.847656 827.058594 L 283.726562 411.777344 Z M 667.488281 -140.023438 " fill-opacity="1" fill-rule="nonzero"/></g></g></g><g clip-path="url(#27864df491)"><g clip-path="url(#42d56f1cfe)"><g clip-path="url(#f62b2de211)"><path fill="#27016d" d="M 658.019531 -179.605469 L 1255.144531 235.679688 L 871.382812 787.480469 L 274.257812 372.195312 Z M 658.019531 -179.605469 " fill-opacity="1" fill-rule="nonzero"/></g></g></g></svg>