<svg xmlns="http://www.w3.org/2000/svg" xmlns:xlink="http://www.w3.org/1999/xlink" width="1800" zoomAndPan="magnify" viewBox="0 0 1350 749.999995" height="1000" preserveAspectRatio="xMidYMid meet" version="1.0"><defs><clipPath id="25dee199be"><path d="M 114 42 L 1155 42 L 1155 750 L 114 750 Z M 114 42 " clip-rule="nonzero"/></clipPath><clipPath id="48daf7fc52"><path d="M 1560.492188 701.050781 L 670.582031 1467.453125 L -110.21875 560.820312 L 779.691406 -205.582031 Z M 1560.492188 701.050781 " clip-rule="nonzero"/></clipPath><clipPath id="7faf287f2e"><path d="M 982.730469 1021.082031 C 964.902344 867.960938 886.121094 792.285156 922.164062 684.78125 C 994.5625 467.890625 1219.988281 421.164062 1135.820312 228.628906 C 1049.5625 31.414062 796.84375 -13.367188 458.171875 114.039062 C 62.9375 262.296875 14.945312 826.542969 279.335938 987.953125 C 498.261719 1121.777344 465.054688 1291.632812 613.667969 1338.921875 C 857.011719 1416.078125 1001.992188 1185.277344 982.730469 1021.082031 Z M 982.730469 1021.082031 " clip-rule="nonzero"/></clipPath><clipPath id="0691dc6d58"><path d="M 0 8 L 1025 8 L 1025 750 L 0 750 Z M 0 8 " clip-rule="nonzero"/></clipPath><clipPath id="3d4da81462"><path d="M 1430.347656 667.519531 L 540.4375 1433.921875 L -240.367188 527.289062 L 649.546875 -239.113281 Z M 1430.347656 667.519531 " clip-rule="nonzero"/></clipPath><clipPath id="2cd3edf4e4"><path d="M 852.585938 987.550781 C 834.757812 834.433594 755.976562 758.753906 792.019531 651.253906 C 864.417969 434.363281 1089.84375 387.632812 1005.675781 195.101562 C 919.417969 -2.113281 666.699219 -46.898438 328.027344 80.511719 C -67.207031 228.765625 -115.203125 793.011719 149.191406 954.421875 C 368.117188 1088.246094 334.910156 1258.101562 483.523438 1305.390625 C 726.867188 1382.546875 871.847656 1151.746094 852.585938 987.550781 Z M 852.585938 987.550781 " clip-rule="nonzero"/></clipPath><clipPath id="56aacffad0"><path d="M 55 10 L 1097 10 L 1097 750 L 55 750 Z M 55 10 " clip-rule="nonzero"/></clipPath><clipPath id="e7d520e686"><path d="M 1502.429688 669.703125 L 612.519531 1436.105469 L -168.28125 529.472656 L 721.628906 -236.929688 Z M 1502.429688 669.703125 " clip-rule="nonzero"/></clipPath><clipPath id="b176092248"><path d="M 924.667969 989.734375 C 906.839844 836.617188 828.058594 760.9375 864.101562 653.4375 C 936.5 436.546875 1161.925781 389.820312 1077.757812 197.285156 C 991.5 0.0703125 738.78125 -44.714844 400.109375 82.695312 C 4.875 230.949219 -43.117188 795.195312 221.273438 956.605469 C 440.199219 1090.429688 406.992188 1260.289062 555.605469 1307.578125 C 798.949219 1384.734375 943.929688 1153.929688 924.667969 989.734375 Z M 924.667969 989.734375 " clip-rule="nonzero"/></clipPath></defs><g clip-path="url(#25dee199be)"><g clip-path="url(#48daf7fc52)"><g clip-path="url(#7faf287f2e)"><path fill="#27016d" d="M 1560.492188 701.050781 L 672.441406 1465.851562 L -108.363281 559.21875 L 779.691406 -205.582031 Z M 1560.492188 701.050781 " fill-opacity="1" fill-rule="nonzero"/></g></g></g><g clip-path="url(#0691dc6d58)"><g clip-path="url(#3d4da81462)"><g clip-path="url(#2cd3edf4e4)"><path fill="#27016d" d="M 1430.347656 667.519531 L 542.292969 1432.320312 L -238.507812 525.691406 L 649.546875 -239.113281 Z M 1430.347656 667.519531 " fill-opacity="1" fill-rule="nonzero"/></g></g></g><g clip-path="url(#56aacffad0)"><g clip-path="url(#e7d520e686)"><g clip-path="url(#b176092248)"><path fill="#27016d" d="M 1502.429688 669.703125 L 614.378906 1434.507812 L -166.425781 527.875 L 721.628906 -236.929688 Z M 1502.429688 669.703125 " fill-opacity="1" fill-rule="nonzero"/></g></g></g></svg>