<svg xmlns="http://www.w3.org/2000/svg" xmlns:xlink="http://www.w3.org/1999/xlink" width="1000" zoomAndPan="magnify" viewBox="0 0 750 899.99999" height="1200" preserveAspectRatio="xMidYMid meet" version="1.0"><path fill="#684e98" d="M 339.84375 202.785156 C 374.203125 203.074219 412.007812 206.578125 447.175781 205.28125 C 484.523438 203.832031 520.234375 191.378906 556.917969 185.535156 C 621.566406 176.566406 680.65625 219.699219 715.160156 270.984375 C 740.554688 307.320312 749.984375 352.703125 744.945312 396.632812 C 744.015625 411.316406 737.972656 424.226562 732.519531 437.3125 C 725.234375 454.824219 717.125 472.023438 705.300781 487.066406 C 666.398438 534.230469 611.414062 563.84375 565 602.675781 C 560.460938 606.269531 557.3125 610.953125 554.648438 616.066406 C 540.167969 645.890625 525.160156 678.382812 493.355469 693.085938 C 441.558594 721.851562 373.648438 713.558594 329.394531 674.117188 C 318.363281 664.0625 309.144531 652.289062 297.960938 642.457031 C 265.703125 612.554688 233.832031 576.144531 188.96875 566.632812 C 141.484375 562.539062 116.792969 597.824219 65.894531 581.785156 C 16.640625 568.824219 -0.03125 511.542969 2.132812 465.875 C 5.789062 424.519531 22.398438 385.160156 44.601562 350.453125 C 116.695312 247.097656 214.488281 200.515625 339.84375 202.785156 Z M 339.84375 202.785156 " fill-opacity="1" fill-rule="nonzero"/><path fill="#684e98" d="M 339.84375 141.527344 C 374.203125 141.8125 412.007812 145.316406 447.175781 144.019531 C 484.523438 142.574219 520.234375 130.121094 556.917969 124.273438 C 621.566406 115.308594 680.65625 158.4375 715.160156 209.722656 C 740.554688 246.058594 749.984375 291.445312 744.945312 335.371094 C 744.015625 350.058594 737.972656 362.964844 732.519531 376.054688 C 725.234375 393.566406 717.125 410.761719 705.300781 425.808594 C 666.398438 472.96875 611.414062 502.585938 565 541.417969 C 560.460938 545.011719 557.3125 549.695312 554.648438 554.808594 C 540.167969 584.628906 525.160156 617.121094 493.355469 631.828125 C 441.558594 660.59375 373.648438 652.296875 329.394531 612.859375 C 318.363281 602.800781 309.144531 591.027344 297.960938 581.195312 C 265.703125 551.296875 233.832031 514.886719 188.96875 505.375 C 141.484375 501.28125 116.792969 536.5625 65.894531 520.527344 C 16.640625 507.566406 -0.03125 450.28125 2.132812 404.613281 C 5.789062 363.261719 22.398438 323.902344 44.601562 289.191406 C 116.695312 185.835938 214.488281 139.257812 339.84375 141.527344 Z M 339.84375 141.527344 " fill-opacity="1" fill-rule="nonzero"/><path fill="#27016e" d="M 339.84375 177.515625 C 374.203125 177.800781 412.007812 181.304688 447.175781 180.007812 C 484.523438 178.5625 520.234375 166.109375 556.917969 160.261719 C 621.566406 151.296875 680.65625 194.429688 715.160156 245.710938 C 740.554688 282.050781 749.984375 327.433594 744.945312 371.359375 C 744.015625 386.046875 737.972656 398.953125 732.519531 412.042969 C 725.234375 429.554688 717.125 446.753906 705.300781 461.796875 C 666.398438 508.960938 611.414062 538.574219 565 577.40625 C 560.460938 581 557.3125 585.683594 554.648438 590.796875 C 540.167969 620.617188 525.160156 653.113281 493.355469 667.816406 C 441.558594 696.582031 373.648438 688.285156 329.394531 648.847656 C 318.363281 638.792969 309.144531 627.019531 297.960938 617.183594 C 265.703125 587.285156 233.832031 550.875 188.96875 541.363281 C 141.484375 537.269531 116.792969 572.550781 65.894531 556.515625 C 16.640625 543.554688 -0.03125 486.273438 2.132812 440.601562 C 5.789062 399.25 22.398438 359.890625 44.601562 325.179688 C 116.695312 221.828125 214.488281 175.246094 339.84375 177.515625 Z M 339.84375 177.515625 " fill-opacity="1" fill-rule="nonzero"/></svg>