<svg xmlns="http://www.w3.org/2000/svg" xmlns:xlink="http://www.w3.org/1999/xlink" width="1000" zoomAndPan="magnify" viewBox="0 0 750 899.99999" height="1200" preserveAspectRatio="xMidYMid meet" version="1.0"><path fill="#684e98" d="M 410.15625 634.445312 C 375.796875 634.160156 337.992188 630.65625 302.824219 631.953125 C 265.476562 633.402344 229.765625 645.851562 193.082031 651.699219 C 128.433594 660.664062 69.34375 617.535156 34.839844 566.25 C 9.445312 529.914062 0.015625 484.527344 5.054688 440.601562 C 5.984375 425.914062 12.027344 413.007812 17.480469 399.921875 C 24.765625 382.410156 32.875 365.210938 44.699219 350.164062 C 83.601562 303.003906 138.585938 273.386719 185 234.554688 C 189.539062 230.960938 192.6875 226.277344 195.351562 221.164062 C 209.832031 191.34375 224.839844 158.851562 256.644531 144.144531 C 308.4375 115.378906 376.351562 123.675781 420.605469 163.113281 C 431.636719 173.171875 440.855469 184.945312 452.039062 194.777344 C 484.296875 224.679688 516.167969 261.085938 561.03125 270.597656 C 608.515625 274.691406 633.207031 239.410156 684.105469 255.445312 C 733.359375 268.410156 750.03125 325.691406 747.867188 371.359375 C 744.210938 412.710938 727.601562 452.070312 705.398438 486.78125 C 633.304688 590.136719 535.511719 636.71875 410.15625 634.445312 Z M 410.15625 634.445312 " fill-opacity="1" fill-rule="nonzero"/><path fill="#684e98" d="M 410.15625 691.957031 C 375.796875 691.671875 337.992188 688.167969 302.824219 689.460938 C 265.476562 690.910156 229.765625 703.363281 193.082031 709.210938 C 128.433594 718.175781 69.34375 675.042969 34.839844 623.761719 C 9.445312 587.421875 0.015625 542.039062 5.054688 498.113281 C 5.984375 483.425781 12.027344 470.515625 17.480469 457.429688 C 24.765625 439.917969 32.875 422.71875 44.699219 407.675781 C 83.601562 360.511719 138.585938 330.898438 185 292.066406 C 189.539062 288.472656 192.6875 283.789062 195.351562 278.675781 C 209.832031 248.855469 224.839844 216.359375 256.644531 201.65625 C 308.4375 172.890625 376.351562 181.183594 420.605469 220.625 C 431.636719 230.679688 440.855469 242.453125 452.039062 252.285156 C 484.296875 282.1875 516.167969 318.597656 561.03125 328.109375 C 608.515625 332.203125 633.207031 296.917969 684.105469 312.957031 C 733.359375 325.917969 750.03125 383.199219 747.867188 428.871094 C 744.210938 470.222656 727.601562 509.582031 705.398438 544.292969 C 633.304688 647.644531 535.511719 694.226562 410.15625 691.957031 Z M 410.15625 691.957031 " fill-opacity="1" fill-rule="nonzero"/><path fill="#27016e" d="M 410.15625 659.71875 C 375.796875 659.429688 337.992188 655.925781 302.824219 657.222656 C 265.476562 658.671875 229.765625 671.125 193.082031 676.96875 C 128.433594 685.9375 69.34375 642.804688 34.839844 591.519531 C 9.445312 555.183594 0.015625 509.800781 5.054688 465.875 C 5.984375 451.1875 12.027344 438.277344 17.480469 425.191406 C 24.765625 407.679688 32.875 390.480469 44.699219 375.4375 C 83.601562 328.273438 138.585938 298.660156 185 259.828125 C 189.539062 256.234375 192.6875 251.550781 195.351562 246.4375 C 209.832031 216.617188 224.839844 184.121094 256.644531 169.417969 C 308.4375 140.652344 376.351562 148.945312 420.605469 188.386719 C 431.636719 198.441406 440.855469 210.214844 452.039062 220.046875 C 484.296875 249.949219 516.167969 286.359375 561.03125 295.871094 C 608.515625 299.964844 633.207031 264.679688 684.105469 280.71875 C 733.359375 293.679688 750.03125 350.960938 747.867188 396.632812 C 744.210938 437.984375 727.601562 477.34375 705.398438 512.050781 C 633.304688 615.40625 535.511719 661.988281 410.15625 659.71875 Z M 410.15625 659.71875 " fill-opacity="1" fill-rule="nonzero"/></svg>