<svg xmlns="http://www.w3.org/2000/svg" xmlns:xlink="http://www.w3.org/1999/xlink" width="1000" zoomAndPan="magnify" viewBox="0 0 750 675.000002" height="900" preserveAspectRatio="xMidYMid meet" version="1.0"><defs><clipPath id="23cc39fa7f"><path d="M 157 2 L 679 2 L 679 672 L 157 672 Z M 157 2 " clip-rule="nonzero"/></clipPath><clipPath id="ebd33323c2"><path d="M 889.109375 206.058594 L 506.261719 754.390625 L 19.949219 414.84375 L 402.796875 -133.488281 Z M 889.109375 206.058594 " clip-rule="nonzero"/></clipPath><clipPath id="fbda5c6af9"><path d="M 506.445312 754.128906 L 889.289062 205.796875 L 402.976562 -133.746094 L 20.128906 414.585938 Z M 506.445312 754.128906 " clip-rule="nonzero"/></clipPath><clipPath id="7f9a9a0a3f"><path d="M 99 3 L 621 3 L 621 673 L 99 673 Z M 99 3 " clip-rule="nonzero"/></clipPath><clipPath id="88dc8dafed"><path d="M 831.257812 206.804688 L 448.410156 755.136719 L -37.90625 415.59375 L 344.941406 -132.738281 Z M 831.257812 206.804688 " clip-rule="nonzero"/></clipPath><clipPath id="fd2295c008"><path d="M 448.589844 754.878906 L 831.4375 206.546875 L 345.121094 -133 L -37.722656 415.332031 Z M 448.589844 754.878906 " clip-rule="nonzero"/></clipPath><clipPath id="ce20b28b19"><path d="M 121 1 L 643 1 L 643 671 L 121 671 Z M 121 1 " clip-rule="nonzero"/></clipPath><clipPath id="cd5e422ef3"><path d="M 852.941406 205.308594 L 470.097656 753.640625 L -16.21875 414.09375 L 366.628906 -134.238281 Z M 852.941406 205.308594 " clip-rule="nonzero"/></clipPath><clipPath id="80746479d8"><path d="M 470.277344 753.382812 L 853.125 205.050781 L 366.808594 -134.496094 L -16.035156 413.835938 Z M 470.277344 753.382812 " clip-rule="nonzero"/></clipPath></defs><g clip-path="url(#23cc39fa7f)"><g clip-path="url(#ebd33323c2)"><g clip-path="url(#fbda5c6af9)"><path fill="#684e98" d="M 661.652344 70.160156 C 663.847656 73.648438 665.84375 77.242188 667.640625 80.949219 C 669.4375 84.65625 671.023438 88.449219 672.402344 92.332031 C 673.777344 96.210938 674.9375 100.15625 675.878906 104.167969 C 676.820312 108.175781 677.539062 112.226562 678.03125 116.316406 C 678.527344 120.40625 678.792969 124.507812 678.832031 128.628906 C 678.871094 132.746094 678.683594 136.855469 678.269531 140.953125 C 677.855469 145.050781 677.214844 149.113281 676.351562 153.140625 C 675.488281 157.167969 674.402344 161.136719 673.101562 165.042969 C 653.855469 221.304688 593.839844 252.5 561.324219 302.316406 C 550.660156 318.644531 542.90625 337.957031 545.191406 357.320312 C 548 380.726562 564.558594 399.792969 578.09375 419.109375 C 609.925781 464.527344 627.980469 523.179688 611.679688 576.230469 C 610.726562 579.179688 609.675781 582.097656 608.527344 584.976562 C 607.375 587.855469 606.128906 590.695312 604.789062 593.492188 C 603.449219 596.289062 602.015625 599.035156 600.488281 601.734375 C 598.960938 604.433594 597.34375 607.078125 595.640625 609.667969 C 593.933594 612.261719 592.144531 614.789062 590.269531 617.261719 C 588.394531 619.730469 586.4375 622.132812 584.398438 624.472656 C 582.359375 626.808594 580.246094 629.074219 578.054688 631.269531 C 575.867188 633.464844 573.605469 635.585938 571.269531 637.628906 C 568.9375 639.671875 566.539062 641.632812 564.070312 643.511719 C 561.605469 645.394531 559.078125 647.191406 556.492188 648.898438 C 553.90625 650.609375 551.265625 652.230469 548.566406 653.765625 C 545.871094 655.296875 543.128906 656.738281 540.332031 658.082031 C 537.539062 659.429688 534.703125 660.683594 531.828125 661.839844 C 528.949219 662.996094 526.035156 664.050781 523.085938 665.011719 C 520.136719 665.972656 517.160156 666.832031 514.152344 667.589844 C 511.144531 668.347656 508.117188 669.003906 505.066406 669.558594 C 473.496094 674.753906 440.964844 668.738281 410.40625 658.796875 C 394.328125 653.546875 378.628906 647.335938 363.308594 640.167969 C 347.988281 633.003906 333.160156 624.929688 318.828125 615.953125 C 304.492188 606.976562 290.753906 597.164062 277.617188 586.511719 C 264.480469 575.859375 252.039062 564.449219 240.292969 552.28125 C 207.429688 518.214844 179.027344 477.671875 166.953125 431.558594 C 161.410156 410.316406 159.480469 388.289062 158.308594 366.363281 C 156.054688 324.960938 156.675781 282.871094 166.671875 242.578125 C 169.375 232.042969 172.664062 221.699219 176.546875 211.542969 C 180.429688 201.386719 184.875 191.484375 189.886719 181.832031 C 194.894531 172.183594 200.4375 162.847656 206.511719 153.832031 C 212.585938 144.8125 219.152344 136.167969 226.214844 127.898438 C 268.738281 77.261719 326.84375 42.21875 390.824219 25.308594 C 435.875 13.441406 501.929688 -1.4375 535.609375 3.207031 C 584.277344 9.890625 635.140625 28.796875 661.652344 70.160156 Z M 661.652344 70.160156 " fill-opacity="1" fill-rule="nonzero"/></g></g></g><g clip-path="url(#7f9a9a0a3f)"><g clip-path="url(#88dc8dafed)"><g clip-path="url(#fd2295c008)"><path fill="#684e98" d="M 603.796875 70.910156 C 605.992188 74.394531 607.988281 77.992188 609.785156 81.699219 C 611.582031 85.402344 613.171875 89.199219 614.546875 93.078125 C 615.925781 96.960938 617.085938 100.90625 618.027344 104.917969 C 618.96875 108.925781 619.683594 112.976562 620.179688 117.066406 C 620.671875 121.152344 620.9375 125.257812 620.976562 129.375 C 621.015625 133.496094 620.828125 137.605469 620.414062 141.703125 C 620 145.800781 619.359375 149.863281 618.496094 153.890625 C 617.632812 157.917969 616.550781 161.882812 615.246094 165.792969 C 596 222.054688 535.984375 253.25 503.46875 303.066406 C 492.804688 319.394531 485.050781 338.703125 487.339844 358.070312 C 490.144531 381.476562 506.703125 400.542969 520.238281 419.859375 C 552.070312 465.273438 570.125 523.929688 553.828125 576.980469 C 552.875 579.929688 551.820312 582.84375 550.671875 585.726562 C 549.523438 588.605469 548.277344 591.445312 546.933594 594.238281 C 545.59375 597.035156 544.160156 599.785156 542.632812 602.484375 C 541.105469 605.183594 539.492188 607.828125 537.785156 610.417969 C 536.082031 613.007812 534.289062 615.539062 532.414062 618.007812 C 530.539062 620.480469 528.582031 622.882812 526.546875 625.21875 C 524.507812 627.558594 522.394531 629.824219 520.203125 632.019531 C 518.011719 634.214844 515.75 636.332031 513.417969 638.375 C 511.082031 640.417969 508.683594 642.382812 506.21875 644.261719 C 503.753906 646.144531 501.226562 647.9375 498.640625 649.648438 C 496.050781 651.359375 493.410156 652.980469 490.714844 654.511719 C 488.019531 656.046875 485.273438 657.484375 482.480469 658.832031 C 479.6875 660.179688 476.851562 661.429688 473.972656 662.585938 C 471.097656 663.742188 468.183594 664.800781 465.234375 665.761719 C 462.285156 666.71875 459.304688 667.578125 456.300781 668.339844 C 453.292969 669.097656 450.261719 669.753906 447.210938 670.308594 C 415.644531 675.503906 383.109375 669.484375 352.550781 659.546875 C 336.472656 654.292969 320.773438 648.085938 305.457031 640.917969 C 290.136719 633.75 275.308594 625.679688 260.972656 616.703125 C 246.636719 607.726562 232.902344 597.914062 219.765625 587.261719 C 206.625 576.609375 194.183594 565.199219 182.4375 553.027344 C 149.578125 518.960938 121.171875 478.421875 109.101562 432.308594 C 103.558594 411.066406 101.625 389.039062 100.453125 367.109375 C 98.203125 325.710938 98.820312 283.617188 108.816406 243.324219 C 111.519531 232.792969 114.8125 222.449219 118.695312 212.292969 C 122.574219 202.136719 127.019531 192.230469 132.03125 182.582031 C 137.042969 172.933594 142.582031 163.597656 148.65625 154.578125 C 154.730469 145.5625 161.300781 136.917969 168.359375 128.648438 C 210.882812 78.007812 268.992188 42.96875 332.972656 26.058594 C 378.019531 14.191406 444.078125 -0.6875 477.753906 3.953125 C 526.425781 10.640625 577.285156 29.546875 603.796875 70.910156 Z M 603.796875 70.910156 " fill-opacity="1" fill-rule="nonzero"/></g></g></g><g clip-path="url(#ce20b28b19)"><g clip-path="url(#cd5e422ef3)"><g clip-path="url(#80746479d8)"><path fill="#27016e" d="M 625.484375 69.414062 C 627.679688 72.898438 629.675781 76.492188 631.472656 80.199219 C 633.269531 83.90625 634.855469 87.699219 636.234375 91.582031 C 637.613281 95.464844 638.773438 99.410156 639.714844 103.417969 C 640.65625 107.429688 641.371094 111.476562 641.863281 115.566406 C 642.359375 119.65625 642.625 123.761719 642.664062 127.878906 C 642.703125 131.996094 642.515625 136.105469 642.101562 140.203125 C 641.6875 144.300781 641.046875 148.363281 640.183594 152.390625 C 639.320312 156.417969 638.238281 160.386719 636.933594 164.292969 C 617.6875 220.554688 557.671875 251.75 525.15625 301.566406 C 514.492188 317.894531 506.738281 337.207031 509.027344 356.574219 C 511.832031 379.976562 528.390625 399.046875 541.925781 418.359375 C 573.757812 463.777344 591.8125 522.429688 575.515625 575.480469 C 574.558594 578.433594 573.507812 581.347656 572.359375 584.226562 C 571.210938 587.109375 569.964844 589.945312 568.621094 592.742188 C 567.28125 595.539062 565.847656 598.285156 564.320312 600.984375 C 562.792969 603.683594 561.179688 606.332031 559.472656 608.921875 C 557.769531 611.511719 555.976562 614.042969 554.101562 616.511719 C 552.226562 618.980469 550.269531 621.382812 548.230469 623.722656 C 546.195312 626.058594 544.082031 628.328125 541.890625 630.523438 C 539.699219 632.71875 537.4375 634.835938 535.105469 636.878906 C 532.769531 638.921875 530.371094 640.882812 527.90625 642.765625 C 525.4375 644.644531 522.914062 646.441406 520.324219 648.152344 C 517.738281 649.863281 515.097656 651.484375 512.402344 653.015625 C 509.703125 654.546875 506.960938 655.988281 504.167969 657.335938 C 501.375 658.683594 498.539062 659.933594 495.660156 661.089844 C 492.78125 662.246094 489.871094 663.304688 486.921875 664.261719 C 483.972656 665.222656 480.992188 666.082031 477.984375 666.839844 C 474.980469 667.597656 471.949219 668.257812 468.898438 668.808594 C 437.332031 674.003906 404.796875 667.988281 374.238281 658.046875 C 358.160156 652.796875 342.460938 646.585938 327.140625 639.421875 C 311.824219 632.253906 296.996094 624.183594 282.660156 615.207031 C 268.324219 606.230469 254.589844 596.414062 241.449219 585.761719 C 228.3125 575.113281 215.871094 563.699219 204.125 551.53125 C 171.261719 517.464844 142.859375 476.921875 130.785156 430.808594 C 125.242188 409.566406 123.3125 387.539062 122.140625 365.613281 C 119.890625 324.210938 120.507812 282.121094 130.503906 241.828125 C 133.207031 231.296875 136.5 220.949219 140.378906 210.792969 C 144.261719 200.636719 148.707031 190.734375 153.71875 181.085938 C 158.726562 171.433594 164.269531 162.101562 170.34375 153.082031 C 176.417969 144.0625 182.988281 135.421875 190.046875 127.152344 C 232.570312 76.511719 290.675781 41.46875 354.660156 24.558594 C 399.707031 12.695312 465.761719 -2.183594 499.441406 2.457031 C 548.113281 9.140625 598.972656 28.046875 625.484375 69.414062 Z M 625.484375 69.414062 " fill-opacity="1" fill-rule="nonzero"/></g></g></g></svg>