<svg xmlns="http://www.w3.org/2000/svg" xmlns:xlink="http://www.w3.org/1999/xlink" width="1000" zoomAndPan="magnify" viewBox="0 0 750 899.99999" height="1200" preserveAspectRatio="xMidYMid meet" version="1.0"><path fill="#684e98" d="M 397.429688 637.15625 C 364.132812 636.878906 327.503906 633.484375 293.429688 634.738281 C 257.238281 636.140625 222.636719 648.207031 187.089844 653.871094 C 124.449219 662.558594 67.195312 620.769531 33.761719 571.074219 C 9.152344 535.867188 0.015625 491.890625 4.898438 449.328125 C 5.800781 435.097656 11.65625 422.589844 16.9375 409.90625 C 24 392.9375 31.855469 376.273438 43.3125 361.695312 C 81.007812 315.996094 134.289062 287.300781 179.257812 249.675781 C 183.660156 246.191406 186.707031 241.652344 189.289062 236.699219 C 203.320312 207.804688 217.863281 176.320312 248.683594 162.070312 C 298.867188 134.195312 364.671875 142.234375 407.554688 180.449219 C 418.242188 190.195312 427.175781 201.601562 438.007812 211.128906 C 469.269531 240.105469 500.148438 275.382812 543.621094 284.597656 C 589.632812 288.566406 613.554688 254.378906 662.875 269.917969 C 710.601562 282.476562 726.757812 337.980469 724.660156 382.234375 C 721.117188 422.300781 705.023438 460.441406 683.507812 494.074219 C 613.652344 594.21875 518.894531 639.355469 397.429688 637.15625 Z M 397.429688 637.15625 " fill-opacity="1" fill-rule="nonzero"/><path fill="#684e98" d="M 397.429688 696.515625 C 364.132812 696.238281 327.503906 692.84375 293.429688 694.097656 C 257.238281 695.5 222.636719 707.566406 187.089844 713.230469 C 124.449219 721.917969 67.195312 680.128906 33.761719 630.433594 C 9.152344 595.226562 0.015625 551.25 4.898438 508.6875 C 5.800781 494.457031 11.65625 481.949219 16.9375 469.265625 C 24 452.296875 31.855469 435.632812 43.3125 421.054688 C 81.007812 375.355469 134.289062 346.660156 179.257812 309.035156 C 183.660156 305.550781 186.707031 301.011719 189.289062 296.058594 C 203.320312 267.164062 217.863281 235.679688 248.683594 221.429688 C 298.867188 193.554688 364.671875 201.59375 407.554688 239.808594 C 418.242188 249.554688 427.175781 260.960938 438.007812 270.488281 C 469.269531 299.464844 500.148438 334.742188 543.621094 343.957031 C 589.632812 347.925781 613.554688 313.738281 662.875 329.277344 C 710.601562 341.835938 726.757812 397.339844 724.660156 441.59375 C 721.117188 481.660156 705.023438 519.800781 683.507812 553.433594 C 613.652344 653.578125 518.894531 698.714844 397.429688 696.515625 Z M 397.429688 696.515625 " fill-opacity="1" fill-rule="nonzero"/><path fill="#684e98" d="M 409.0625 661.644531 C 375.769531 661.367188 339.136719 657.96875 305.0625 659.226562 C 268.875 660.628906 234.269531 672.695312 198.722656 678.359375 C 136.082031 687.046875 78.828125 645.253906 45.394531 595.5625 C 20.785156 560.351562 11.648438 516.378906 16.535156 473.8125 C 17.433594 459.582031 23.289062 447.074219 28.574219 434.394531 C 35.632812 417.425781 43.488281 400.761719 54.949219 386.183594 C 92.644531 340.484375 145.921875 311.789062 190.894531 274.160156 C 195.292969 270.679688 198.34375 266.140625 200.921875 261.1875 C 214.957031 232.292969 229.5 200.804688 260.316406 186.558594 C 310.503906 158.683594 376.304688 166.722656 419.191406 204.9375 C 429.878906 214.683594 438.808594 226.089844 449.644531 235.617188 C 480.90625 264.589844 511.785156 299.871094 555.257812 309.085938 C 601.265625 313.054688 625.191406 278.863281 674.511719 294.402344 C 722.238281 306.964844 738.390625 362.46875 736.292969 406.71875 C 732.75 446.789062 716.660156 484.925781 695.144531 518.558594 C 625.285156 618.707031 530.527344 663.84375 409.0625 661.644531 Z M 409.0625 661.644531 " fill-opacity="1" fill-rule="nonzero"/><path fill="#27016e" d="M 397.429688 661.644531 C 364.132812 661.367188 327.503906 657.96875 293.429688 659.226562 C 257.238281 660.628906 222.636719 672.695312 187.089844 678.359375 C 124.449219 687.046875 67.195312 645.253906 33.761719 595.5625 C 9.152344 560.351562 0.015625 516.378906 4.898438 473.8125 C 5.800781 459.582031 11.65625 447.074219 16.9375 434.394531 C 24 417.425781 31.855469 400.761719 43.3125 386.183594 C 81.007812 340.484375 134.289062 311.789062 179.257812 274.160156 C 183.660156 270.679688 186.707031 266.140625 189.289062 261.1875 C 203.320312 232.292969 217.863281 200.804688 248.683594 186.558594 C 298.867188 158.683594 364.671875 166.722656 407.554688 204.9375 C 418.242188 214.683594 427.175781 226.089844 438.007812 235.617188 C 469.269531 264.589844 500.148438 299.871094 543.621094 309.085938 C 589.632812 313.054688 613.554688 278.863281 662.875 294.402344 C 710.601562 306.964844 726.757812 362.46875 724.660156 406.71875 C 721.117188 446.789062 705.023438 484.925781 683.507812 518.558594 C 613.652344 618.707031 518.894531 663.84375 397.429688 661.644531 Z M 397.429688 661.644531 " fill-opacity="1" fill-rule="nonzero"/></svg>