<svg xmlns="http://www.w3.org/2000/svg" xmlns:xlink="http://www.w3.org/1999/xlink" width="1800" zoomAndPan="magnify" viewBox="0 0 1350 749.999995" height="1000" preserveAspectRatio="xMidYMid meet" version="1.0"><defs><clipPath id="7c8c10816e"><path d="M 30 139 L 753 139 L 753 750 L 30 750 Z M 30 139 " clip-rule="nonzero"/></clipPath><clipPath id="31a40ecd9a"><path d="M 1094.816406 484.71875 L 597.59375 1199.660156 L -130.785156 693.09375 L 366.4375 -21.847656 Z M 1094.816406 484.71875 " clip-rule="nonzero"/></clipPath><clipPath id="5833f754ed"><path d="M 739.15625 821.398438 C 698.03125 714.75 627.460938 674.980469 633.453125 591.125 C 645.316406 421.992188 798.539062 346.734375 702.484375 224.058594 C 604.066406 98.402344 414.3125 113 194.699219 267.136719 C -61.671875 446.707031 8.246094 860.742188 227.953125 927.734375 C 409.910156 983.328125 417.488281 1111.433594 532.949219 1117.898438 C 721.957031 1128.285156 783.363281 935.734375 739.15625 821.398438 Z M 739.15625 821.398438 " clip-rule="nonzero"/></clipPath><clipPath id="083220ac28"><path d="M 0 139 L 654 139 L 654 750 L 0 750 Z M 0 139 " clip-rule="nonzero"/></clipPath><clipPath id="0df3553861"><path d="M 995.164062 484.71875 L 497.941406 1199.660156 L -230.4375 693.09375 L 266.785156 -21.847656 Z M 995.164062 484.71875 " clip-rule="nonzero"/></clipPath><clipPath id="1ec9ac0e80"><path d="M 639.503906 821.398438 C 598.375 714.75 527.804688 674.980469 533.800781 591.125 C 545.664062 421.992188 698.886719 346.734375 602.832031 224.058594 C 504.410156 98.402344 314.660156 113 95.046875 267.136719 C -161.324219 446.707031 -91.40625 860.742188 128.300781 927.734375 C 310.257812 983.328125 317.835938 1111.433594 433.296875 1117.898438 C 622.304688 1128.285156 683.710938 935.734375 639.503906 821.398438 Z M 639.503906 821.398438 " clip-rule="nonzero"/></clipPath><clipPath id="d5345476f6"><path d="M 0 127 L 706 127 L 706 750 L 0 750 Z M 0 127 " clip-rule="nonzero"/></clipPath><clipPath id="5437f78f29"><path d="M 1047.324219 472.949219 L 550.101562 1187.894531 L -178.273438 681.328125 L 318.949219 -33.613281 Z M 1047.324219 472.949219 " clip-rule="nonzero"/></clipPath><clipPath id="a8c4ef5e96"><path d="M 691.664062 809.632812 C 650.539062 702.980469 579.96875 663.214844 585.960938 579.355469 C 597.824219 410.222656 751.050781 334.96875 654.996094 212.289062 C 556.574219 86.636719 366.824219 101.230469 147.207031 255.371094 C -109.164062 434.941406 -39.242188 848.976562 180.464844 915.96875 C 362.421875 971.558594 370 1099.667969 485.457031 1106.132812 C 674.464844 1116.515625 735.871094 923.96875 691.664062 809.632812 Z M 691.664062 809.632812 " clip-rule="nonzero"/></clipPath></defs><g clip-path="url(#7c8c10816e)"><g clip-path="url(#31a40ecd9a)"><g clip-path="url(#5833f754ed)"><path fill="#27016d" d="M 1094.816406 484.71875 L 598.632812 1198.167969 L -129.746094 691.601562 L 366.4375 -21.847656 Z M 1094.816406 484.71875 " fill-opacity="1" fill-rule="nonzero"/></g></g></g><g clip-path="url(#083220ac28)"><g clip-path="url(#0df3553861)"><g clip-path="url(#1ec9ac0e80)"><path fill="#27016d" d="M 995.164062 484.71875 L 498.976562 1198.167969 L -229.398438 691.601562 L 266.785156 -21.847656 Z M 995.164062 484.71875 " fill-opacity="1" fill-rule="nonzero"/></g></g></g><g clip-path="url(#d5345476f6)"><g clip-path="url(#5437f78f29)"><g clip-path="url(#a8c4ef5e96)"><path fill="#27016d" d="M 1047.324219 472.949219 L 551.140625 1186.402344 L -177.234375 679.835938 L 318.949219 -33.613281 Z M 1047.324219 472.949219 " fill-opacity="1" fill-rule="nonzero"/></g></g></g><path fill="#27016d" d="M -28.289062 525.9375 L -27.226562 524.878906 C -6.640625 501.796875 18.660156 492.15625 48.667969 495.957031 L 58.898438 497.984375 C 65.601562 499.71875 72.136719 501.996094 78.5 504.824219 C 84.863281 507.648438 91.128906 510.804688 97.292969 514.296875 L 143.519531 541.019531 C 149.804688 544.28125 156.234375 547.125 162.8125 549.542969 C 171.695312 552.664062 180.785156 555.039062 190.074219 556.679688 C 233.449219 562.855469 255.574219 566.480469 256.457031 567.558594 C 269.226562 570.671875 278.769531 574.859375 285.078125 580.109375 C 292.261719 584.957031 297.839844 595.15625 301.8125 610.703125 C 305.097656 625.734375 305.605469 645.355469 303.332031 669.5625 C 298.210938 706.425781 286.820312 733.0625 269.160156 749.476562 C 241.78125 776.542969 209.507812 790 172.332031 789.847656 C 161.710938 790.109375 148.554688 789.28125 132.867188 787.355469 C 130.347656 787.234375 113.640625 784.699219 82.746094 779.753906 C 50.414062 776.304688 30.957031 773.941406 24.363281 772.667969 C 8.589844 769.300781 -0.597656 766.773438 -3.195312 765.09375 C -8.964844 762.769531 -14.371094 759.832031 -19.414062 756.277344 C -34.117188 745.402344 -47.058594 727.882812 -58.234375 703.726562 C -69.101562 679.820312 -74.648438 657.957031 -74.871094 638.128906 C -73.738281 600.34375 -58.210938 562.945312 -28.289062 525.9375 " fill-opacity="1" fill-rule="nonzero"/></svg>