<svg xmlns="http://www.w3.org/2000/svg" xmlns:xlink="http://www.w3.org/1999/xlink" width="300" zoomAndPan="magnify" viewBox="0 0 224.87999 44.999999" height="60" preserveAspectRatio="xMidYMid meet" version="1.0"><defs><g/><clipPath id="dffa55595a"><path d="M 3 0.0117188 L 221.867188 0.0117188 L 221.867188 44.683594 L 3 44.683594 Z M 3 0.0117188 " clip-rule="nonzero"/></clipPath></defs><g clip-path="url(#dffa55595a)"><path fill="#c89c9d" d="M 7.605469 8.273438 C 2.296875 13.546875 2.839844 27.53125 6.089844 34.585938 C 8.511719 39.835938 15 41.304688 19.992188 42.308594 C 37.707031 45.863281 55.929688 45.574219 73.882812 45.308594 C 101.222656 44.902344 128.550781 43.980469 155.890625 43.621094 C 168.699219 43.453125 181.507812 43.640625 194.316406 43.730469 C 199.675781 43.769531 205.328125 44.59375 210.546875 42.789062 C 219.53125 39.679688 221.464844 28.597656 222.207031 20.375 C 222.542969 16.632812 223.378906 11.46875 219.816406 8.742188 C 214.335938 4.542969 206.875 4.554688 200.40625 3.945312 C 179.910156 2 180.023438 1.875 159.339844 1.273438 C 143.207031 0.800781 118.183594 0.316406 102.042969 0.695312 C 91.367188 0.945312 80.703125 1.574219 70.035156 2.085938 C 59.382812 2.597656 49.828125 1.351562 39.171875 1.710938 C 28.421875 2.070312 13.117188 2.792969 7.605469 8.273438 Z M 7.605469 8.273438 " fill-opacity="1" fill-rule="evenodd"/></g><g fill="#ffffff" fill-opacity="1"><g transform="translate(70.503117, 25.873197)"><g><path d="M 7.890625 -0.75 C 7.515625 -0.445312 7.019531 -0.210938 6.40625 -0.046875 C 5.800781 0.109375 5.054688 0.1875 4.171875 0.1875 C 3.285156 0.1875 2.34375 0.109375 1.34375 -0.046875 L 1.34375 -10.328125 C 2.351562 -10.492188 3.226562 -10.578125 3.96875 -10.578125 C 4.707031 -10.578125 5.316406 -10.503906 5.796875 -10.359375 C 6.273438 -10.222656 6.664062 -10.035156 6.96875 -9.796875 C 7.5625 -9.328125 7.859375 -8.722656 7.859375 -7.984375 C 7.859375 -7.253906 7.585938 -6.648438 7.046875 -6.171875 C 7.679688 -5.972656 8.171875 -5.597656 8.515625 -5.046875 C 8.835938 -4.546875 9 -3.992188 9 -3.390625 C 9 -2.796875 8.910156 -2.285156 8.734375 -1.859375 C 8.554688 -1.429688 8.273438 -1.0625 7.890625 -0.75 Z M 3.40625 -6.453125 C 3.625 -6.421875 3.894531 -6.40625 4.21875 -6.40625 C 4.550781 -6.40625 4.820312 -6.445312 5.03125 -6.53125 C 5.25 -6.613281 5.414062 -6.722656 5.53125 -6.859375 C 5.71875 -7.066406 5.8125 -7.363281 5.8125 -7.75 C 5.8125 -8.539062 5.34375 -8.9375 4.40625 -8.9375 C 4.007812 -8.9375 3.675781 -8.921875 3.40625 -8.890625 Z M 4.5625 -4.78125 C 4.125 -4.78125 3.738281 -4.753906 3.40625 -4.703125 L 3.40625 -1.625 C 3.769531 -1.53125 4.148438 -1.484375 4.546875 -1.484375 C 4.953125 -1.484375 5.304688 -1.53125 5.609375 -1.625 C 5.921875 -1.726562 6.179688 -1.863281 6.390625 -2.03125 C 6.804688 -2.375 7.015625 -2.8125 7.015625 -3.34375 C 7.015625 -4.300781 6.195312 -4.78125 4.5625 -4.78125 Z M 4.5625 -4.78125 "/></g></g></g><g fill="#ffffff" fill-opacity="1"><g transform="translate(79.847415, 25.873197)"><g><path d="M 2.1875 -1.21875 C 1.71875 -1.675781 1.34375 -2.222656 1.0625 -2.859375 C 0.789062 -3.492188 0.65625 -4.191406 0.65625 -4.953125 C 0.65625 -5.710938 0.78125 -6.425781 1.03125 -7.09375 C 1.289062 -7.769531 1.65625 -8.363281 2.125 -8.875 C 2.601562 -9.394531 3.175781 -9.804688 3.84375 -10.109375 C 4.519531 -10.421875 5.273438 -10.578125 6.109375 -10.578125 C 7.546875 -10.578125 8.753906 -10.125 9.734375 -9.21875 C 10.785156 -8.25 11.3125 -6.941406 11.3125 -5.296875 C 11.3125 -3.703125 10.769531 -2.378906 9.6875 -1.328125 C 9.019531 -0.671875 8.226562 -0.222656 7.3125 0.015625 C 6.863281 0.128906 6.332031 0.1875 5.71875 0.1875 C 5.113281 0.1875 4.492188 0.0664062 3.859375 -0.171875 C 3.222656 -0.421875 2.664062 -0.769531 2.1875 -1.21875 Z M 2.828125 -5.0625 C 2.828125 -4.570312 2.90625 -4.125 3.0625 -3.71875 C 3.226562 -3.3125 3.457031 -2.960938 3.75 -2.671875 C 4.351562 -2.054688 5.132812 -1.75 6.09375 -1.75 C 7.007812 -1.75 7.738281 -2.046875 8.28125 -2.640625 C 8.84375 -3.242188 9.125 -4.070312 9.125 -5.125 C 9.125 -6.113281 8.859375 -6.941406 8.328125 -7.609375 C 7.753906 -8.304688 6.960938 -8.65625 5.953125 -8.65625 C 4.984375 -8.65625 4.210938 -8.300781 3.640625 -7.59375 C 3.097656 -6.914062 2.828125 -6.070312 2.828125 -5.0625 Z M 2.828125 -5.0625 "/></g></g></g><g fill="#ffffff" fill-opacity="1"><g transform="translate(91.830285, 25.873197)"><g><path d="M 2.1875 -1.21875 C 1.71875 -1.675781 1.34375 -2.222656 1.0625 -2.859375 C 0.789062 -3.492188 0.65625 -4.191406 0.65625 -4.953125 C 0.65625 -5.710938 0.78125 -6.425781 1.03125 -7.09375 C 1.289062 -7.769531 1.65625 -8.363281 2.125 -8.875 C 2.601562 -9.394531 3.175781 -9.804688 3.84375 -10.109375 C 4.519531 -10.421875 5.273438 -10.578125 6.109375 -10.578125 C 7.546875 -10.578125 8.753906 -10.125 9.734375 -9.21875 C 10.785156 -8.25 11.3125 -6.941406 11.3125 -5.296875 C 11.3125 -3.703125 10.769531 -2.378906 9.6875 -1.328125 C 9.019531 -0.671875 8.226562 -0.222656 7.3125 0.015625 C 6.863281 0.128906 6.332031 0.1875 5.71875 0.1875 C 5.113281 0.1875 4.492188 0.0664062 3.859375 -0.171875 C 3.222656 -0.421875 2.664062 -0.769531 2.1875 -1.21875 Z M 2.828125 -5.0625 C 2.828125 -4.570312 2.90625 -4.125 3.0625 -3.71875 C 3.226562 -3.3125 3.457031 -2.960938 3.75 -2.671875 C 4.351562 -2.054688 5.132812 -1.75 6.09375 -1.75 C 7.007812 -1.75 7.738281 -2.046875 8.28125 -2.640625 C 8.84375 -3.242188 9.125 -4.070312 9.125 -5.125 C 9.125 -6.113281 8.859375 -6.941406 8.328125 -7.609375 C 7.753906 -8.304688 6.960938 -8.65625 5.953125 -8.65625 C 4.984375 -8.65625 4.210938 -8.300781 3.640625 -7.59375 C 3.097656 -6.914062 2.828125 -6.070312 2.828125 -5.0625 Z M 2.828125 -5.0625 "/></g></g></g><g fill="#ffffff" fill-opacity="1"><g transform="translate(103.813155, 25.873197)"><g><path d="M 3.328125 0.046875 C 2.972656 0.015625 2.515625 0 1.953125 0 L 1.34375 0 L 1.34375 -10.40625 L 1.65625 -10.390625 C 1.875 -10.378906 2.035156 -10.375 2.140625 -10.375 L 2.375 -10.375 C 2.832031 -10.375 3.148438 -10.394531 3.328125 -10.4375 L 3.328125 -6.03125 L 6.5 -10.40625 C 6.832031 -10.382812 7.113281 -10.375 7.34375 -10.375 L 7.765625 -10.375 C 8.296875 -10.375 8.675781 -10.394531 8.90625 -10.4375 L 5.90625 -6.515625 L 8.859375 -0.625 C 8.984375 -0.332031 9.101562 -0.125 9.21875 0 L 8.734375 0 C 7.640625 0 6.957031 0.0195312 6.6875 0.0625 C 6.632812 -0.28125 6.554688 -0.582031 6.453125 -0.84375 L 4.46875 -4.640625 L 3.328125 -3.15625 Z M 3.328125 0.046875 "/></g></g></g><g fill="#ffffff" fill-opacity="1"><g transform="translate(113.126228, 25.873197)"><g/></g></g><g fill="#ffffff" fill-opacity="1"><g transform="translate(118.426797, 25.873197)"><g><path d="M 1.40625 0 C 1.4375 -0.175781 1.453125 -0.367188 1.453125 -0.578125 L 1.453125 -10.375 L 3.015625 -10.375 L 7.15625 -3.875 L 7.15625 -9.84375 C 7.15625 -10.132812 7.128906 -10.3125 7.078125 -10.375 L 9.1875 -10.375 C 9.15625 -10.164062 9.140625 -9.9375 9.140625 -9.6875 L 9.140625 0 L 7.53125 0 L 3.453125 -6.25 L 3.453125 0 Z M 1.40625 0 "/></g></g></g><g fill="#ffffff" fill-opacity="1"><g transform="translate(129.035736, 25.873197)"><g><path d="M 2.1875 -1.21875 C 1.71875 -1.675781 1.34375 -2.222656 1.0625 -2.859375 C 0.789062 -3.492188 0.65625 -4.191406 0.65625 -4.953125 C 0.65625 -5.710938 0.78125 -6.425781 1.03125 -7.09375 C 1.289062 -7.769531 1.65625 -8.363281 2.125 -8.875 C 2.601562 -9.394531 3.175781 -9.804688 3.84375 -10.109375 C 4.519531 -10.421875 5.273438 -10.578125 6.109375 -10.578125 C 7.546875 -10.578125 8.753906 -10.125 9.734375 -9.21875 C 10.785156 -8.25 11.3125 -6.941406 11.3125 -5.296875 C 11.3125 -3.703125 10.769531 -2.378906 9.6875 -1.328125 C 9.019531 -0.671875 8.226562 -0.222656 7.3125 0.015625 C 6.863281 0.128906 6.332031 0.1875 5.71875 0.1875 C 5.113281 0.1875 4.492188 0.0664062 3.859375 -0.171875 C 3.222656 -0.421875 2.664062 -0.769531 2.1875 -1.21875 Z M 2.828125 -5.0625 C 2.828125 -4.570312 2.90625 -4.125 3.0625 -3.71875 C 3.226562 -3.3125 3.457031 -2.960938 3.75 -2.671875 C 4.351562 -2.054688 5.132812 -1.75 6.09375 -1.75 C 7.007812 -1.75 7.738281 -2.046875 8.28125 -2.640625 C 8.84375 -3.242188 9.125 -4.070312 9.125 -5.125 C 9.125 -6.113281 8.859375 -6.941406 8.328125 -7.609375 C 7.753906 -8.304688 6.960938 -8.65625 5.953125 -8.65625 C 4.984375 -8.65625 4.210938 -8.300781 3.640625 -7.59375 C 3.097656 -6.914062 2.828125 -6.070312 2.828125 -5.0625 Z M 2.828125 -5.0625 "/></g></g></g><g fill="#ffffff" fill-opacity="1"><g transform="translate(141.018606, 25.873197)"><g><path d="M 5.0625 0.03125 C 4.90625 0.0078125 4.640625 0 4.265625 0 L 3.359375 0 C 3.179688 0 3.035156 0.00390625 2.921875 0.015625 L 2.90625 0 C 2.925781 -0.03125 2.9375 -0.0664062 2.9375 -0.109375 C 2.9375 -0.160156 2.929688 -0.210938 2.921875 -0.265625 C 2.921875 -0.316406 2.898438 -0.410156 2.859375 -0.546875 C 2.828125 -0.679688 2.78125 -0.878906 2.71875 -1.140625 L 0.0625 -10.40625 C 0.394531 -10.382812 0.796875 -10.375 1.265625 -10.375 C 1.742188 -10.375 2.050781 -10.394531 2.1875 -10.4375 L 4.03125 -3.375 L 5.828125 -10.40625 C 5.910156 -10.40625 5.984375 -10.398438 6.046875 -10.390625 L 6.21875 -10.390625 C 6.382812 -10.378906 6.597656 -10.375 6.859375 -10.375 C 7.117188 -10.375 7.390625 -10.394531 7.671875 -10.4375 L 9.484375 -3.375 L 11.0625 -10.40625 C 11.375 -10.382812 11.78125 -10.375 12.28125 -10.375 C 12.789062 -10.375 13.097656 -10.394531 13.203125 -10.4375 L 10.953125 -2.203125 C 10.671875 -1.253906 10.519531 -0.691406 10.5 -0.515625 C 10.488281 -0.335938 10.484375 -0.210938 10.484375 -0.140625 C 10.484375 -0.078125 10.492188 -0.03125 10.515625 0 L 10.5 0.03125 C 10.332031 0.0078125 10.066406 0 9.703125 0 C 9.390625 0 9.101562 0 8.84375 0 C 8.59375 0 8.410156 0.00390625 8.296875 0.015625 L 8.296875 0 C 8.316406 -0.03125 8.328125 -0.0664062 8.328125 -0.109375 C 8.328125 -0.160156 8.320312 -0.207031 8.3125 -0.25 C 8.3125 -0.300781 8.296875 -0.394531 8.265625 -0.53125 C 8.242188 -0.664062 8.207031 -0.863281 8.15625 -1.125 L 7.953125 -2.1875 L 6.671875 -7.046875 L 5.453125 -2.203125 C 5.203125 -1.210938 5.070312 -0.640625 5.0625 -0.484375 C 5.039062 -0.203125 5.046875 -0.0390625 5.078125 0 Z M 5.0625 0.03125 "/></g></g></g></svg>