<svg xmlns="http://www.w3.org/2000/svg" xmlns:xlink="http://www.w3.org/1999/xlink" width="300" zoomAndPan="magnify" viewBox="0 0 224.87999 44.999999" height="60" preserveAspectRatio="xMidYMid meet" version="1.0"><defs><g/><clipPath id="6e6e849380"><path d="M 3 0.0117188 L 221.867188 0.0117188 L 221.867188 44.683594 L 3 44.683594 Z M 3 0.0117188 " clip-rule="nonzero"/></clipPath></defs><g clip-path="url(#6e6e849380)"><path fill="#99b698" d="M 7.605469 8.273438 C 2.296875 13.546875 2.839844 27.53125 6.089844 34.585938 C 8.511719 39.835938 15 41.304688 19.992188 42.308594 C 37.707031 45.863281 55.929688 45.574219 73.882812 45.308594 C 101.222656 44.902344 128.550781 43.980469 155.890625 43.621094 C 168.699219 43.453125 181.507812 43.640625 194.316406 43.730469 C 199.675781 43.769531 205.328125 44.59375 210.546875 42.789062 C 219.53125 39.679688 221.464844 28.597656 222.207031 20.375 C 222.542969 16.632812 223.378906 11.46875 219.816406 8.742188 C 214.335938 4.542969 206.875 4.554688 200.40625 3.945312 C 179.910156 2 180.023438 1.875 159.339844 1.273438 C 143.207031 0.800781 118.183594 0.316406 102.042969 0.695312 C 91.367188 0.945312 80.703125 1.574219 70.035156 2.085938 C 59.382812 2.597656 49.828125 1.351562 39.171875 1.710938 C 28.421875 2.070312 13.117188 2.792969 7.605469 8.273438 Z M 7.605469 8.273438 " fill-opacity="1" fill-rule="evenodd"/></g><g fill="#ffffff" fill-opacity="1"><g transform="translate(43.868894, 25.873197)"><g><path d="M 7.265625 -10.421875 C 7.585938 -10.390625 7.851562 -10.375 8.0625 -10.375 L 8.703125 -10.375 C 8.921875 -10.375 9.148438 -10.394531 9.390625 -10.4375 L 9.390625 -3.984375 C 9.390625 -2.703125 9.003906 -1.675781 8.234375 -0.90625 C 7.503906 -0.175781 6.582031 0.1875 5.46875 0.1875 C 4.257812 0.1875 3.28125 -0.125 2.53125 -0.75 C 1.6875 -1.457031 1.265625 -2.476562 1.265625 -3.8125 L 1.265625 -10.421875 C 1.703125 -10.390625 2.109375 -10.375 2.484375 -10.375 C 2.867188 -10.375 3.1875 -10.394531 3.4375 -10.4375 L 3.4375 -3.703125 C 3.4375 -3.046875 3.640625 -2.535156 4.046875 -2.171875 C 4.421875 -1.835938 4.890625 -1.671875 5.453125 -1.671875 C 6.285156 -1.671875 6.835938 -2.097656 7.109375 -2.953125 C 7.210938 -3.265625 7.265625 -3.644531 7.265625 -4.09375 Z M 7.265625 -10.421875 "/></g></g></g><g fill="#ffffff" fill-opacity="1"><g transform="translate(54.548086, 25.873197)"><g><path d="M 1.1875 -10.4375 C 1.914062 -10.53125 2.660156 -10.578125 3.421875 -10.578125 C 4.835938 -10.578125 5.910156 -10.242188 6.640625 -9.578125 C 7.378906 -8.910156 7.75 -7.921875 7.75 -6.609375 C 7.75 -5.421875 7.347656 -4.484375 6.546875 -3.796875 C 5.785156 -3.148438 4.8125 -2.828125 3.625 -2.828125 C 3.488281 -2.828125 3.34375 -2.835938 3.1875 -2.859375 L 3.1875 0 L 1.1875 0 Z M 3.65625 -8.6875 C 3.5 -8.6875 3.34375 -8.679688 3.1875 -8.671875 L 3.1875 -4.578125 C 3.351562 -4.554688 3.554688 -4.546875 3.796875 -4.546875 C 4.035156 -4.546875 4.285156 -4.59375 4.546875 -4.6875 C 4.804688 -4.789062 5.023438 -4.9375 5.203125 -5.125 C 5.566406 -5.5 5.75 -6 5.75 -6.625 C 5.75 -8 5.050781 -8.6875 3.65625 -8.6875 Z M 3.65625 -8.6875 "/></g></g></g><g fill="#ffffff" fill-opacity="1"><g transform="translate(62.557479, 25.873197)"><g><path d="M 6 -10.578125 C 6.96875 -10.578125 7.796875 -10.40625 8.484375 -10.0625 L 8.484375 -7.6875 L 8.46875 -7.671875 C 8.175781 -8.109375 7.5625 -8.398438 6.625 -8.546875 C 6.351562 -8.597656 6.003906 -8.625 5.578125 -8.625 C 5.160156 -8.625 4.75 -8.539062 4.34375 -8.375 C 3.9375 -8.21875 3.601562 -8 3.34375 -7.71875 C 2.832031 -7.144531 2.578125 -6.332031 2.578125 -5.28125 C 2.578125 -4.0625 2.898438 -3.148438 3.546875 -2.546875 C 4.078125 -2.046875 4.78125 -1.796875 5.65625 -1.796875 C 6.644531 -1.796875 7.441406 -2.007812 8.046875 -2.4375 C 8.273438 -2.582031 8.46875 -2.769531 8.625 -3 L 8.640625 -2.984375 L 8.640625 -0.796875 C 7.847656 -0.140625 6.78125 0.1875 5.4375 0.1875 C 3.84375 0.1875 2.597656 -0.3125 1.703125 -1.3125 C 0.835938 -2.28125 0.40625 -3.554688 0.40625 -5.140625 C 0.40625 -6.828125 0.878906 -8.148438 1.828125 -9.109375 C 2.785156 -10.085938 4.175781 -10.578125 6 -10.578125 Z M 6 -10.578125 "/></g></g></g><g fill="#ffffff" fill-opacity="1"><g transform="translate(71.831513, 25.873197)"><g><path d="M 2.1875 -1.21875 C 1.71875 -1.675781 1.34375 -2.222656 1.0625 -2.859375 C 0.789062 -3.492188 0.65625 -4.191406 0.65625 -4.953125 C 0.65625 -5.710938 0.78125 -6.425781 1.03125 -7.09375 C 1.289062 -7.769531 1.65625 -8.363281 2.125 -8.875 C 2.601562 -9.394531 3.175781 -9.804688 3.84375 -10.109375 C 4.519531 -10.421875 5.273438 -10.578125 6.109375 -10.578125 C 7.546875 -10.578125 8.753906 -10.125 9.734375 -9.21875 C 10.785156 -8.25 11.3125 -6.941406 11.3125 -5.296875 C 11.3125 -3.703125 10.769531 -2.378906 9.6875 -1.328125 C 9.019531 -0.671875 8.226562 -0.222656 7.3125 0.015625 C 6.863281 0.128906 6.332031 0.1875 5.71875 0.1875 C 5.113281 0.1875 4.492188 0.0664062 3.859375 -0.171875 C 3.222656 -0.421875 2.664062 -0.769531 2.1875 -1.21875 Z M 2.828125 -5.0625 C 2.828125 -4.570312 2.90625 -4.125 3.0625 -3.71875 C 3.226562 -3.3125 3.457031 -2.960938 3.75 -2.671875 C 4.351562 -2.054688 5.132812 -1.75 6.09375 -1.75 C 7.007812 -1.75 7.738281 -2.046875 8.28125 -2.640625 C 8.84375 -3.242188 9.125 -4.070312 9.125 -5.125 C 9.125 -6.113281 8.859375 -6.941406 8.328125 -7.609375 C 7.753906 -8.304688 6.960938 -8.65625 5.953125 -8.65625 C 4.984375 -8.65625 4.210938 -8.300781 3.640625 -7.59375 C 3.097656 -6.914062 2.828125 -6.070312 2.828125 -5.0625 Z M 2.828125 -5.0625 "/></g></g></g><g fill="#ffffff" fill-opacity="1"><g transform="translate(83.814384, 25.873197)"><g><path d="M 3.453125 0.046875 C 3.203125 0.015625 2.71875 0 2 0 L 1.375 0 L 1.375 -10.40625 C 1.707031 -10.382812 2.070312 -10.375 2.46875 -10.375 C 2.875 -10.375 3.160156 -10.394531 3.328125 -10.4375 L 5.953125 -5.984375 L 8.46875 -10.4375 C 8.632812 -10.394531 8.953125 -10.375 9.421875 -10.375 C 9.890625 -10.375 10.289062 -10.382812 10.625 -10.40625 L 10.625 0 L 10 0 C 9.289062 0 8.8125 0.015625 8.5625 0.046875 L 8.5625 -6.953125 L 6.015625 -2.375 L 3.453125 -6.578125 Z M 3.453125 0.046875 "/></g></g></g><g fill="#ffffff" fill-opacity="1"><g transform="translate(95.82848, 25.873197)"><g><path d="M 1.578125 -10.40625 C 2.097656 -10.382812 2.414062 -10.375 2.53125 -10.375 L 3.09375 -10.375 C 3.363281 -10.375 3.582031 -10.394531 3.75 -10.4375 L 3.75 0 L 1.578125 0 Z M 1.578125 -10.40625 "/></g></g></g><g fill="#ffffff" fill-opacity="1"><g transform="translate(101.168075, 25.873197)"><g><path d="M 1.40625 0 C 1.4375 -0.175781 1.453125 -0.367188 1.453125 -0.578125 L 1.453125 -10.375 L 3.015625 -10.375 L 7.15625 -3.875 L 7.15625 -9.84375 C 7.15625 -10.132812 7.128906 -10.3125 7.078125 -10.375 L 9.1875 -10.375 C 9.15625 -10.164062 9.140625 -9.9375 9.140625 -9.6875 L 9.140625 0 L 7.53125 0 L 3.453125 -6.25 L 3.453125 0 Z M 1.40625 0 "/></g></g></g><g fill="#ffffff" fill-opacity="1"><g transform="translate(111.777014, 25.873197)"><g><path d="M 9.890625 -6.265625 C 9.796875 -6.085938 9.75 -5.660156 9.75 -4.984375 L 9.75 -2.5625 C 9.75 -1.832031 9.367188 -1.195312 8.609375 -0.65625 C 7.828125 -0.09375 6.863281 0.1875 5.71875 0.1875 C 4.132812 0.1875 2.875 -0.304688 1.9375 -1.296875 C 1.019531 -2.242188 0.5625 -3.453125 0.5625 -4.921875 C 0.5625 -6.484375 1.023438 -7.78125 1.953125 -8.8125 C 2.992188 -9.988281 4.421875 -10.578125 6.234375 -10.578125 C 7.441406 -10.578125 8.398438 -10.34375 9.109375 -9.875 L 8.984375 -7.578125 L 8.921875 -7.5625 C 8.742188 -7.875 8.390625 -8.128906 7.859375 -8.328125 C 7.347656 -8.523438 6.8125 -8.625 6.25 -8.625 C 5.6875 -8.625 5.195312 -8.535156 4.78125 -8.359375 C 4.363281 -8.179688 4.007812 -7.929688 3.71875 -7.609375 C 3.101562 -6.929688 2.796875 -6.039062 2.796875 -4.9375 C 2.796875 -3.976562 3.066406 -3.207031 3.609375 -2.625 C 4.148438 -2.039062 4.847656 -1.75 5.703125 -1.75 C 6.640625 -1.75 7.273438 -1.992188 7.609375 -2.484375 C 7.710938 -2.640625 7.765625 -2.816406 7.765625 -3.015625 L 7.765625 -4.3125 L 6.75 -4.3125 C 6.207031 -4.3125 5.914062 -4.265625 5.875 -4.171875 L 5.84375 -4.1875 L 5.78125 -6.21875 C 5.925781 -6.175781 6.515625 -6.15625 7.546875 -6.15625 L 8.46875 -6.15625 C 9.039062 -6.15625 9.507812 -6.195312 9.875 -6.28125 Z M 9.890625 -6.265625 "/></g></g></g><g fill="#ffffff" fill-opacity="1"><g transform="translate(122.42498, 25.873197)"><g/></g></g><g fill="#ffffff" fill-opacity="1"><g transform="translate(127.725549, 25.873197)"><g><path d="M 6.5625 -1.875 C 6.882812 -1.875 7.109375 -1.90625 7.234375 -1.96875 L 7.265625 -1.953125 L 7.1875 0 L 1.34375 0 L 1.34375 -10.4375 C 1.476562 -10.425781 1.632812 -10.414062 1.8125 -10.40625 L 2.359375 -10.390625 C 2.722656 -10.378906 3.117188 -10.375 3.546875 -10.375 C 4.734375 -10.375 5.910156 -10.394531 7.078125 -10.4375 C 7.023438 -9.976562 7 -9.367188 7 -8.609375 C 7 -8.523438 7.003906 -8.460938 7.015625 -8.421875 L 7 -8.390625 C 6.726562 -8.472656 6.34375 -8.515625 5.84375 -8.515625 L 3.375 -8.515625 L 3.375 -6.53125 L 5.234375 -6.53125 C 5.804688 -6.53125 6.148438 -6.546875 6.265625 -6.578125 L 6.28125 -4.640625 C 6.03125 -4.671875 5.707031 -4.6875 5.3125 -4.6875 L 3.375 -4.6875 L 3.375 -1.875 Z M 6.5625 -1.875 "/></g></g></g><g fill="#ffffff" fill-opacity="1"><g transform="translate(135.734942, 25.873197)"><g><path d="M 5.78125 0.03125 C 5.613281 0.0078125 5.34375 0 4.96875 0 L 4.109375 0 C 3.960938 0 3.832031 0.00390625 3.71875 0.015625 L 3.71875 0 C 3.738281 -0.03125 3.75 -0.0664062 3.75 -0.109375 C 3.75 -0.160156 3.742188 -0.210938 3.734375 -0.265625 C 3.722656 -0.316406 3.695312 -0.410156 3.65625 -0.546875 C 3.625 -0.679688 3.570312 -0.878906 3.5 -1.140625 L 3.171875 -2.1875 L 0.265625 -10.40625 C 0.585938 -10.382812 1 -10.375 1.5 -10.375 C 2 -10.375 2.316406 -10.394531 2.453125 -10.4375 L 4.8125 -3.34375 L 6.875 -10.40625 C 7.1875 -10.382812 7.566406 -10.375 8.015625 -10.375 C 8.640625 -10.375 9.003906 -10.394531 9.109375 -10.4375 L 6.265625 -2.203125 C 6.265625 -2.203125 6.175781 -1.898438 6 -1.296875 C 5.84375 -0.773438 5.765625 -0.4375 5.765625 -0.28125 C 5.765625 -0.125 5.773438 -0.03125 5.796875 0 Z M 5.78125 0.03125 "/></g></g></g><g fill="#ffffff" fill-opacity="1"><g transform="translate(145.048015, 25.873197)"><g><path d="M 6.5625 -1.875 C 6.882812 -1.875 7.109375 -1.90625 7.234375 -1.96875 L 7.265625 -1.953125 L 7.1875 0 L 1.34375 0 L 1.34375 -10.4375 C 1.476562 -10.425781 1.632812 -10.414062 1.8125 -10.40625 L 2.359375 -10.390625 C 2.722656 -10.378906 3.117188 -10.375 3.546875 -10.375 C 4.734375 -10.375 5.910156 -10.394531 7.078125 -10.4375 C 7.023438 -9.976562 7 -9.367188 7 -8.609375 C 7 -8.523438 7.003906 -8.460938 7.015625 -8.421875 L 7 -8.390625 C 6.726562 -8.472656 6.34375 -8.515625 5.84375 -8.515625 L 3.375 -8.515625 L 3.375 -6.53125 L 5.234375 -6.53125 C 5.804688 -6.53125 6.148438 -6.546875 6.265625 -6.578125 L 6.28125 -4.640625 C 6.03125 -4.671875 5.707031 -4.6875 5.3125 -4.6875 L 3.375 -4.6875 L 3.375 -1.875 Z M 6.5625 -1.875 "/></g></g></g><g fill="#ffffff" fill-opacity="1"><g transform="translate(153.057408, 25.873197)"><g><path d="M 1.40625 0 C 1.4375 -0.175781 1.453125 -0.367188 1.453125 -0.578125 L 1.453125 -10.375 L 3.015625 -10.375 L 7.15625 -3.875 L 7.15625 -9.84375 C 7.15625 -10.132812 7.128906 -10.3125 7.078125 -10.375 L 9.1875 -10.375 C 9.15625 -10.164062 9.140625 -9.9375 9.140625 -9.6875 L 9.140625 0 L 7.53125 0 L 3.453125 -6.25 L 3.453125 0 Z M 1.40625 0 "/></g></g></g><g fill="#ffffff" fill-opacity="1"><g transform="translate(163.666347, 25.873197)"><g><path d="M 5.09375 0.046875 C 4.84375 0.015625 4.195312 0 3.15625 0 L 2.90625 0 L 2.90625 -8.625 L 1.359375 -8.625 C 0.898438 -8.625 0.628906 -8.597656 0.546875 -8.546875 C 0.460938 -8.503906 0.398438 -8.46875 0.359375 -8.4375 L 0.328125 -8.4375 L 0.328125 -10.4375 L 0.359375 -10.46875 C 0.523438 -10.40625 0.988281 -10.375 1.75 -10.375 L 6.640625 -10.375 C 7.097656 -10.375 7.367188 -10.394531 7.453125 -10.4375 C 7.535156 -10.488281 7.601562 -10.535156 7.65625 -10.578125 L 7.671875 -10.5625 L 7.671875 -8.5625 L 7.65625 -8.546875 C 7.476562 -8.597656 7.015625 -8.625 6.265625 -8.625 L 5.09375 -8.625 Z M 5.09375 0.046875 "/></g></g></g><g fill="#ffffff" fill-opacity="1"><g transform="translate(171.67574, 25.873197)"><g><path d="M 7.609375 -9.796875 L 7.46875 -7.515625 L 7.40625 -7.5 C 7.019531 -8.070312 6.363281 -8.441406 5.4375 -8.609375 C 5.144531 -8.671875 4.863281 -8.703125 4.59375 -8.703125 C 4.332031 -8.703125 4.101562 -8.675781 3.90625 -8.625 C 3.71875 -8.582031 3.554688 -8.515625 3.421875 -8.421875 C 3.140625 -8.234375 3 -7.992188 3 -7.703125 C 3 -7.304688 3.125 -7.007812 3.375 -6.8125 C 3.6875 -6.570312 4.203125 -6.398438 4.921875 -6.296875 C 5.648438 -6.203125 6.234375 -6.070312 6.671875 -5.90625 C 7.109375 -5.738281 7.46875 -5.53125 7.75 -5.28125 C 8.269531 -4.800781 8.53125 -4.125 8.53125 -3.25 C 8.53125 -2.101562 8.101562 -1.21875 7.25 -0.59375 C 6.507812 -0.0703125 5.578125 0.1875 4.453125 0.1875 C 3.546875 0.1875 2.648438 0.0195312 1.765625 -0.3125 C 1.472656 -0.425781 1.21875 -0.5625 1 -0.71875 L 1.078125 -3.328125 L 1.109375 -3.34375 C 1.753906 -2.226562 2.816406 -1.671875 4.296875 -1.671875 C 5.335938 -1.671875 6.03125 -1.925781 6.375 -2.4375 C 6.488281 -2.601562 6.546875 -2.789062 6.546875 -3 C 6.546875 -3.21875 6.507812 -3.394531 6.4375 -3.53125 C 6.375 -3.664062 6.265625 -3.785156 6.109375 -3.890625 C 5.804688 -4.085938 5.296875 -4.21875 4.578125 -4.28125 C 3.867188 -4.351562 3.285156 -4.484375 2.828125 -4.671875 C 2.378906 -4.859375 2.019531 -5.085938 1.75 -5.359375 C 1.257812 -5.859375 1.015625 -6.554688 1.015625 -7.453125 C 1.015625 -8.378906 1.335938 -9.128906 1.984375 -9.703125 C 2.648438 -10.285156 3.539062 -10.578125 4.65625 -10.578125 C 5.78125 -10.578125 6.765625 -10.316406 7.609375 -9.796875 Z M 7.609375 -9.796875 "/></g></g></g></svg>