<svg xmlns="http://www.w3.org/2000/svg" xmlns:xlink="http://www.w3.org/1999/xlink" width="300" zoomAndPan="magnify" viewBox="0 0 224.87999 44.999999" height="60" preserveAspectRatio="xMidYMid meet" version="1.0"><defs><g/><clipPath id="48c8922bd5"><path d="M 5 0.0117188 L 219.765625 0.0117188 L 219.765625 43.9375 L 5 43.9375 Z M 5 0.0117188 " clip-rule="nonzero"/></clipPath></defs><g clip-path="url(#48c8922bd5)"><path fill="#99b698" d="M 9.039062 8.136719 C 3.824219 13.320312 4.355469 27.074219 7.550781 34.011719 C 9.929688 39.171875 16.3125 40.617188 21.222656 41.601562 C 38.640625 45.101562 56.5625 44.816406 74.21875 44.554688 C 101.101562 44.15625 127.976562 43.25 154.863281 42.894531 C 167.457031 42.730469 180.050781 42.914062 192.648438 43.003906 C 197.921875 43.039062 203.476562 43.851562 208.609375 42.074219 C 217.441406 39.019531 219.347656 28.121094 220.074219 20.035156 C 220.40625 16.355469 221.226562 11.277344 217.726562 8.59375 C 212.332031 4.46875 204.996094 4.480469 198.640625 3.878906 C 178.484375 1.964844 178.589844 1.84375 158.253906 1.25 C 142.390625 0.789062 117.78125 0.308594 101.90625 0.683594 C 91.410156 0.929688 80.921875 1.550781 70.433594 2.050781 C 59.957031 2.554688 50.5625 1.328125 40.082031 1.679688 C 29.511719 2.035156 14.460938 2.746094 9.039062 8.136719 Z M 9.039062 8.136719 " fill-opacity="1" fill-rule="evenodd"/></g><g fill="#f8f7f6" fill-opacity="1"><g transform="translate(24.693759, 27.420382)"><g><path d="M 10.316406 -7.371094 C 10.316406 -6.75 10.191406 -6.179688 9.933594 -5.652344 C 9.679688 -5.125 9.335938 -4.671875 8.902344 -4.289062 C 8.472656 -3.90625 7.972656 -3.605469 7.40625 -3.390625 C 6.84375 -3.171875 6.246094 -3.066406 5.621094 -3.066406 L 4.105469 -3.066406 L 4.105469 -1.296875 C 4.105469 -1.09375 4.070312 -0.90625 3.996094 -0.734375 C 3.921875 -0.5625 3.824219 -0.410156 3.695312 -0.28125 C 3.425781 -0.00390625 3.089844 0.136719 2.683594 0.136719 C 2.269531 0.136719 1.929688 -0.00390625 1.660156 -0.28125 C 1.53125 -0.410156 1.433594 -0.5625 1.359375 -0.734375 C 1.285156 -0.90625 1.25 -1.09375 1.25 -1.296875 L 1.25 -10.28125 C 1.242188 -10.359375 1.234375 -10.441406 1.226562 -10.523438 C 1.21875 -10.605469 1.203125 -10.6875 1.1875 -10.765625 C 1.160156 -10.84375 1.144531 -10.921875 1.136719 -10.996094 C 1.125 -11.074219 1.121094 -11.144531 1.121094 -11.210938 C 1.121094 -11.304688 1.136719 -11.386719 1.164062 -11.457031 C 1.191406 -11.53125 1.242188 -11.59375 1.3125 -11.648438 C 1.453125 -11.753906 1.703125 -11.804688 2.0625 -11.804688 L 5.621094 -11.804688 C 6.246094 -11.804688 6.84375 -11.691406 7.40625 -11.464844 C 7.972656 -11.234375 8.472656 -10.921875 8.902344 -10.527344 C 9.335938 -10.125 9.679688 -9.65625 9.933594 -9.117188 C 10.191406 -8.582031 10.316406 -7.996094 10.316406 -7.371094 Z M 7.515625 -7.289062 C 7.515625 -7.550781 7.46875 -7.800781 7.375 -8.039062 C 7.28125 -8.273438 7.144531 -8.484375 6.96875 -8.667969 C 6.800781 -8.84375 6.597656 -8.984375 6.363281 -9.089844 C 6.128906 -9.199219 5.882812 -9.25 5.621094 -9.25 L 4.050781 -9.25 L 4.050781 -5.519531 L 5.621094 -5.519531 C 5.882812 -5.519531 6.128906 -5.5625 6.363281 -5.652344 C 6.597656 -5.738281 6.800781 -5.859375 6.96875 -6.011719 C 7.144531 -6.171875 7.28125 -6.355469 7.375 -6.574219 C 7.46875 -6.789062 7.515625 -7.027344 7.515625 -7.289062 Z M 7.515625 -7.289062 "/></g></g></g><g fill="#f8f7f6" fill-opacity="1"><g transform="translate(37.247079, 27.420382)"><g><path d="M 10.070312 -2.125 C 10.199219 -1.980469 10.289062 -1.820312 10.339844 -1.640625 C 10.394531 -1.464844 10.410156 -1.289062 10.390625 -1.113281 C 10.367188 -0.9375 10.3125 -0.765625 10.222656 -0.601562 C 10.132812 -0.4375 10.011719 -0.296875 9.851562 -0.171875 C 9.695312 -0.0507812 9.527344 0.0351562 9.355469 0.0820312 C 9.183594 0.128906 9.007812 0.144531 8.832031 0.117188 C 8.472656 0.0820312 8.164062 -0.0898438 7.910156 -0.402344 L 6.058594 -3.082031 C 5.984375 -3.078125 5.910156 -3.074219 5.839844 -3.070312 C 5.765625 -3.066406 5.691406 -3.066406 5.621094 -3.066406 L 4.105469 -3.066406 L 4.105469 -1.296875 C 4.105469 -1.09375 4.070312 -0.90625 3.996094 -0.734375 C 3.921875 -0.5625 3.824219 -0.410156 3.695312 -0.28125 C 3.425781 -0.00390625 3.089844 0.136719 2.683594 0.136719 C 2.269531 0.136719 1.929688 -0.00390625 1.660156 -0.28125 C 1.53125 -0.410156 1.433594 -0.5625 1.359375 -0.734375 C 1.285156 -0.90625 1.25 -1.09375 1.25 -1.296875 L 1.25 -10.28125 C 1.242188 -10.359375 1.234375 -10.441406 1.226562 -10.523438 C 1.21875 -10.605469 1.203125 -10.6875 1.1875 -10.765625 C 1.160156 -10.84375 1.144531 -10.921875 1.136719 -10.996094 C 1.125 -11.074219 1.121094 -11.144531 1.121094 -11.210938 C 1.121094 -11.304688 1.136719 -11.386719 1.164062 -11.457031 C 1.191406 -11.53125 1.242188 -11.59375 1.3125 -11.648438 C 1.453125 -11.753906 1.703125 -11.804688 2.0625 -11.804688 L 5.621094 -11.804688 C 6.246094 -11.804688 6.84375 -11.691406 7.40625 -11.464844 C 7.972656 -11.234375 8.472656 -10.921875 8.902344 -10.527344 C 9.335938 -10.125 9.679688 -9.65625 9.933594 -9.117188 C 10.191406 -8.582031 10.316406 -7.996094 10.316406 -7.371094 C 10.316406 -6.75 10.191406 -6.179688 9.933594 -5.652344 C 9.679688 -5.125 9.335938 -4.671875 8.902344 -4.289062 C 8.847656 -4.246094 8.792969 -4.203125 8.738281 -4.15625 C 8.683594 -4.109375 8.628906 -4.066406 8.574219 -4.023438 Z M 4.050781 -5.519531 L 5.621094 -5.519531 C 5.882812 -5.519531 6.128906 -5.5625 6.363281 -5.652344 C 6.597656 -5.738281 6.800781 -5.859375 6.96875 -6.011719 C 7.144531 -6.171875 7.28125 -6.355469 7.375 -6.574219 C 7.46875 -6.789062 7.515625 -7.027344 7.515625 -7.289062 C 7.515625 -7.550781 7.46875 -7.800781 7.375 -8.039062 C 7.28125 -8.273438 7.144531 -8.484375 6.96875 -8.667969 C 6.800781 -8.84375 6.597656 -8.984375 6.363281 -9.089844 C 6.128906 -9.199219 5.882812 -9.25 5.621094 -9.25 L 4.050781 -9.25 Z M 4.050781 -5.519531 "/></g></g></g><g fill="#f8f7f6" fill-opacity="1"><g transform="translate(49.818634, 27.420382)"><g><path d="M 4.105469 -10.261719 L 4.105469 -1.3125 C 4.105469 -0.914062 3.972656 -0.570312 3.703125 -0.292969 C 3.578125 -0.15625 3.425781 -0.0546875 3.253906 0.0234375 C 3.078125 0.0976562 2.890625 0.136719 2.683594 0.136719 C 2.46875 0.136719 2.277344 0.0976562 2.101562 0.0195312 C 1.929688 -0.0625 1.777344 -0.167969 1.652344 -0.300781 C 1.382812 -0.582031 1.25 -0.917969 1.25 -1.3125 L 1.25 -10.179688 C 1.242188 -10.261719 1.234375 -10.339844 1.226562 -10.417969 C 1.21875 -10.496094 1.203125 -10.578125 1.1875 -10.65625 C 1.144531 -10.800781 1.121094 -10.953125 1.121094 -11.113281 C 1.121094 -11.203125 1.136719 -11.285156 1.164062 -11.359375 C 1.191406 -11.429688 1.242188 -11.496094 1.3125 -11.550781 C 1.453125 -11.652344 1.703125 -11.703125 2.0625 -11.703125 C 2.335938 -11.703125 2.59375 -11.683594 2.832031 -11.644531 C 3.074219 -11.605469 3.285156 -11.535156 3.46875 -11.429688 C 3.648438 -11.320312 3.796875 -11.175781 3.910156 -10.988281 C 4.023438 -10.804688 4.085938 -10.5625 4.105469 -10.261719 Z M 4.105469 -10.261719 "/></g></g></g><g fill="#f8f7f6" fill-opacity="1"><g transform="translate(56.879872, 27.420382)"><g><path d="M 9.878906 -11.3125 C 10.148438 -11.046875 10.289062 -10.714844 10.300781 -10.328125 C 10.300781 -10.144531 10.261719 -9.957031 10.191406 -9.761719 L 6.632812 -0.75 C 6.554688 -0.558594 6.445312 -0.398438 6.3125 -0.265625 C 6.179688 -0.128906 6.03125 -0.03125 5.867188 0.0351562 C 5.683594 0.117188 5.492188 0.152344 5.292969 0.144531 C 5.085938 0.15625 4.894531 0.121094 4.714844 0.0351562 C 4.550781 -0.03125 4.402344 -0.128906 4.269531 -0.265625 C 4.136719 -0.398438 4.03125 -0.558594 3.949219 -0.75 L 0.390625 -9.761719 C 0.246094 -10.140625 0.25 -10.507812 0.402344 -10.867188 C 0.46875 -11.03125 0.570312 -11.179688 0.703125 -11.3125 C 0.835938 -11.445312 0.996094 -11.550781 1.175781 -11.621094 C 1.371094 -11.695312 1.558594 -11.730469 1.742188 -11.730469 C 2.125 -11.730469 2.453125 -11.59375 2.726562 -11.320312 C 2.855469 -11.195312 2.960938 -11.035156 3.046875 -10.847656 L 5.292969 -4.679688 L 7.535156 -10.847656 C 7.597656 -11.035156 7.695312 -11.195312 7.828125 -11.328125 C 7.960938 -11.457031 8.113281 -11.558594 8.285156 -11.632812 C 8.464844 -11.699219 8.648438 -11.730469 8.832031 -11.730469 C 9.027344 -11.730469 9.214844 -11.695312 9.402344 -11.621094 C 9.585938 -11.550781 9.746094 -11.445312 9.878906 -11.3125 Z M 9.878906 -11.3125 "/></g></g></g><g fill="#f8f7f6" fill-opacity="1"><g transform="translate(69.287213, 27.420382)"><g><path d="M 5.355469 -11.714844 C 5.539062 -11.714844 5.703125 -11.679688 5.847656 -11.613281 C 5.992188 -11.546875 6.125 -11.457031 6.242188 -11.339844 C 6.355469 -11.222656 6.460938 -11.09375 6.550781 -10.949219 C 6.640625 -10.800781 6.722656 -10.648438 6.796875 -10.492188 L 10.316406 -1.804688 C 10.347656 -1.722656 10.371094 -1.632812 10.386719 -1.542969 C 10.402344 -1.449219 10.414062 -1.363281 10.417969 -1.277344 C 10.417969 -1.082031 10.378906 -0.898438 10.300781 -0.722656 C 10.222656 -0.542969 10.101562 -0.390625 9.945312 -0.253906 C 9.769531 -0.078125 9.566406 0.0351562 9.34375 0.0898438 C 9.117188 0.144531 8.894531 0.148438 8.675781 0.101562 C 8.449219 0.0507812 8.246094 -0.046875 8.054688 -0.199219 C 7.867188 -0.351562 7.722656 -0.554688 7.628906 -0.804688 L 7.1875 -1.878906 L 3.539062 -1.878906 L 3.09375 -0.804688 C 2.957031 -0.492188 2.773438 -0.253906 2.535156 -0.0859375 C 2.300781 0.0820312 2.023438 0.15625 1.714844 0.144531 C 1.488281 0.144531 1.285156 0.0976562 1.09375 0 C 0.90625 -0.0976562 0.75 -0.226562 0.628906 -0.382812 C 0.5 -0.542969 0.410156 -0.722656 0.359375 -0.929688 C 0.308594 -1.136719 0.304688 -1.351562 0.347656 -1.570312 C 0.378906 -1.671875 0.410156 -1.769531 0.441406 -1.867188 C 0.476562 -1.960938 0.515625 -2.058594 0.554688 -2.164062 L 3.851562 -10.308594 C 3.886719 -10.40625 3.914062 -10.511719 3.933594 -10.628906 C 3.949219 -10.738281 3.972656 -10.84375 3.996094 -10.949219 C 4.019531 -11.050781 4.058594 -11.148438 4.105469 -11.238281 C 4.152344 -11.332031 4.230469 -11.410156 4.328125 -11.480469 C 4.429688 -11.550781 4.5625 -11.609375 4.726562 -11.648438 C 4.878906 -11.691406 5.085938 -11.714844 5.355469 -11.714844 Z M 6.632812 -4.085938 L 5.375 -7.335938 L 4.105469 -4.085938 Z M 6.632812 -4.085938 "/></g></g></g><g fill="#f8f7f6" fill-opacity="1"><g transform="translate(81.995628, 27.420382)"><g><path d="M 10.445312 -10.28125 C 10.445312 -10.082031 10.40625 -9.894531 10.332031 -9.722656 C 10.257812 -9.546875 10.152344 -9.398438 10.027344 -9.269531 C 9.746094 -8.988281 9.402344 -8.847656 8.996094 -8.847656 L 6.816406 -8.847656 L 6.777344 -1.296875 C 6.777344 -1.09375 6.742188 -0.90625 6.671875 -0.734375 C 6.605469 -0.5625 6.507812 -0.410156 6.386719 -0.28125 C 6.257812 -0.148438 6.109375 -0.046875 5.9375 0.0273438 C 5.769531 0.101562 5.582031 0.136719 5.382812 0.136719 C 5.175781 0.136719 4.984375 0.0976562 4.8125 0.0234375 C 4.640625 -0.0546875 4.492188 -0.15625 4.371094 -0.28125 C 4.25 -0.410156 4.152344 -0.5625 4.082031 -0.734375 C 4.011719 -0.90625 3.976562 -1.09375 3.976562 -1.296875 L 3.949219 -8.847656 L 1.722656 -8.847656 C 1.523438 -8.847656 1.335938 -8.886719 1.160156 -8.957031 C 0.980469 -9.03125 0.832031 -9.132812 0.703125 -9.261719 C 0.574219 -9.386719 0.472656 -9.539062 0.398438 -9.710938 C 0.320312 -9.886719 0.28125 -10.074219 0.28125 -10.28125 C 0.28125 -10.6875 0.421875 -11.027344 0.703125 -11.292969 C 0.832031 -11.421875 0.980469 -11.523438 1.160156 -11.601562 C 1.335938 -11.675781 1.523438 -11.714844 1.722656 -11.714844 L 8.984375 -11.714844 C 9.1875 -11.714844 9.375 -11.675781 9.550781 -11.605469 C 9.726562 -11.53125 9.882812 -11.429688 10.015625 -11.304688 C 10.152344 -11.175781 10.257812 -11.023438 10.332031 -10.847656 C 10.40625 -10.671875 10.445312 -10.484375 10.445312 -10.28125 Z M 10.445312 -10.28125 "/></g></g></g><g fill="#f8f7f6" fill-opacity="1"><g transform="translate(94.548947, 27.420382)"><g><path d="M 10.035156 -1.296875 C 10.035156 -1.089844 9.996094 -0.898438 9.921875 -0.726562 C 9.84375 -0.550781 9.742188 -0.402344 9.605469 -0.273438 C 9.472656 -0.144531 9.316406 -0.046875 9.136719 0.0273438 C 8.957031 0.101562 8.765625 0.136719 8.566406 0.136719 L 2.753906 0.136719 C 2.535156 0.136719 2.335938 0.0976562 2.148438 0.0234375 C 1.964844 -0.0546875 1.804688 -0.15625 1.679688 -0.292969 C 1.398438 -0.570312 1.257812 -0.933594 1.257812 -1.378906 L 1.257812 -10.152344 C 1.253906 -10.234375 1.242188 -10.3125 1.230469 -10.394531 C 1.21875 -10.476562 1.203125 -10.558594 1.1875 -10.636719 C 1.144531 -10.789062 1.121094 -10.949219 1.121094 -11.113281 C 1.121094 -11.203125 1.132812 -11.285156 1.160156 -11.359375 C 1.183594 -11.429688 1.230469 -11.496094 1.304688 -11.550781 C 1.371094 -11.597656 1.460938 -11.636719 1.578125 -11.667969 C 1.695312 -11.699219 1.84375 -11.714844 2.023438 -11.714844 L 8.574219 -11.714844 C 8.886719 -11.714844 9.144531 -11.648438 9.351562 -11.511719 C 9.558594 -11.378906 9.714844 -11.210938 9.824219 -11.011719 C 9.929688 -10.804688 9.980469 -10.585938 9.984375 -10.351562 C 9.988281 -10.117188 9.9375 -9.898438 9.835938 -9.699219 C 9.730469 -9.492188 9.578125 -9.320312 9.371094 -9.1875 C 9.164062 -9.054688 8.902344 -8.984375 8.585938 -8.984375 L 4.105469 -8.984375 L 4.105469 -7.097656 L 7.433594 -7.097656 C 7.65625 -7.097656 7.859375 -7.042969 8.046875 -6.9375 C 8.234375 -6.832031 8.394531 -6.695312 8.519531 -6.53125 C 8.644531 -6.363281 8.71875 -6.167969 8.753906 -5.953125 C 8.789062 -5.738281 8.757812 -5.519531 8.667969 -5.300781 C 8.5625 -5.039062 8.402344 -4.835938 8.1875 -4.6875 C 7.972656 -4.542969 7.722656 -4.46875 7.433594 -4.46875 L 4.105469 -4.46875 L 4.105469 -2.726562 L 8.558594 -2.726562 C 8.976562 -2.726562 9.328125 -2.597656 9.605469 -2.335938 C 9.742188 -2.207031 9.84375 -2.054688 9.921875 -1.878906 C 9.996094 -1.703125 10.035156 -1.507812 10.035156 -1.296875 Z M 10.035156 -1.296875 "/></g></g></g><g fill="#f8f7f6" fill-opacity="1"><g transform="translate(106.892427, 27.420382)"><g/></g></g><g fill="#f8f7f6" fill-opacity="1"><g transform="translate(112.941011, 27.420382)"><g><path d="M 10.472656 -4.945312 C 10.59375 -4.671875 10.667969 -4.34375 10.6875 -3.96875 C 10.710938 -3.589844 10.675781 -3.222656 10.59375 -2.863281 C 10.5 -2.410156 10.332031 -1.996094 10.089844 -1.625 C 9.847656 -1.253906 9.554688 -0.9375 9.214844 -0.675781 C 8.875 -0.414062 8.492188 -0.210938 8.074219 -0.0742188 C 7.65625 0.0664062 7.214844 0.136719 6.761719 0.136719 L 2.691406 0.136719 C 2.453125 0.136719 2.246094 0.09375 2.070312 0.0078125 C 1.894531 -0.0742188 1.746094 -0.1875 1.625 -0.328125 C 1.378906 -0.621094 1.257812 -0.96875 1.257812 -1.367188 L 1.257812 -10.152344 C 1.257812 -10.183594 1.257812 -10.214844 1.253906 -10.25 C 1.25 -10.285156 1.246094 -10.316406 1.242188 -10.34375 C 1.234375 -10.375 1.230469 -10.40625 1.222656 -10.441406 C 1.214844 -10.476562 1.210938 -10.507812 1.203125 -10.539062 L 1.195312 -10.59375 L 1.195312 -10.621094 C 1.171875 -10.710938 1.152344 -10.796875 1.140625 -10.878906 C 1.128906 -10.960938 1.121094 -11.042969 1.121094 -11.121094 C 1.121094 -11.207031 1.136719 -11.285156 1.164062 -11.359375 C 1.191406 -11.429688 1.234375 -11.496094 1.296875 -11.550781 C 1.363281 -11.597656 1.449219 -11.636719 1.558594 -11.667969 C 1.667969 -11.699219 1.8125 -11.714844 1.988281 -11.714844 L 6.578125 -11.714844 C 6.980469 -11.714844 7.367188 -11.65625 7.738281 -11.539062 C 8.109375 -11.425781 8.449219 -11.261719 8.757812 -11.046875 C 9.0625 -10.828125 9.324219 -10.566406 9.546875 -10.253906 C 9.769531 -9.945312 9.933594 -9.589844 10.035156 -9.195312 C 10.085938 -9.007812 10.117188 -8.8125 10.140625 -8.609375 C 10.160156 -8.402344 10.167969 -8.191406 10.152344 -7.972656 C 10.140625 -7.730469 10.097656 -7.511719 10.027344 -7.3125 C 9.953125 -7.113281 9.875 -6.941406 9.789062 -6.796875 C 9.746094 -6.722656 9.703125 -6.660156 9.660156 -6.601562 C 9.617188 -6.542969 9.578125 -6.492188 9.535156 -6.449219 C 9.453125 -6.359375 9.394531 -6.304688 9.351562 -6.285156 C 9.417969 -6.253906 9.515625 -6.191406 9.644531 -6.09375 C 9.78125 -5.984375 9.925781 -5.835938 10.078125 -5.644531 C 10.226562 -5.449219 10.359375 -5.21875 10.472656 -4.945312 Z M 4.070312 -9.222656 L 4.070312 -7.207031 L 6.503906 -7.207031 C 6.632812 -7.207031 6.753906 -7.234375 6.875 -7.289062 C 6.992188 -7.34375 7.097656 -7.417969 7.1875 -7.507812 C 7.273438 -7.597656 7.34375 -7.707031 7.394531 -7.828125 C 7.445312 -7.949219 7.472656 -8.078125 7.472656 -8.21875 C 7.472656 -8.367188 7.445312 -8.5 7.390625 -8.621094 C 7.335938 -8.742188 7.261719 -8.847656 7.171875 -8.941406 C 6.980469 -9.128906 6.753906 -9.222656 6.488281 -9.222656 Z M 7.472656 -2.820312 C 7.59375 -2.921875 7.691406 -3.050781 7.769531 -3.207031 C 7.84375 -3.363281 7.882812 -3.539062 7.882812 -3.742188 C 7.882812 -3.949219 7.847656 -4.128906 7.773438 -4.289062 C 7.699219 -4.445312 7.601562 -4.578125 7.480469 -4.6875 C 7.230469 -4.902344 6.9375 -5.007812 6.597656 -5.007812 L 4.070312 -5.007812 L 4.070312 -2.492188 L 6.597656 -2.492188 C 6.75 -2.492188 6.902344 -2.519531 7.058594 -2.574219 C 7.210938 -2.628906 7.351562 -2.710938 7.472656 -2.820312 Z M 7.472656 -2.820312 "/></g></g></g><g fill="#f8f7f6" fill-opacity="1"><g transform="translate(125.913992, 27.420382)"><g><path d="M 0.554688 -5.785156 C 0.554688 -6.597656 0.714844 -7.367188 1.027344 -8.085938 C 1.339844 -8.808594 1.765625 -9.4375 2.300781 -9.972656 C 2.839844 -10.511719 3.46875 -10.9375 4.183594 -11.246094 C 4.898438 -11.550781 5.664062 -11.703125 6.488281 -11.703125 C 7.027344 -11.703125 7.550781 -11.632812 8.050781 -11.492188 C 8.554688 -11.347656 9.027344 -11.148438 9.46875 -10.894531 C 9.90625 -10.636719 10.304688 -10.328125 10.664062 -9.96875 C 11.023438 -9.605469 11.335938 -9.207031 11.59375 -8.765625 C 11.851562 -8.328125 12.050781 -7.859375 12.191406 -7.351562 C 12.335938 -6.847656 12.40625 -6.324219 12.40625 -5.785156 C 12.40625 -5.242188 12.335938 -4.71875 12.191406 -4.214844 C 12.050781 -3.710938 11.851562 -3.238281 11.59375 -2.800781 C 11.335938 -2.363281 11.023438 -1.964844 10.664062 -1.601562 C 10.304688 -1.238281 9.90625 -0.929688 9.46875 -0.675781 C 9.027344 -0.414062 8.554688 -0.210938 8.050781 -0.0742188 C 7.550781 0.0664062 7.027344 0.136719 6.488281 0.136719 C 5.664062 0.136719 4.898438 -0.0195312 4.183594 -0.328125 C 3.46875 -0.636719 2.839844 -1.0625 2.300781 -1.597656 C 1.765625 -2.132812 1.339844 -2.757812 1.027344 -3.480469 C 0.714844 -4.203125 0.554688 -4.96875 0.554688 -5.785156 Z M 3.421875 -5.757812 C 3.421875 -5.34375 3.5 -4.949219 3.664062 -4.574219 C 3.824219 -4.203125 4.042969 -3.871094 4.324219 -3.585938 C 4.597656 -3.304688 4.921875 -3.082031 5.292969 -2.910156 C 5.664062 -2.738281 6.0625 -2.65625 6.488281 -2.65625 C 6.90625 -2.65625 7.300781 -2.738281 7.671875 -2.90625 C 8.042969 -3.074219 8.367188 -3.300781 8.648438 -3.585938 C 8.921875 -3.871094 9.140625 -4.203125 9.300781 -4.585938 C 9.460938 -4.964844 9.542969 -5.363281 9.542969 -5.785156 C 9.542969 -6.203125 9.460938 -6.601562 9.300781 -6.980469 C 9.140625 -7.355469 8.921875 -7.683594 8.648438 -7.964844 C 8.367188 -8.25 8.042969 -8.472656 7.671875 -8.636719 C 7.300781 -8.796875 6.90625 -8.875 6.488281 -8.875 C 6.0625 -8.875 5.664062 -8.792969 5.292969 -8.628906 C 4.921875 -8.464844 4.597656 -8.242188 4.324219 -7.957031 C 4.042969 -7.675781 3.824219 -7.34375 3.664062 -6.960938 C 3.5 -6.578125 3.421875 -6.175781 3.421875 -5.757812 Z M 3.421875 -5.757812 "/></g></g></g><g fill="#f8f7f6" fill-opacity="1"><g transform="translate(140.711575, 27.420382)"><g><path d="M 0.554688 -5.785156 C 0.554688 -6.597656 0.714844 -7.367188 1.027344 -8.085938 C 1.339844 -8.808594 1.765625 -9.4375 2.300781 -9.972656 C 2.839844 -10.511719 3.46875 -10.9375 4.183594 -11.246094 C 4.898438 -11.550781 5.664062 -11.703125 6.488281 -11.703125 C 7.027344 -11.703125 7.550781 -11.632812 8.050781 -11.492188 C 8.554688 -11.347656 9.027344 -11.148438 9.46875 -10.894531 C 9.90625 -10.636719 10.304688 -10.328125 10.664062 -9.96875 C 11.023438 -9.605469 11.335938 -9.207031 11.59375 -8.765625 C 11.851562 -8.328125 12.050781 -7.859375 12.191406 -7.351562 C 12.335938 -6.847656 12.40625 -6.324219 12.40625 -5.785156 C 12.40625 -5.242188 12.335938 -4.71875 12.191406 -4.214844 C 12.050781 -3.710938 11.851562 -3.238281 11.59375 -2.800781 C 11.335938 -2.363281 11.023438 -1.964844 10.664062 -1.601562 C 10.304688 -1.238281 9.90625 -0.929688 9.46875 -0.675781 C 9.027344 -0.414062 8.554688 -0.210938 8.050781 -0.0742188 C 7.550781 0.0664062 7.027344 0.136719 6.488281 0.136719 C 5.664062 0.136719 4.898438 -0.0195312 4.183594 -0.328125 C 3.46875 -0.636719 2.839844 -1.0625 2.300781 -1.597656 C 1.765625 -2.132812 1.339844 -2.757812 1.027344 -3.480469 C 0.714844 -4.203125 0.554688 -4.96875 0.554688 -5.785156 Z M 3.421875 -5.757812 C 3.421875 -5.34375 3.5 -4.949219 3.664062 -4.574219 C 3.824219 -4.203125 4.042969 -3.871094 4.324219 -3.585938 C 4.597656 -3.304688 4.921875 -3.082031 5.292969 -2.910156 C 5.664062 -2.738281 6.0625 -2.65625 6.488281 -2.65625 C 6.90625 -2.65625 7.300781 -2.738281 7.671875 -2.90625 C 8.042969 -3.074219 8.367188 -3.300781 8.648438 -3.585938 C 8.921875 -3.871094 9.140625 -4.203125 9.300781 -4.585938 C 9.460938 -4.964844 9.542969 -5.363281 9.542969 -5.785156 C 9.542969 -6.203125 9.460938 -6.601562 9.300781 -6.980469 C 9.140625 -7.355469 8.921875 -7.683594 8.648438 -7.964844 C 8.367188 -8.25 8.042969 -8.472656 7.671875 -8.636719 C 7.300781 -8.796875 6.90625 -8.875 6.488281 -8.875 C 6.0625 -8.875 5.664062 -8.792969 5.292969 -8.628906 C 4.921875 -8.464844 4.597656 -8.242188 4.324219 -7.957031 C 4.042969 -7.675781 3.824219 -7.34375 3.664062 -6.960938 C 3.5 -6.578125 3.421875 -6.175781 3.421875 -5.757812 Z M 3.421875 -5.757812 "/></g></g></g><g fill="#f8f7f6" fill-opacity="1"><g transform="translate(155.509158, 27.420382)"><g><path d="M 2.0625 -11.804688 C 2.316406 -11.804688 2.566406 -11.789062 2.816406 -11.753906 C 3.0625 -11.722656 3.277344 -11.648438 3.46875 -11.539062 C 3.660156 -11.429688 3.816406 -11.277344 3.933594 -11.074219 C 4.046875 -10.875 4.105469 -10.605469 4.105469 -10.273438 L 4.113281 -7.554688 L 8.347656 -11.3125 C 8.554688 -11.5 8.785156 -11.621094 9.035156 -11.667969 C 9.289062 -11.71875 9.535156 -11.699219 9.78125 -11.613281 C 9.957031 -11.566406 10.125 -11.484375 10.28125 -11.367188 C 10.355469 -11.304688 10.421875 -11.238281 10.488281 -11.164062 C 10.550781 -11.085938 10.597656 -11.003906 10.628906 -10.910156 C 10.6875 -10.753906 10.730469 -10.59375 10.746094 -10.4375 C 10.765625 -10.277344 10.757812 -10.121094 10.730469 -9.960938 C 10.691406 -9.808594 10.632812 -9.664062 10.550781 -9.523438 C 10.46875 -9.382812 10.359375 -9.261719 10.226562 -9.152344 L 7.417969 -6.90625 L 10.546875 -2.097656 C 10.714844 -1.84375 10.804688 -1.597656 10.804688 -1.363281 C 10.808594 -1.128906 10.75 -0.886719 10.628906 -0.636719 C 10.519531 -0.417969 10.355469 -0.234375 10.140625 -0.0820312 C 9.925781 0.0703125 9.660156 0.144531 9.351562 0.144531 C 9.101562 0.144531 8.871094 0.0859375 8.652344 -0.0351562 C 8.4375 -0.15625 8.25 -0.355469 8.09375 -0.628906 L 5.273438 -5.253906 L 4.085938 -4.277344 L 4.105469 -1.394531 C 4.105469 -1.183594 4.070312 -0.984375 4 -0.796875 C 3.929688 -0.613281 3.835938 -0.449219 3.714844 -0.308594 C 3.585938 -0.175781 3.433594 -0.0703125 3.257812 0.015625 C 3.082031 0.0976562 2.890625 0.136719 2.683594 0.136719 C 2.46875 0.136719 2.273438 0.0976562 2.097656 0.015625 C 1.921875 -0.0703125 1.773438 -0.175781 1.652344 -0.308594 C 1.382812 -0.597656 1.25 -0.957031 1.25 -1.394531 L 1.25 -10.273438 C 1.242188 -10.351562 1.234375 -10.433594 1.226562 -10.515625 C 1.21875 -10.597656 1.203125 -10.675781 1.1875 -10.757812 C 1.160156 -10.839844 1.144531 -10.921875 1.136719 -10.996094 C 1.125 -11.074219 1.121094 -11.144531 1.121094 -11.210938 C 1.121094 -11.296875 1.136719 -11.375 1.164062 -11.449219 C 1.191406 -11.523438 1.242188 -11.585938 1.3125 -11.640625 C 1.378906 -11.691406 1.476562 -11.730469 1.597656 -11.757812 C 1.71875 -11.789062 1.875 -11.804688 2.0625 -11.804688 Z M 2.0625 -11.804688 "/></g></g></g><g fill="#f8f7f6" fill-opacity="1"><g transform="translate(168.591608, 27.420382)"><g><path d="M 4.105469 -10.261719 L 4.105469 -1.3125 C 4.105469 -0.914062 3.972656 -0.570312 3.703125 -0.292969 C 3.578125 -0.15625 3.425781 -0.0546875 3.253906 0.0234375 C 3.078125 0.0976562 2.890625 0.136719 2.683594 0.136719 C 2.46875 0.136719 2.277344 0.0976562 2.101562 0.0195312 C 1.929688 -0.0625 1.777344 -0.167969 1.652344 -0.300781 C 1.382812 -0.582031 1.25 -0.917969 1.25 -1.3125 L 1.25 -10.179688 C 1.242188 -10.261719 1.234375 -10.339844 1.226562 -10.417969 C 1.21875 -10.496094 1.203125 -10.578125 1.1875 -10.65625 C 1.144531 -10.800781 1.121094 -10.953125 1.121094 -11.113281 C 1.121094 -11.203125 1.136719 -11.285156 1.164062 -11.359375 C 1.191406 -11.429688 1.242188 -11.496094 1.3125 -11.550781 C 1.453125 -11.652344 1.703125 -11.703125 2.0625 -11.703125 C 2.335938 -11.703125 2.59375 -11.683594 2.832031 -11.644531 C 3.074219 -11.605469 3.285156 -11.535156 3.46875 -11.429688 C 3.648438 -11.320312 3.796875 -11.175781 3.910156 -10.988281 C 4.023438 -10.804688 4.085938 -10.5625 4.105469 -10.261719 Z M 4.105469 -10.261719 "/></g></g></g><g fill="#f8f7f6" fill-opacity="1"><g transform="translate(175.652846, 27.420382)"><g><path d="M 11.605469 -10.273438 L 11.605469 -1.441406 C 11.605469 -1.003906 11.480469 -0.636719 11.230469 -0.335938 C 11.109375 -0.191406 10.960938 -0.0742188 10.785156 0.0078125 C 10.605469 0.09375 10.410156 0.136719 10.191406 0.136719 C 9.976562 0.136719 9.773438 0.0898438 9.578125 -0.0078125 C 9.382812 -0.105469 9.214844 -0.242188 9.070312 -0.410156 L 4.085938 -6.3125 C 4.085938 -6.117188 4.085938 -5.917969 4.085938 -5.714844 C 4.085938 -5.511719 4.085938 -5.304688 4.085938 -5.089844 L 4.085938 -3.804688 C 4.082031 -3.589844 4.078125 -3.378906 4.078125 -3.160156 C 4.078125 -2.945312 4.078125 -2.730469 4.078125 -2.519531 L 4.078125 -1.296875 C 4.078125 -1.089844 4.042969 -0.898438 3.972656 -0.726562 C 3.902344 -0.550781 3.808594 -0.402344 3.6875 -0.273438 C 3.558594 -0.144531 3.410156 -0.046875 3.238281 0.0273438 C 3.070312 0.101562 2.882812 0.136719 2.683594 0.136719 C 2.476562 0.136719 2.285156 0.101562 2.113281 0.0273438 C 1.9375 -0.046875 1.789062 -0.144531 1.660156 -0.273438 C 1.53125 -0.402344 1.433594 -0.550781 1.359375 -0.726562 C 1.285156 -0.898438 1.25 -1.085938 1.25 -1.285156 L 1.25 -10.179688 C 1.242188 -10.261719 1.234375 -10.339844 1.226562 -10.417969 C 1.21875 -10.496094 1.203125 -10.578125 1.1875 -10.65625 C 1.144531 -10.800781 1.121094 -10.957031 1.121094 -11.121094 C 1.121094 -11.207031 1.136719 -11.285156 1.164062 -11.359375 C 1.191406 -11.429688 1.242188 -11.496094 1.3125 -11.550781 C 1.453125 -11.652344 1.703125 -11.703125 2.0625 -11.703125 C 2.28125 -11.703125 2.472656 -11.699219 2.636719 -11.6875 C 2.800781 -11.675781 2.949219 -11.648438 3.082031 -11.605469 C 3.222656 -11.5625 3.351562 -11.5 3.472656 -11.417969 C 3.589844 -11.335938 3.71875 -11.222656 3.859375 -11.074219 L 8.765625 -5.246094 L 8.75 -10.125 C 8.75 -10.210938 8.746094 -10.296875 8.734375 -10.386719 C 8.726562 -10.476562 8.710938 -10.558594 8.683594 -10.636719 C 8.644531 -10.789062 8.621094 -10.949219 8.621094 -11.113281 C 8.621094 -11.222656 8.636719 -11.316406 8.664062 -11.394531 C 8.691406 -11.472656 8.746094 -11.535156 8.832031 -11.578125 C 8.996094 -11.664062 9.332031 -11.703125 9.84375 -11.703125 C 10.09375 -11.703125 10.324219 -11.6875 10.539062 -11.648438 C 10.75 -11.613281 10.9375 -11.542969 11.09375 -11.441406 C 11.25 -11.335938 11.375 -11.191406 11.46875 -11.003906 C 11.558594 -10.8125 11.605469 -10.570312 11.605469 -10.273438 Z M 11.605469 -10.273438 "/></g></g></g><g fill="#f8f7f6" fill-opacity="1"><g transform="translate(190.213236, 27.420382)"><g><path d="M 11.203125 -5.226562 C 11.300781 -5.128906 11.375 -4.996094 11.429688 -4.824219 C 11.484375 -4.65625 11.511719 -4.449219 11.511719 -4.207031 L 11.511719 -0.996094 C 11.511719 -0.679688 11.410156 -0.414062 11.203125 -0.207031 C 10.996094 0.00390625 10.71875 0.109375 10.371094 0.109375 C 10.015625 0.109375 9.742188 -0.00390625 9.5625 -0.226562 C 9.378906 -0.453125 9.289062 -0.75 9.289062 -1.113281 L 9.289062 -1.296875 C 9.207031 -1.199219 9.121094 -1.101562 9.027344 -1.003906 C 8.933594 -0.90625 8.835938 -0.816406 8.730469 -0.730469 C 8.4375 -0.480469 8.101562 -0.273438 7.722656 -0.109375 C 7.34375 0.0546875 6.917969 0.136719 6.449219 0.136719 C 5.902344 0.136719 5.378906 0.0664062 4.875 -0.0742188 C 4.375 -0.210938 3.90625 -0.414062 3.46875 -0.675781 C 3.027344 -0.929688 2.632812 -1.238281 2.277344 -1.601562 C 1.921875 -1.964844 1.613281 -2.363281 1.359375 -2.800781 C 1.105469 -3.238281 0.90625 -3.707031 0.765625 -4.210938 C 0.625 -4.710938 0.554688 -5.238281 0.554688 -5.785156 C 0.554688 -6.597656 0.714844 -7.367188 1.027344 -8.085938 C 1.339844 -8.808594 1.765625 -9.4375 2.300781 -9.972656 C 2.839844 -10.511719 3.46875 -10.9375 4.183594 -11.246094 C 4.898438 -11.550781 5.664062 -11.703125 6.488281 -11.703125 C 6.953125 -11.703125 7.386719 -11.664062 7.78125 -11.582031 C 8.175781 -11.5 8.546875 -11.375 8.894531 -11.210938 C 9.234375 -11.046875 9.558594 -10.84375 9.867188 -10.601562 C 10.175781 -10.359375 10.472656 -10.074219 10.765625 -9.753906 C 10.894531 -9.601562 10.992188 -9.441406 11.066406 -9.277344 C 11.140625 -9.113281 11.175781 -8.933594 11.175781 -8.738281 C 11.175781 -8.464844 11.105469 -8.222656 10.964844 -8.003906 C 10.824219 -7.789062 10.640625 -7.628906 10.410156 -7.515625 C 10.214844 -7.414062 10 -7.355469 9.765625 -7.34375 C 9.53125 -7.332031 9.308594 -7.386719 9.097656 -7.507812 C 8.980469 -7.585938 8.871094 -7.667969 8.765625 -7.746094 C 8.664062 -7.824219 8.570312 -7.902344 8.484375 -7.984375 C 8.300781 -8.140625 8.117188 -8.285156 7.929688 -8.421875 C 7.738281 -8.554688 7.53125 -8.664062 7.308594 -8.75 C 7.070312 -8.835938 6.796875 -8.875 6.488281 -8.875 C 6.0625 -8.875 5.664062 -8.792969 5.292969 -8.628906 C 4.921875 -8.464844 4.597656 -8.242188 4.324219 -7.957031 C 4.042969 -7.675781 3.824219 -7.34375 3.664062 -6.960938 C 3.5 -6.578125 3.421875 -6.175781 3.421875 -5.757812 C 3.421875 -5.300781 3.5 -4.882812 3.664062 -4.496094 C 3.824219 -4.113281 4.042969 -3.78125 4.324219 -3.503906 C 4.605469 -3.222656 4.933594 -3.007812 5.308594 -2.851562 C 5.6875 -2.695312 6.09375 -2.617188 6.53125 -2.617188 C 6.914062 -2.617188 7.296875 -2.742188 7.683594 -2.992188 C 7.816406 -3.078125 7.929688 -3.167969 8.027344 -3.265625 L 7.554688 -3.265625 C 7.378906 -3.265625 7.21875 -3.300781 7.078125 -3.367188 C 6.941406 -3.433594 6.816406 -3.523438 6.714844 -3.632812 C 6.496094 -3.851562 6.386719 -4.09375 6.386719 -4.359375 C 6.386719 -4.496094 6.414062 -4.628906 6.472656 -4.765625 C 6.53125 -4.902344 6.617188 -5.027344 6.734375 -5.136719 C 6.84375 -5.246094 6.976562 -5.335938 7.140625 -5.40625 C 7.300781 -5.476562 7.480469 -5.511719 7.683594 -5.511719 L 10.417969 -5.511719 C 10.578125 -5.511719 10.722656 -5.488281 10.855469 -5.445312 C 10.992188 -5.402344 11.105469 -5.332031 11.203125 -5.226562 Z M 11.203125 -5.226562 "/></g></g></g></svg>