<svg xmlns="http://www.w3.org/2000/svg" xmlns:xlink="http://www.w3.org/1999/xlink" width="300" zoomAndPan="magnify" viewBox="0 0 224.87999 44.999999" height="60" preserveAspectRatio="xMidYMid meet" version="1.0"><defs><g/><clipPath id="86ef0475a4"><path d="M 3 0.0117188 L 221.867188 0.0117188 L 221.867188 44.683594 L 3 44.683594 Z M 3 0.0117188 " clip-rule="nonzero"/></clipPath></defs><g clip-path="url(#86ef0475a4)"><path fill="#c69a9b" d="M 7.605469 8.273438 C 2.296875 13.546875 2.839844 27.53125 6.089844 34.585938 C 8.511719 39.835938 15 41.304688 19.992188 42.308594 C 37.707031 45.863281 55.929688 45.574219 73.882812 45.308594 C 101.222656 44.902344 128.550781 43.980469 155.890625 43.621094 C 168.699219 43.453125 181.507812 43.640625 194.316406 43.730469 C 199.675781 43.769531 205.328125 44.59375 210.546875 42.789062 C 219.53125 39.679688 221.464844 28.597656 222.207031 20.375 C 222.542969 16.632812 223.378906 11.46875 219.816406 8.742188 C 214.335938 4.542969 206.875 4.554688 200.40625 3.945312 C 179.910156 2 180.023438 1.875 159.339844 1.273438 C 143.207031 0.800781 118.183594 0.316406 102.042969 0.695312 C 91.367188 0.945312 80.703125 1.574219 70.035156 2.085938 C 59.382812 2.597656 49.828125 1.351562 39.171875 1.710938 C 28.421875 2.070312 13.117188 2.792969 7.605469 8.273438 Z M 7.605469 8.273438 " fill-opacity="1" fill-rule="evenodd"/></g><g fill="#ffffff" fill-opacity="1"><g transform="translate(69.835505, 25.873197)"><g><path d="M 6 -10.578125 C 6.96875 -10.578125 7.796875 -10.40625 8.484375 -10.0625 L 8.484375 -7.6875 L 8.46875 -7.671875 C 8.175781 -8.109375 7.5625 -8.398438 6.625 -8.546875 C 6.351562 -8.597656 6.003906 -8.625 5.578125 -8.625 C 5.160156 -8.625 4.75 -8.539062 4.34375 -8.375 C 3.9375 -8.21875 3.601562 -8 3.34375 -7.71875 C 2.832031 -7.144531 2.578125 -6.332031 2.578125 -5.28125 C 2.578125 -4.0625 2.898438 -3.148438 3.546875 -2.546875 C 4.078125 -2.046875 4.78125 -1.796875 5.65625 -1.796875 C 6.644531 -1.796875 7.441406 -2.007812 8.046875 -2.4375 C 8.273438 -2.582031 8.46875 -2.769531 8.625 -3 L 8.640625 -2.984375 L 8.640625 -0.796875 C 7.847656 -0.140625 6.78125 0.1875 5.4375 0.1875 C 3.84375 0.1875 2.597656 -0.3125 1.703125 -1.3125 C 0.835938 -2.28125 0.40625 -3.554688 0.40625 -5.140625 C 0.40625 -6.828125 0.878906 -8.148438 1.828125 -9.109375 C 2.785156 -10.085938 4.175781 -10.578125 6 -10.578125 Z M 6 -10.578125 "/></g></g></g><g fill="#ffffff" fill-opacity="1"><g transform="translate(79.109539, 25.873197)"><g><path d="M 2.859375 0 C 2.097656 0 1.59375 0.015625 1.34375 0.046875 L 1.34375 -10.421875 C 1.46875 -10.390625 1.722656 -10.375 2.109375 -10.375 C 2.503906 -10.375 2.960938 -10.382812 3.484375 -10.40625 L 3.484375 -1.875 L 5.109375 -1.875 C 5.578125 -1.875 5.953125 -1.890625 6.234375 -1.921875 C 6.191406 -0.703125 6.171875 -0.0664062 6.171875 -0.015625 L 6.171875 0.046875 C 5.660156 0.015625 4.804688 0 3.609375 0 Z M 2.859375 0 "/></g></g></g><g fill="#ffffff" fill-opacity="1"><g transform="translate(85.784039, 25.873197)"><g><path d="M 2.09375 0.0625 C 1.644531 0.0195312 1.125 0 0.53125 0 L -0.078125 0 L 3.3125 -9.515625 C 3.457031 -9.941406 3.53125 -10.1875 3.53125 -10.25 C 3.53125 -10.320312 3.53125 -10.367188 3.53125 -10.390625 L 3.53125 -10.40625 C 3.875 -10.382812 4.234375 -10.375 4.609375 -10.375 C 4.921875 -10.375 5.296875 -10.378906 5.734375 -10.390625 L 5.75 -10.375 C 5.738281 -10.351562 5.734375 -10.328125 5.734375 -10.296875 C 5.734375 -10.191406 5.8125 -9.925781 5.96875 -9.5 L 9.421875 0.015625 C 9.316406 0.015625 9.195312 0.015625 9.0625 0.015625 C 9.0625 0.015625 8.925781 0.0078125 8.65625 0 C 8.519531 0 8.398438 0 8.296875 0 L 7.09375 0 L 6.359375 -2.25 L 2.828125 -2.25 Z M 5.75 -4.125 L 4.578125 -7.75 L 3.421875 -4.125 Z M 5.75 -4.125 "/></g></g></g><g fill="#ffffff" fill-opacity="1"><g transform="translate(95.128337, 25.873197)"><g><path d="M 3.515625 0 C 3.585938 -0.195312 3.625 -0.671875 3.625 -1.421875 L 3.625 -3.59375 C 2.71875 -5.570312 2.140625 -6.804688 1.890625 -7.296875 C 1.640625 -7.785156 1.429688 -8.175781 1.265625 -8.46875 C 0.722656 -9.382812 0.394531 -9.910156 0.28125 -10.046875 C 0.164062 -10.179688 0.0546875 -10.289062 -0.046875 -10.375 L 2.640625 -10.375 C 2.691406 -10.269531 2.769531 -10.117188 2.875 -9.921875 L 4.765625 -5.9375 C 4.847656 -6.15625 4.953125 -6.398438 5.078125 -6.671875 C 6.210938 -9.109375 6.785156 -10.34375 6.796875 -10.375 L 9.375 -10.375 C 9.101562 -10.164062 8.773438 -9.71875 8.390625 -9.03125 C 8.273438 -8.832031 8.15625 -8.601562 8.03125 -8.34375 L 6.28125 -4.671875 C 6.082031 -4.222656 5.910156 -3.820312 5.765625 -3.46875 L 5.765625 -1.234375 C 5.765625 -0.710938 5.796875 -0.300781 5.859375 0 Z M 3.515625 0 "/></g></g></g><g fill="#ffffff" fill-opacity="1"><g transform="translate(104.44141, 25.873197)"><g/></g></g><g fill="#ffffff" fill-opacity="1"><g transform="translate(109.741979, 25.873197)"><g><path d="M 6 -10.578125 C 6.96875 -10.578125 7.796875 -10.40625 8.484375 -10.0625 L 8.484375 -7.6875 L 8.46875 -7.671875 C 8.175781 -8.109375 7.5625 -8.398438 6.625 -8.546875 C 6.351562 -8.597656 6.003906 -8.625 5.578125 -8.625 C 5.160156 -8.625 4.75 -8.539062 4.34375 -8.375 C 3.9375 -8.21875 3.601562 -8 3.34375 -7.71875 C 2.832031 -7.144531 2.578125 -6.332031 2.578125 -5.28125 C 2.578125 -4.0625 2.898438 -3.148438 3.546875 -2.546875 C 4.078125 -2.046875 4.78125 -1.796875 5.65625 -1.796875 C 6.644531 -1.796875 7.441406 -2.007812 8.046875 -2.4375 C 8.273438 -2.582031 8.46875 -2.769531 8.625 -3 L 8.640625 -2.984375 L 8.640625 -0.796875 C 7.847656 -0.140625 6.78125 0.1875 5.4375 0.1875 C 3.84375 0.1875 2.597656 -0.3125 1.703125 -1.3125 C 0.835938 -2.28125 0.40625 -3.554688 0.40625 -5.140625 C 0.40625 -6.828125 0.878906 -8.148438 1.828125 -9.109375 C 2.785156 -10.085938 4.175781 -10.578125 6 -10.578125 Z M 6 -10.578125 "/></g></g></g><g fill="#ffffff" fill-opacity="1"><g transform="translate(119.016013, 25.873197)"><g><path d="M 2.859375 0 C 2.097656 0 1.59375 0.015625 1.34375 0.046875 L 1.34375 -10.421875 C 1.46875 -10.390625 1.722656 -10.375 2.109375 -10.375 C 2.503906 -10.375 2.960938 -10.382812 3.484375 -10.40625 L 3.484375 -1.875 L 5.109375 -1.875 C 5.578125 -1.875 5.953125 -1.890625 6.234375 -1.921875 C 6.191406 -0.703125 6.171875 -0.0664062 6.171875 -0.015625 L 6.171875 0.046875 C 5.660156 0.015625 4.804688 0 3.609375 0 Z M 2.859375 0 "/></g></g></g><g fill="#ffffff" fill-opacity="1"><g transform="translate(125.690514, 25.873197)"><g><path d="M 7.265625 -10.421875 C 7.585938 -10.390625 7.851562 -10.375 8.0625 -10.375 L 8.703125 -10.375 C 8.921875 -10.375 9.148438 -10.394531 9.390625 -10.4375 L 9.390625 -3.984375 C 9.390625 -2.703125 9.003906 -1.675781 8.234375 -0.90625 C 7.503906 -0.175781 6.582031 0.1875 5.46875 0.1875 C 4.257812 0.1875 3.28125 -0.125 2.53125 -0.75 C 1.6875 -1.457031 1.265625 -2.476562 1.265625 -3.8125 L 1.265625 -10.421875 C 1.703125 -10.390625 2.109375 -10.375 2.484375 -10.375 C 2.867188 -10.375 3.1875 -10.394531 3.4375 -10.4375 L 3.4375 -3.703125 C 3.4375 -3.046875 3.640625 -2.535156 4.046875 -2.171875 C 4.421875 -1.835938 4.890625 -1.671875 5.453125 -1.671875 C 6.285156 -1.671875 6.835938 -2.097656 7.109375 -2.953125 C 7.210938 -3.265625 7.265625 -3.644531 7.265625 -4.09375 Z M 7.265625 -10.421875 "/></g></g></g><g fill="#ffffff" fill-opacity="1"><g transform="translate(136.369705, 25.873197)"><g><path d="M 7.890625 -0.75 C 7.515625 -0.445312 7.019531 -0.210938 6.40625 -0.046875 C 5.800781 0.109375 5.054688 0.1875 4.171875 0.1875 C 3.285156 0.1875 2.34375 0.109375 1.34375 -0.046875 L 1.34375 -10.328125 C 2.351562 -10.492188 3.226562 -10.578125 3.96875 -10.578125 C 4.707031 -10.578125 5.316406 -10.503906 5.796875 -10.359375 C 6.273438 -10.222656 6.664062 -10.035156 6.96875 -9.796875 C 7.5625 -9.328125 7.859375 -8.722656 7.859375 -7.984375 C 7.859375 -7.253906 7.585938 -6.648438 7.046875 -6.171875 C 7.679688 -5.972656 8.171875 -5.597656 8.515625 -5.046875 C 8.835938 -4.546875 9 -3.992188 9 -3.390625 C 9 -2.796875 8.910156 -2.285156 8.734375 -1.859375 C 8.554688 -1.429688 8.273438 -1.0625 7.890625 -0.75 Z M 3.40625 -6.453125 C 3.625 -6.421875 3.894531 -6.40625 4.21875 -6.40625 C 4.550781 -6.40625 4.820312 -6.445312 5.03125 -6.53125 C 5.25 -6.613281 5.414062 -6.722656 5.53125 -6.859375 C 5.71875 -7.066406 5.8125 -7.363281 5.8125 -7.75 C 5.8125 -8.539062 5.34375 -8.9375 4.40625 -8.9375 C 4.007812 -8.9375 3.675781 -8.921875 3.40625 -8.890625 Z M 4.5625 -4.78125 C 4.125 -4.78125 3.738281 -4.753906 3.40625 -4.703125 L 3.40625 -1.625 C 3.769531 -1.53125 4.148438 -1.484375 4.546875 -1.484375 C 4.953125 -1.484375 5.304688 -1.53125 5.609375 -1.625 C 5.921875 -1.726562 6.179688 -1.863281 6.390625 -2.03125 C 6.804688 -2.375 7.015625 -2.8125 7.015625 -3.34375 C 7.015625 -4.300781 6.195312 -4.78125 4.5625 -4.78125 Z M 4.5625 -4.78125 "/></g></g></g><g fill="#ffffff" fill-opacity="1"><g transform="translate(145.714003, 25.873197)"><g><path d="M 7.609375 -9.796875 L 7.46875 -7.515625 L 7.40625 -7.5 C 7.019531 -8.070312 6.363281 -8.441406 5.4375 -8.609375 C 5.144531 -8.671875 4.863281 -8.703125 4.59375 -8.703125 C 4.332031 -8.703125 4.101562 -8.675781 3.90625 -8.625 C 3.71875 -8.582031 3.554688 -8.515625 3.421875 -8.421875 C 3.140625 -8.234375 3 -7.992188 3 -7.703125 C 3 -7.304688 3.125 -7.007812 3.375 -6.8125 C 3.6875 -6.570312 4.203125 -6.398438 4.921875 -6.296875 C 5.648438 -6.203125 6.234375 -6.070312 6.671875 -5.90625 C 7.109375 -5.738281 7.46875 -5.53125 7.75 -5.28125 C 8.269531 -4.800781 8.53125 -4.125 8.53125 -3.25 C 8.53125 -2.101562 8.101562 -1.21875 7.25 -0.59375 C 6.507812 -0.0703125 5.578125 0.1875 4.453125 0.1875 C 3.546875 0.1875 2.648438 0.0195312 1.765625 -0.3125 C 1.472656 -0.425781 1.21875 -0.5625 1 -0.71875 L 1.078125 -3.328125 L 1.109375 -3.34375 C 1.753906 -2.226562 2.816406 -1.671875 4.296875 -1.671875 C 5.335938 -1.671875 6.03125 -1.925781 6.375 -2.4375 C 6.488281 -2.601562 6.546875 -2.789062 6.546875 -3 C 6.546875 -3.21875 6.507812 -3.394531 6.4375 -3.53125 C 6.375 -3.664062 6.265625 -3.785156 6.109375 -3.890625 C 5.804688 -4.085938 5.296875 -4.21875 4.578125 -4.28125 C 3.867188 -4.351562 3.285156 -4.484375 2.828125 -4.671875 C 2.378906 -4.859375 2.019531 -5.085938 1.75 -5.359375 C 1.257812 -5.859375 1.015625 -6.554688 1.015625 -7.453125 C 1.015625 -8.378906 1.335938 -9.128906 1.984375 -9.703125 C 2.648438 -10.285156 3.539062 -10.578125 4.65625 -10.578125 C 5.78125 -10.578125 6.765625 -10.316406 7.609375 -9.796875 Z M 7.609375 -9.796875 "/></g></g></g></svg>