<svg xmlns="http://www.w3.org/2000/svg" xmlns:xlink="http://www.w3.org/1999/xlink" width="300" zoomAndPan="magnify" viewBox="0 0 224.87999 44.999999" height="60" preserveAspectRatio="xMidYMid meet" version="1.0"><defs><g/><clipPath id="2dbfbc5e6d"><path d="M 5 0.0117188 L 219.765625 0.0117188 L 219.765625 43.9375 L 5 43.9375 Z M 5 0.0117188 " clip-rule="nonzero"/></clipPath></defs><g clip-path="url(#2dbfbc5e6d)"><path fill="#132339" d="M 9.039062 8.136719 C 3.824219 13.320312 4.355469 27.074219 7.550781 34.011719 C 9.929688 39.171875 16.3125 40.617188 21.222656 41.601562 C 38.640625 45.101562 56.5625 44.816406 74.21875 44.554688 C 101.101562 44.15625 127.976562 43.25 154.863281 42.894531 C 167.457031 42.730469 180.050781 42.914062 192.648438 43.003906 C 197.921875 43.039062 203.476562 43.851562 208.609375 42.074219 C 217.441406 39.019531 219.347656 28.121094 220.074219 20.035156 C 220.40625 16.355469 221.226562 11.277344 217.726562 8.59375 C 212.332031 4.46875 204.996094 4.480469 198.640625 3.878906 C 178.484375 1.964844 178.589844 1.84375 158.253906 1.25 C 142.390625 0.789062 117.78125 0.308594 101.90625 0.683594 C 91.410156 0.929688 80.921875 1.550781 70.433594 2.050781 C 59.957031 2.554688 50.5625 1.328125 40.082031 1.679688 C 29.511719 2.035156 14.460938 2.746094 9.039062 8.136719 Z M 9.039062 8.136719 " fill-opacity="1" fill-rule="evenodd"/></g><g fill="#f8f7f6" fill-opacity="1"><g transform="translate(8.585525, 25.873198)"><g><path d="M 8.195312 -5.855469 C 8.195312 -5.359375 8.09375 -4.90625 7.890625 -4.488281 C 7.6875 -4.070312 7.414062 -3.710938 7.070312 -3.40625 C 6.726562 -3.101562 6.332031 -2.863281 5.882812 -2.691406 C 5.433594 -2.519531 4.960938 -2.433594 4.460938 -2.433594 L 3.261719 -2.433594 L 3.261719 -1.027344 C 3.261719 -0.871094 3.230469 -0.722656 3.171875 -0.582031 C 3.117188 -0.445312 3.035156 -0.324219 2.933594 -0.222656 C 2.722656 -0.00390625 2.453125 0.109375 2.128906 0.109375 C 1.800781 0.109375 1.53125 -0.00390625 1.320312 -0.222656 C 1.21875 -0.324219 1.136719 -0.445312 1.078125 -0.582031 C 1.023438 -0.722656 0.992188 -0.871094 0.992188 -1.027344 L 0.992188 -8.164062 C 0.988281 -8.226562 0.980469 -8.292969 0.972656 -8.355469 C 0.96875 -8.421875 0.957031 -8.484375 0.941406 -8.550781 C 0.921875 -8.613281 0.910156 -8.671875 0.902344 -8.734375 C 0.894531 -8.792969 0.890625 -8.851562 0.890625 -8.902344 C 0.890625 -8.976562 0.902344 -9.042969 0.921875 -9.097656 C 0.945312 -9.15625 0.984375 -9.207031 1.042969 -9.25 C 1.15625 -9.332031 1.351562 -9.375 1.636719 -9.375 L 4.460938 -9.375 C 4.960938 -9.375 5.433594 -9.285156 5.882812 -9.101562 C 6.332031 -8.921875 6.726562 -8.675781 7.070312 -8.359375 C 7.414062 -8.042969 7.6875 -7.667969 7.890625 -7.242188 C 8.09375 -6.8125 8.195312 -6.351562 8.195312 -5.855469 Z M 5.96875 -5.789062 C 5.96875 -5.996094 5.933594 -6.195312 5.859375 -6.382812 C 5.78125 -6.570312 5.675781 -6.738281 5.535156 -6.882812 C 5.398438 -7.023438 5.238281 -7.136719 5.054688 -7.21875 C 4.867188 -7.304688 4.671875 -7.347656 4.460938 -7.347656 L 3.214844 -7.347656 L 3.214844 -4.382812 L 4.460938 -4.382812 C 4.671875 -4.382812 4.867188 -4.417969 5.054688 -4.488281 C 5.238281 -4.558594 5.398438 -4.652344 5.535156 -4.773438 C 5.675781 -4.898438 5.78125 -5.046875 5.859375 -5.21875 C 5.933594 -5.390625 5.96875 -5.582031 5.96875 -5.789062 Z M 5.96875 -5.789062 "/></g></g></g><g fill="#f8f7f6" fill-opacity="1"><g transform="translate(18.553891, 25.873198)"><g><path d="M 0.441406 -4.59375 C 0.441406 -5.242188 0.566406 -5.851562 0.816406 -6.421875 C 1.0625 -6.996094 1.402344 -7.492188 1.824219 -7.917969 C 2.253906 -8.347656 2.753906 -8.683594 3.320312 -8.929688 C 3.890625 -9.171875 4.5 -9.296875 5.152344 -9.296875 C 5.582031 -9.296875 5.996094 -9.238281 6.394531 -9.125 C 6.792969 -9.011719 7.167969 -8.851562 7.519531 -8.652344 C 7.867188 -8.449219 8.183594 -8.203125 8.46875 -7.914062 C 8.753906 -7.628906 9 -7.308594 9.207031 -6.960938 C 9.410156 -6.613281 9.570312 -6.242188 9.683594 -5.839844 C 9.796875 -5.4375 9.851562 -5.023438 9.851562 -4.59375 C 9.851562 -4.164062 9.796875 -3.746094 9.683594 -3.347656 C 9.570312 -2.945312 9.410156 -2.570312 9.207031 -2.222656 C 9 -1.875 8.753906 -1.558594 8.46875 -1.269531 C 8.183594 -0.984375 7.867188 -0.738281 7.519531 -0.535156 C 7.167969 -0.328125 6.792969 -0.167969 6.394531 -0.0585938 C 5.996094 0.0546875 5.582031 0.109375 5.152344 0.109375 C 4.5 0.109375 3.890625 -0.015625 3.320312 -0.261719 C 2.753906 -0.507812 2.253906 -0.84375 1.824219 -1.269531 C 1.402344 -1.691406 1.0625 -2.191406 0.816406 -2.765625 C 0.566406 -3.335938 0.441406 -3.945312 0.441406 -4.59375 Z M 2.71875 -4.570312 C 2.71875 -4.242188 2.78125 -3.929688 2.910156 -3.632812 C 3.035156 -3.335938 3.210938 -3.074219 3.433594 -2.847656 C 3.652344 -2.625 3.90625 -2.445312 4.203125 -2.3125 C 4.496094 -2.175781 4.8125 -2.109375 5.152344 -2.109375 C 5.484375 -2.109375 5.796875 -2.175781 6.09375 -2.308594 C 6.386719 -2.441406 6.644531 -2.621094 6.867188 -2.847656 C 7.085938 -3.074219 7.257812 -3.339844 7.386719 -3.640625 C 7.515625 -3.941406 7.578125 -4.261719 7.578125 -4.59375 C 7.578125 -4.925781 7.515625 -5.242188 7.386719 -5.542969 C 7.257812 -5.839844 7.085938 -6.101562 6.867188 -6.324219 C 6.644531 -6.550781 6.386719 -6.730469 6.09375 -6.855469 C 5.796875 -6.984375 5.484375 -7.050781 5.152344 -7.050781 C 4.8125 -7.050781 4.496094 -6.984375 4.203125 -6.855469 C 3.90625 -6.722656 3.652344 -6.542969 3.433594 -6.316406 C 3.210938 -6.09375 3.035156 -5.832031 2.910156 -5.527344 C 2.78125 -5.222656 2.71875 -4.90625 2.71875 -4.570312 Z M 2.71875 -4.570312 "/></g></g></g><g fill="#f8f7f6" fill-opacity="1"><g transform="translate(30.30433, 25.873198)"><g><path d="M 8.195312 -5.855469 C 8.195312 -5.359375 8.09375 -4.90625 7.890625 -4.488281 C 7.6875 -4.070312 7.414062 -3.710938 7.070312 -3.40625 C 6.726562 -3.101562 6.332031 -2.863281 5.882812 -2.691406 C 5.433594 -2.519531 4.960938 -2.433594 4.460938 -2.433594 L 3.261719 -2.433594 L 3.261719 -1.027344 C 3.261719 -0.871094 3.230469 -0.722656 3.171875 -0.582031 C 3.117188 -0.445312 3.035156 -0.324219 2.933594 -0.222656 C 2.722656 -0.00390625 2.453125 0.109375 2.128906 0.109375 C 1.800781 0.109375 1.53125 -0.00390625 1.320312 -0.222656 C 1.21875 -0.324219 1.136719 -0.445312 1.078125 -0.582031 C 1.023438 -0.722656 0.992188 -0.871094 0.992188 -1.027344 L 0.992188 -8.164062 C 0.988281 -8.226562 0.980469 -8.292969 0.972656 -8.355469 C 0.96875 -8.421875 0.957031 -8.484375 0.941406 -8.550781 C 0.921875 -8.613281 0.910156 -8.671875 0.902344 -8.734375 C 0.894531 -8.792969 0.890625 -8.851562 0.890625 -8.902344 C 0.890625 -8.976562 0.902344 -9.042969 0.921875 -9.097656 C 0.945312 -9.15625 0.984375 -9.207031 1.042969 -9.25 C 1.15625 -9.332031 1.351562 -9.375 1.636719 -9.375 L 4.460938 -9.375 C 4.960938 -9.375 5.433594 -9.285156 5.882812 -9.101562 C 6.332031 -8.921875 6.726562 -8.675781 7.070312 -8.359375 C 7.414062 -8.042969 7.6875 -7.667969 7.890625 -7.242188 C 8.09375 -6.8125 8.195312 -6.351562 8.195312 -5.855469 Z M 5.96875 -5.789062 C 5.96875 -5.996094 5.933594 -6.195312 5.859375 -6.382812 C 5.78125 -6.570312 5.675781 -6.738281 5.535156 -6.882812 C 5.398438 -7.023438 5.238281 -7.136719 5.054688 -7.21875 C 4.867188 -7.304688 4.671875 -7.347656 4.460938 -7.347656 L 3.214844 -7.347656 L 3.214844 -4.382812 L 4.460938 -4.382812 C 4.671875 -4.382812 4.867188 -4.417969 5.054688 -4.488281 C 5.238281 -4.558594 5.398438 -4.652344 5.535156 -4.773438 C 5.675781 -4.898438 5.78125 -5.046875 5.859375 -5.21875 C 5.933594 -5.390625 5.96875 -5.582031 5.96875 -5.789062 Z M 5.96875 -5.789062 "/></g></g></g><g fill="#f8f7f6" fill-opacity="1"><g transform="translate(40.272696, 25.873198)"><g><path d="M 1.484375 -3.96875 L 5.296875 -3.96875 C 5.507812 -3.96875 5.6875 -3.898438 5.832031 -3.753906 C 5.976562 -3.609375 6.050781 -3.425781 6.050781 -3.210938 C 6.050781 -2.996094 5.976562 -2.816406 5.832031 -2.671875 C 5.691406 -2.523438 5.511719 -2.449219 5.296875 -2.449219 L 1.484375 -2.449219 C 1.273438 -2.449219 1.097656 -2.523438 0.964844 -2.671875 C 0.902344 -2.742188 0.847656 -2.820312 0.808594 -2.914062 C 0.765625 -3.003906 0.746094 -3.101562 0.746094 -3.210938 C 0.746094 -3.316406 0.765625 -3.414062 0.808594 -3.507812 C 0.847656 -3.597656 0.902344 -3.679688 0.964844 -3.753906 C 1.097656 -3.898438 1.273438 -3.96875 1.484375 -3.96875 Z M 1.484375 -3.96875 "/></g></g></g><g fill="#f8f7f6" fill-opacity="1"><g transform="translate(48.451749, 25.873198)"><g><path d="M 0.457031 -3.703125 L 0.464844 -8.085938 C 0.457031 -8.148438 0.453125 -8.210938 0.441406 -8.273438 C 0.433594 -8.335938 0.421875 -8.398438 0.40625 -8.460938 C 0.371094 -8.578125 0.355469 -8.699219 0.355469 -8.824219 C 0.355469 -8.898438 0.367188 -8.960938 0.386719 -9.019531 C 0.410156 -9.078125 0.449219 -9.128906 0.507812 -9.171875 C 0.617188 -9.253906 0.816406 -9.296875 1.101562 -9.296875 C 1.3125 -9.296875 1.515625 -9.28125 1.710938 -9.25 C 1.902344 -9.222656 2.070312 -9.164062 2.21875 -9.078125 C 2.363281 -8.992188 2.480469 -8.867188 2.570312 -8.710938 C 2.664062 -8.554688 2.714844 -8.347656 2.722656 -8.09375 L 2.722656 -3.6875 C 2.722656 -3.457031 2.769531 -3.234375 2.859375 -3.027344 C 2.949219 -2.820312 3.074219 -2.640625 3.238281 -2.484375 C 3.402344 -2.324219 3.601562 -2.203125 3.835938 -2.113281 C 4.070312 -2.023438 4.332031 -1.976562 4.621094 -1.976562 C 4.882812 -1.976562 5.128906 -2.023438 5.359375 -2.113281 C 5.59375 -2.203125 5.796875 -2.324219 5.96875 -2.484375 C 6.140625 -2.640625 6.273438 -2.820312 6.375 -3.027344 C 6.476562 -3.234375 6.527344 -3.457031 6.527344 -3.6875 L 6.511719 -8.085938 C 6.507812 -8.148438 6.503906 -8.210938 6.496094 -8.273438 C 6.488281 -8.335938 6.476562 -8.398438 6.460938 -8.460938 C 6.433594 -8.585938 6.417969 -8.707031 6.417969 -8.824219 C 6.417969 -8.898438 6.429688 -8.960938 6.453125 -9.019531 C 6.472656 -9.078125 6.511719 -9.128906 6.570312 -9.171875 C 6.625 -9.210938 6.699219 -9.242188 6.792969 -9.261719 C 6.886719 -9.285156 7.007812 -9.296875 7.15625 -9.296875 C 7.355469 -9.296875 7.554688 -9.28125 7.75 -9.25 C 7.945312 -9.222656 8.117188 -9.167969 8.273438 -9.085938 C 8.429688 -9 8.550781 -8.875 8.648438 -8.71875 C 8.742188 -8.5625 8.789062 -8.351562 8.789062 -8.09375 L 8.796875 -3.703125 C 8.789062 -3.339844 8.734375 -2.992188 8.632812 -2.65625 C 8.527344 -2.320312 8.382812 -2.003906 8.203125 -1.703125 C 7.824219 -1.09375 7.328125 -0.613281 6.707031 -0.261719 C 6.398438 -0.0859375 6.070312 0.046875 5.714844 0.144531 C 5.363281 0.242188 5 0.289062 4.621094 0.289062 C 4.042969 0.289062 3.5 0.1875 2.996094 -0.0234375 C 2.492188 -0.230469 2.050781 -0.515625 1.671875 -0.875 C 1.296875 -1.234375 1 -1.65625 0.78125 -2.140625 C 0.566406 -2.625 0.457031 -3.148438 0.457031 -3.703125 Z M 0.457031 -3.703125 "/></g></g></g><g fill="#f8f7f6" fill-opacity="1"><g transform="translate(59.14454, 25.873198)"><g><path d="M 8.195312 -5.855469 C 8.195312 -5.359375 8.09375 -4.90625 7.890625 -4.488281 C 7.6875 -4.070312 7.414062 -3.710938 7.070312 -3.40625 C 6.726562 -3.101562 6.332031 -2.863281 5.882812 -2.691406 C 5.433594 -2.519531 4.960938 -2.433594 4.460938 -2.433594 L 3.261719 -2.433594 L 3.261719 -1.027344 C 3.261719 -0.871094 3.230469 -0.722656 3.171875 -0.582031 C 3.117188 -0.445312 3.035156 -0.324219 2.933594 -0.222656 C 2.722656 -0.00390625 2.453125 0.109375 2.128906 0.109375 C 1.800781 0.109375 1.53125 -0.00390625 1.320312 -0.222656 C 1.21875 -0.324219 1.136719 -0.445312 1.078125 -0.582031 C 1.023438 -0.722656 0.992188 -0.871094 0.992188 -1.027344 L 0.992188 -8.164062 C 0.988281 -8.226562 0.980469 -8.292969 0.972656 -8.355469 C 0.96875 -8.421875 0.957031 -8.484375 0.941406 -8.550781 C 0.921875 -8.613281 0.910156 -8.671875 0.902344 -8.734375 C 0.894531 -8.792969 0.890625 -8.851562 0.890625 -8.902344 C 0.890625 -8.976562 0.902344 -9.042969 0.921875 -9.097656 C 0.945312 -9.15625 0.984375 -9.207031 1.042969 -9.25 C 1.15625 -9.332031 1.351562 -9.375 1.636719 -9.375 L 4.460938 -9.375 C 4.960938 -9.375 5.433594 -9.285156 5.882812 -9.101562 C 6.332031 -8.921875 6.726562 -8.675781 7.070312 -8.359375 C 7.414062 -8.042969 7.6875 -7.667969 7.890625 -7.242188 C 8.09375 -6.8125 8.195312 -6.351562 8.195312 -5.855469 Z M 5.96875 -5.789062 C 5.96875 -5.996094 5.933594 -6.195312 5.859375 -6.382812 C 5.78125 -6.570312 5.675781 -6.738281 5.535156 -6.882812 C 5.398438 -7.023438 5.238281 -7.136719 5.054688 -7.21875 C 4.867188 -7.304688 4.671875 -7.347656 4.460938 -7.347656 L 3.214844 -7.347656 L 3.214844 -4.382812 L 4.460938 -4.382812 C 4.671875 -4.382812 4.867188 -4.417969 5.054688 -4.488281 C 5.238281 -4.558594 5.398438 -4.652344 5.535156 -4.773438 C 5.675781 -4.898438 5.78125 -5.046875 5.859375 -5.21875 C 5.933594 -5.390625 5.96875 -5.582031 5.96875 -5.789062 Z M 5.96875 -5.789062 "/></g></g></g><g fill="#f8f7f6" fill-opacity="1"><g transform="translate(69.112906, 25.873198)"><g/></g></g><g fill="#f8f7f6" fill-opacity="1"><g transform="translate(73.916175, 25.873198)"><g><path d="M 7.96875 -1.027344 C 7.96875 -0.863281 7.9375 -0.714844 7.878906 -0.574219 C 7.820312 -0.4375 7.734375 -0.320312 7.628906 -0.21875 C 7.523438 -0.117188 7.398438 -0.0351562 7.253906 0.0234375 C 7.113281 0.078125 6.960938 0.109375 6.804688 0.109375 L 2.1875 0.109375 C 2.015625 0.109375 1.851562 0.078125 1.707031 0.0195312 C 1.558594 -0.0429688 1.433594 -0.125 1.332031 -0.230469 C 1.109375 -0.453125 1 -0.742188 1 -1.09375 L 1 -8.0625 C 0.996094 -8.125 0.988281 -8.191406 0.976562 -8.253906 C 0.96875 -8.320312 0.957031 -8.382812 0.941406 -8.449219 C 0.90625 -8.566406 0.890625 -8.695312 0.890625 -8.824219 C 0.890625 -8.898438 0.902344 -8.960938 0.921875 -9.019531 C 0.9375 -9.078125 0.976562 -9.128906 1.035156 -9.171875 C 1.089844 -9.210938 1.160156 -9.242188 1.253906 -9.265625 C 1.34375 -9.289062 1.464844 -9.300781 1.609375 -9.300781 L 6.808594 -9.300781 C 7.054688 -9.300781 7.261719 -9.25 7.425781 -9.144531 C 7.589844 -9.035156 7.714844 -8.902344 7.804688 -8.746094 C 7.886719 -8.582031 7.925781 -8.40625 7.929688 -8.21875 C 7.933594 -8.035156 7.890625 -7.859375 7.808594 -7.703125 C 7.726562 -7.535156 7.605469 -7.402344 7.441406 -7.296875 C 7.277344 -7.1875 7.070312 -7.136719 6.816406 -7.136719 L 3.261719 -7.136719 L 3.261719 -5.636719 L 5.90625 -5.636719 C 6.078125 -5.636719 6.242188 -5.59375 6.390625 -5.507812 C 6.539062 -5.425781 6.664062 -5.316406 6.765625 -5.1875 C 6.863281 -5.050781 6.925781 -4.898438 6.953125 -4.726562 C 6.976562 -4.554688 6.957031 -4.382812 6.882812 -4.210938 C 6.800781 -4 6.671875 -3.839844 6.503906 -3.722656 C 6.332031 -3.609375 6.132812 -3.550781 5.90625 -3.550781 L 3.261719 -3.550781 L 3.261719 -2.167969 L 6.796875 -2.167969 C 7.128906 -2.167969 7.40625 -2.0625 7.628906 -1.855469 C 7.734375 -1.753906 7.820312 -1.632812 7.878906 -1.492188 C 7.9375 -1.351562 7.96875 -1.199219 7.96875 -1.027344 Z M 7.96875 -1.027344 "/></g></g></g><g fill="#f8f7f6" fill-opacity="1"><g transform="translate(83.717924, 25.873198)"><g><path d="M 7.847656 -8.984375 C 8.058594 -8.769531 8.167969 -8.511719 8.179688 -8.203125 C 8.179688 -8.054688 8.152344 -7.90625 8.09375 -7.753906 L 5.265625 -0.59375 C 5.203125 -0.445312 5.121094 -0.316406 5.011719 -0.210938 C 4.90625 -0.105469 4.789062 -0.0234375 4.660156 0.0273438 C 4.511719 0.0898438 4.363281 0.121094 4.203125 0.117188 C 4.039062 0.125 3.886719 0.0976562 3.746094 0.0273438 C 3.613281 -0.0234375 3.496094 -0.105469 3.390625 -0.210938 C 3.285156 -0.316406 3.199219 -0.445312 3.136719 -0.59375 L 0.3125 -7.753906 C 0.195312 -8.050781 0.199219 -8.34375 0.320312 -8.628906 C 0.371094 -8.757812 0.453125 -8.878906 0.558594 -8.984375 C 0.664062 -9.089844 0.789062 -9.171875 0.933594 -9.230469 C 1.089844 -9.289062 1.238281 -9.316406 1.382812 -9.316406 C 1.6875 -9.316406 1.949219 -9.207031 2.167969 -8.992188 C 2.269531 -8.890625 2.351562 -8.765625 2.417969 -8.613281 L 4.203125 -3.714844 L 5.984375 -8.613281 C 6.03125 -8.765625 6.109375 -8.890625 6.214844 -8.996094 C 6.324219 -9.097656 6.441406 -9.179688 6.578125 -9.238281 C 6.722656 -9.289062 6.867188 -9.316406 7.011719 -9.316406 C 7.167969 -9.316406 7.320312 -9.289062 7.464844 -9.230469 C 7.613281 -9.171875 7.738281 -9.089844 7.847656 -8.984375 Z M 7.847656 -8.984375 "/></g></g></g><g fill="#f8f7f6" fill-opacity="1"><g transform="translate(93.570389, 25.873198)"><g><path d="M 7.96875 -1.027344 C 7.96875 -0.863281 7.9375 -0.714844 7.878906 -0.574219 C 7.820312 -0.4375 7.734375 -0.320312 7.628906 -0.21875 C 7.523438 -0.117188 7.398438 -0.0351562 7.253906 0.0234375 C 7.113281 0.078125 6.960938 0.109375 6.804688 0.109375 L 2.1875 0.109375 C 2.015625 0.109375 1.851562 0.078125 1.707031 0.0195312 C 1.558594 -0.0429688 1.433594 -0.125 1.332031 -0.230469 C 1.109375 -0.453125 1 -0.742188 1 -1.09375 L 1 -8.0625 C 0.996094 -8.125 0.988281 -8.191406 0.976562 -8.253906 C 0.96875 -8.320312 0.957031 -8.382812 0.941406 -8.449219 C 0.90625 -8.566406 0.890625 -8.695312 0.890625 -8.824219 C 0.890625 -8.898438 0.902344 -8.960938 0.921875 -9.019531 C 0.9375 -9.078125 0.976562 -9.128906 1.035156 -9.171875 C 1.089844 -9.210938 1.160156 -9.242188 1.253906 -9.265625 C 1.34375 -9.289062 1.464844 -9.300781 1.609375 -9.300781 L 6.808594 -9.300781 C 7.054688 -9.300781 7.261719 -9.25 7.425781 -9.144531 C 7.589844 -9.035156 7.714844 -8.902344 7.804688 -8.746094 C 7.886719 -8.582031 7.925781 -8.40625 7.929688 -8.21875 C 7.933594 -8.035156 7.890625 -7.859375 7.808594 -7.703125 C 7.726562 -7.535156 7.605469 -7.402344 7.441406 -7.296875 C 7.277344 -7.1875 7.070312 -7.136719 6.816406 -7.136719 L 3.261719 -7.136719 L 3.261719 -5.636719 L 5.90625 -5.636719 C 6.078125 -5.636719 6.242188 -5.59375 6.390625 -5.507812 C 6.539062 -5.425781 6.664062 -5.316406 6.765625 -5.1875 C 6.863281 -5.050781 6.925781 -4.898438 6.953125 -4.726562 C 6.976562 -4.554688 6.957031 -4.382812 6.882812 -4.210938 C 6.800781 -4 6.671875 -3.839844 6.503906 -3.722656 C 6.332031 -3.609375 6.132812 -3.550781 5.90625 -3.550781 L 3.261719 -3.550781 L 3.261719 -2.167969 L 6.796875 -2.167969 C 7.128906 -2.167969 7.40625 -2.0625 7.628906 -1.855469 C 7.734375 -1.753906 7.820312 -1.632812 7.878906 -1.492188 C 7.9375 -1.351562 7.96875 -1.199219 7.96875 -1.027344 Z M 7.96875 -1.027344 "/></g></g></g><g fill="#f8f7f6" fill-opacity="1"><g transform="translate(103.372137, 25.873198)"><g><path d="M 9.214844 -8.15625 L 9.214844 -1.144531 C 9.214844 -0.796875 9.117188 -0.503906 8.917969 -0.269531 C 8.820312 -0.152344 8.703125 -0.0585938 8.5625 0.0078125 C 8.421875 0.0742188 8.265625 0.109375 8.09375 0.109375 C 7.921875 0.109375 7.761719 0.0703125 7.605469 -0.0078125 C 7.453125 -0.0859375 7.316406 -0.191406 7.203125 -0.324219 L 3.246094 -5.011719 C 3.246094 -4.859375 3.246094 -4.699219 3.246094 -4.539062 C 3.246094 -4.378906 3.246094 -4.210938 3.246094 -4.042969 L 3.246094 -3.019531 C 3.242188 -2.851562 3.238281 -2.683594 3.238281 -2.511719 C 3.238281 -2.339844 3.238281 -2.167969 3.238281 -2 L 3.238281 -1.027344 C 3.238281 -0.863281 3.210938 -0.714844 3.15625 -0.574219 C 3.097656 -0.4375 3.023438 -0.320312 2.925781 -0.21875 C 2.824219 -0.117188 2.707031 -0.0351562 2.570312 0.0234375 C 2.4375 0.078125 2.289062 0.109375 2.128906 0.109375 C 1.964844 0.109375 1.816406 0.078125 1.675781 0.0234375 C 1.539062 -0.0351562 1.421875 -0.117188 1.320312 -0.21875 C 1.21875 -0.320312 1.136719 -0.4375 1.078125 -0.574219 C 1.023438 -0.714844 0.992188 -0.863281 0.992188 -1.023438 L 0.992188 -8.085938 C 0.988281 -8.148438 0.980469 -8.210938 0.972656 -8.273438 C 0.96875 -8.335938 0.957031 -8.398438 0.941406 -8.460938 C 0.90625 -8.578125 0.890625 -8.699219 0.890625 -8.832031 C 0.890625 -8.898438 0.902344 -8.960938 0.921875 -9.019531 C 0.945312 -9.078125 0.984375 -9.128906 1.042969 -9.171875 C 1.15625 -9.253906 1.351562 -9.296875 1.636719 -9.296875 C 1.8125 -9.296875 1.964844 -9.289062 2.09375 -9.28125 C 2.222656 -9.269531 2.34375 -9.25 2.449219 -9.214844 C 2.558594 -9.183594 2.664062 -9.132812 2.757812 -9.066406 C 2.851562 -9 2.953125 -8.910156 3.066406 -8.796875 L 6.960938 -4.164062 L 6.949219 -8.042969 C 6.949219 -8.109375 6.945312 -8.179688 6.9375 -8.25 C 6.929688 -8.316406 6.917969 -8.382812 6.898438 -8.449219 C 6.863281 -8.566406 6.847656 -8.695312 6.847656 -8.824219 C 6.847656 -8.910156 6.855469 -8.984375 6.878906 -9.050781 C 6.902344 -9.113281 6.945312 -9.160156 7.011719 -9.195312 C 7.144531 -9.261719 7.410156 -9.296875 7.816406 -9.296875 C 8.015625 -9.296875 8.199219 -9.28125 8.367188 -9.25 C 8.535156 -9.222656 8.683594 -9.167969 8.808594 -9.085938 C 8.933594 -9.003906 9.035156 -8.886719 9.105469 -8.738281 C 9.179688 -8.585938 9.214844 -8.394531 9.214844 -8.15625 Z M 9.214844 -8.15625 "/></g></g></g><g fill="#f8f7f6" fill-opacity="1"><g transform="translate(114.934227, 25.873198)"><g><path d="M 8.296875 -8.164062 C 8.296875 -8.003906 8.265625 -7.855469 8.203125 -7.71875 C 8.144531 -7.582031 8.0625 -7.460938 7.960938 -7.359375 C 7.738281 -7.136719 7.46875 -7.027344 7.144531 -7.027344 L 5.410156 -7.027344 L 5.382812 -1.027344 C 5.382812 -0.871094 5.355469 -0.722656 5.300781 -0.582031 C 5.242188 -0.445312 5.167969 -0.324219 5.070312 -0.222656 C 4.96875 -0.117188 4.851562 -0.0351562 4.714844 0.0234375 C 4.582031 0.078125 4.433594 0.109375 4.273438 0.109375 C 4.109375 0.109375 3.960938 0.078125 3.820312 0.0195312 C 3.683594 -0.0429688 3.566406 -0.125 3.46875 -0.222656 C 3.375 -0.324219 3.296875 -0.445312 3.242188 -0.582031 C 3.1875 -0.722656 3.160156 -0.871094 3.160156 -1.027344 L 3.136719 -7.027344 L 1.371094 -7.027344 C 1.210938 -7.027344 1.058594 -7.054688 0.921875 -7.113281 C 0.78125 -7.171875 0.660156 -7.253906 0.558594 -7.355469 C 0.457031 -7.453125 0.375 -7.574219 0.316406 -7.710938 C 0.253906 -7.851562 0.222656 -8 0.222656 -8.164062 C 0.222656 -8.488281 0.335938 -8.757812 0.558594 -8.96875 C 0.660156 -9.070312 0.78125 -9.152344 0.921875 -9.210938 C 1.058594 -9.273438 1.210938 -9.300781 1.371094 -9.300781 L 7.136719 -9.300781 C 7.296875 -9.300781 7.445312 -9.273438 7.585938 -9.214844 C 7.726562 -9.15625 7.847656 -9.078125 7.953125 -8.976562 C 8.0625 -8.875 8.144531 -8.753906 8.203125 -8.613281 C 8.265625 -8.472656 8.296875 -8.324219 8.296875 -8.164062 Z M 8.296875 -8.164062 "/></g></g></g><g fill="#f8f7f6" fill-opacity="1"><g transform="translate(124.902593, 25.873198)"><g><path d="M 5.707031 -6.347656 C 5.625 -6.347656 5.546875 -6.351562 5.46875 -6.355469 C 5.394531 -6.363281 5.316406 -6.382812 5.238281 -6.410156 C 5.082031 -6.464844 4.910156 -6.574219 4.714844 -6.738281 C 4.519531 -6.925781 4.335938 -7.074219 4.164062 -7.1875 C 3.996094 -7.296875 3.816406 -7.355469 3.621094 -7.355469 C 3.519531 -7.355469 3.417969 -7.339844 3.3125 -7.316406 C 3.203125 -7.292969 3.109375 -7.253906 3.019531 -7.203125 C 2.933594 -7.152344 2.863281 -7.089844 2.808594 -7.007812 C 2.75 -6.929688 2.722656 -6.839844 2.722656 -6.746094 C 2.722656 -6.605469 2.785156 -6.476562 2.914062 -6.359375 C 3.039062 -6.246094 3.203125 -6.132812 3.40625 -6.019531 C 3.507812 -5.960938 3.613281 -5.90625 3.730469 -5.847656 C 3.847656 -5.789062 3.972656 -5.730469 4.109375 -5.671875 C 4.367188 -5.550781 4.632812 -5.421875 4.90625 -5.285156 C 5.175781 -5.148438 5.441406 -4.996094 5.707031 -4.832031 C 5.96875 -4.667969 6.203125 -4.480469 6.40625 -4.269531 C 6.605469 -4.0625 6.773438 -3.828125 6.898438 -3.570312 C 7.023438 -3.304688 7.085938 -3.011719 7.085938 -2.6875 C 7.085938 -2.214844 6.976562 -1.804688 6.757812 -1.453125 C 6.542969 -1.101562 6.265625 -0.8125 5.925781 -0.578125 C 5.589844 -0.34375 5.214844 -0.167969 4.8125 -0.0507812 C 4.40625 0.0664062 4.011719 0.125 3.628906 0.125 C 3.070312 0.125 2.585938 0.0585938 2.179688 -0.0742188 C 1.773438 -0.207031 1.4375 -0.378906 1.167969 -0.585938 C 0.902344 -0.789062 0.695312 -1.015625 0.554688 -1.265625 C 0.410156 -1.511719 0.328125 -1.753906 0.304688 -1.984375 C 0.300781 -2.128906 0.316406 -2.269531 0.359375 -2.402344 C 0.398438 -2.535156 0.464844 -2.648438 0.550781 -2.746094 C 0.632812 -2.84375 0.734375 -2.917969 0.859375 -2.976562 C 0.980469 -3.035156 1.121094 -3.066406 1.28125 -3.066406 C 1.445312 -3.066406 1.609375 -3.023438 1.773438 -2.941406 C 1.9375 -2.859375 2.113281 -2.742188 2.296875 -2.585938 C 2.363281 -2.503906 2.449219 -2.429688 2.554688 -2.363281 C 2.65625 -2.292969 2.769531 -2.234375 2.890625 -2.179688 C 3.136719 -2.070312 3.382812 -2.015625 3.628906 -2.015625 C 3.75 -2.015625 3.871094 -2.027344 3.996094 -2.058594 C 4.117188 -2.085938 4.230469 -2.128906 4.324219 -2.1875 C 4.421875 -2.242188 4.5 -2.308594 4.5625 -2.394531 C 4.628906 -2.480469 4.660156 -2.578125 4.660156 -2.695312 C 4.660156 -2.816406 4.597656 -2.925781 4.480469 -3.027344 C 4.363281 -3.128906 4.210938 -3.230469 4.019531 -3.332031 C 3.925781 -3.382812 3.820312 -3.429688 3.714844 -3.480469 C 3.605469 -3.53125 3.488281 -3.582031 3.363281 -3.636719 C 3.117188 -3.742188 2.863281 -3.859375 2.605469 -3.988281 C 2.347656 -4.117188 2.09375 -4.261719 1.847656 -4.417969 C 1.601562 -4.578125 1.382812 -4.761719 1.191406 -4.972656 C 1 -5.183594 0.847656 -5.421875 0.730469 -5.6875 C 0.609375 -5.949219 0.550781 -6.253906 0.550781 -6.601562 C 0.550781 -7 0.628906 -7.367188 0.78125 -7.699219 C 0.9375 -8.027344 1.15625 -8.3125 1.433594 -8.550781 C 1.71875 -8.785156 2.0625 -8.96875 2.460938 -9.097656 C 2.859375 -9.230469 3.304688 -9.296875 3.804688 -9.296875 C 4.007812 -9.296875 4.222656 -9.269531 4.449219 -9.222656 C 4.675781 -9.175781 4.898438 -9.109375 5.121094 -9.027344 C 5.34375 -8.941406 5.558594 -8.835938 5.757812 -8.710938 C 5.960938 -8.589844 6.140625 -8.453125 6.296875 -8.300781 C 6.449219 -8.152344 6.574219 -7.992188 6.664062 -7.816406 C 6.757812 -7.644531 6.804688 -7.460938 6.804688 -7.273438 C 6.804688 -7.101562 6.773438 -6.953125 6.71875 -6.835938 C 6.664062 -6.71875 6.589844 -6.621094 6.492188 -6.550781 C 6.394531 -6.476562 6.28125 -6.425781 6.148438 -6.394531 C 6.015625 -6.363281 5.867188 -6.347656 5.707031 -6.347656 Z M 5.707031 -6.347656 "/></g></g></g><g fill="#f8f7f6" fill-opacity="1"><g transform="translate(133.835043, 25.873198)"><g/></g></g><g fill="#f8f7f6" fill-opacity="1"><g transform="translate(138.638312, 25.873198)"><g><path d="M 9.214844 -8.15625 L 9.214844 -1.144531 C 9.214844 -0.796875 9.117188 -0.503906 8.917969 -0.269531 C 8.820312 -0.152344 8.703125 -0.0585938 8.5625 0.0078125 C 8.421875 0.0742188 8.265625 0.109375 8.09375 0.109375 C 7.921875 0.109375 7.761719 0.0703125 7.605469 -0.0078125 C 7.453125 -0.0859375 7.316406 -0.191406 7.203125 -0.324219 L 3.246094 -5.011719 C 3.246094 -4.859375 3.246094 -4.699219 3.246094 -4.539062 C 3.246094 -4.378906 3.246094 -4.210938 3.246094 -4.042969 L 3.246094 -3.019531 C 3.242188 -2.851562 3.238281 -2.683594 3.238281 -2.511719 C 3.238281 -2.339844 3.238281 -2.167969 3.238281 -2 L 3.238281 -1.027344 C 3.238281 -0.863281 3.210938 -0.714844 3.15625 -0.574219 C 3.097656 -0.4375 3.023438 -0.320312 2.925781 -0.21875 C 2.824219 -0.117188 2.707031 -0.0351562 2.570312 0.0234375 C 2.4375 0.078125 2.289062 0.109375 2.128906 0.109375 C 1.964844 0.109375 1.816406 0.078125 1.675781 0.0234375 C 1.539062 -0.0351562 1.421875 -0.117188 1.320312 -0.21875 C 1.21875 -0.320312 1.136719 -0.4375 1.078125 -0.574219 C 1.023438 -0.714844 0.992188 -0.863281 0.992188 -1.023438 L 0.992188 -8.085938 C 0.988281 -8.148438 0.980469 -8.210938 0.972656 -8.273438 C 0.96875 -8.335938 0.957031 -8.398438 0.941406 -8.460938 C 0.90625 -8.578125 0.890625 -8.699219 0.890625 -8.832031 C 0.890625 -8.898438 0.902344 -8.960938 0.921875 -9.019531 C 0.945312 -9.078125 0.984375 -9.128906 1.042969 -9.171875 C 1.15625 -9.253906 1.351562 -9.296875 1.636719 -9.296875 C 1.8125 -9.296875 1.964844 -9.289062 2.09375 -9.28125 C 2.222656 -9.269531 2.34375 -9.25 2.449219 -9.214844 C 2.558594 -9.183594 2.664062 -9.132812 2.757812 -9.066406 C 2.851562 -9 2.953125 -8.910156 3.066406 -8.796875 L 6.960938 -4.164062 L 6.949219 -8.042969 C 6.949219 -8.109375 6.945312 -8.179688 6.9375 -8.25 C 6.929688 -8.316406 6.917969 -8.382812 6.898438 -8.449219 C 6.863281 -8.566406 6.847656 -8.695312 6.847656 -8.824219 C 6.847656 -8.910156 6.855469 -8.984375 6.878906 -9.050781 C 6.902344 -9.113281 6.945312 -9.160156 7.011719 -9.195312 C 7.144531 -9.261719 7.410156 -9.296875 7.816406 -9.296875 C 8.015625 -9.296875 8.199219 -9.28125 8.367188 -9.25 C 8.535156 -9.222656 8.683594 -9.167969 8.808594 -9.085938 C 8.933594 -9.003906 9.035156 -8.886719 9.105469 -8.738281 C 9.179688 -8.585938 9.214844 -8.394531 9.214844 -8.15625 Z M 9.214844 -8.15625 "/></g></g></g><g fill="#f8f7f6" fill-opacity="1"><g transform="translate(150.200401, 25.873198)"><g><path d="M 7.96875 -1.027344 C 7.96875 -0.863281 7.9375 -0.714844 7.878906 -0.574219 C 7.820312 -0.4375 7.734375 -0.320312 7.628906 -0.21875 C 7.523438 -0.117188 7.398438 -0.0351562 7.253906 0.0234375 C 7.113281 0.078125 6.960938 0.109375 6.804688 0.109375 L 2.1875 0.109375 C 2.015625 0.109375 1.851562 0.078125 1.707031 0.0195312 C 1.558594 -0.0429688 1.433594 -0.125 1.332031 -0.230469 C 1.109375 -0.453125 1 -0.742188 1 -1.09375 L 1 -8.0625 C 0.996094 -8.125 0.988281 -8.191406 0.976562 -8.253906 C 0.96875 -8.320312 0.957031 -8.382812 0.941406 -8.449219 C 0.90625 -8.566406 0.890625 -8.695312 0.890625 -8.824219 C 0.890625 -8.898438 0.902344 -8.960938 0.921875 -9.019531 C 0.9375 -9.078125 0.976562 -9.128906 1.035156 -9.171875 C 1.089844 -9.210938 1.160156 -9.242188 1.253906 -9.265625 C 1.34375 -9.289062 1.464844 -9.300781 1.609375 -9.300781 L 6.808594 -9.300781 C 7.054688 -9.300781 7.261719 -9.25 7.425781 -9.144531 C 7.589844 -9.035156 7.714844 -8.902344 7.804688 -8.746094 C 7.886719 -8.582031 7.925781 -8.40625 7.929688 -8.21875 C 7.933594 -8.035156 7.890625 -7.859375 7.808594 -7.703125 C 7.726562 -7.535156 7.605469 -7.402344 7.441406 -7.296875 C 7.277344 -7.1875 7.070312 -7.136719 6.816406 -7.136719 L 3.261719 -7.136719 L 3.261719 -5.636719 L 5.90625 -5.636719 C 6.078125 -5.636719 6.242188 -5.59375 6.390625 -5.507812 C 6.539062 -5.425781 6.664062 -5.316406 6.765625 -5.1875 C 6.863281 -5.050781 6.925781 -4.898438 6.953125 -4.726562 C 6.976562 -4.554688 6.957031 -4.382812 6.882812 -4.210938 C 6.800781 -4 6.671875 -3.839844 6.503906 -3.722656 C 6.332031 -3.609375 6.132812 -3.550781 5.90625 -3.550781 L 3.261719 -3.550781 L 3.261719 -2.167969 L 6.796875 -2.167969 C 7.128906 -2.167969 7.40625 -2.0625 7.628906 -1.855469 C 7.734375 -1.753906 7.820312 -1.632812 7.878906 -1.492188 C 7.9375 -1.351562 7.96875 -1.199219 7.96875 -1.027344 Z M 7.96875 -1.027344 "/></g></g></g><g fill="#f8f7f6" fill-opacity="1"><g transform="translate(160.00215, 25.873198)"><g><path d="M 4.253906 -9.300781 C 4.398438 -9.300781 4.527344 -9.277344 4.644531 -9.222656 C 4.761719 -9.167969 4.863281 -9.097656 4.957031 -9.003906 C 5.046875 -8.914062 5.128906 -8.808594 5.203125 -8.695312 C 5.273438 -8.578125 5.339844 -8.457031 5.398438 -8.332031 L 8.195312 -1.433594 C 8.21875 -1.367188 8.234375 -1.296875 8.25 -1.222656 C 8.261719 -1.152344 8.269531 -1.082031 8.273438 -1.015625 C 8.273438 -0.859375 8.242188 -0.710938 8.179688 -0.574219 C 8.117188 -0.433594 8.023438 -0.308594 7.898438 -0.203125 C 7.757812 -0.0625 7.597656 0.0273438 7.417969 0.0742188 C 7.238281 0.117188 7.0625 0.117188 6.890625 0.078125 C 6.710938 0.0429688 6.546875 -0.0390625 6.398438 -0.160156 C 6.246094 -0.28125 6.132812 -0.441406 6.058594 -0.636719 L 5.707031 -1.492188 L 2.8125 -1.492188 L 2.457031 -0.636719 C 2.351562 -0.390625 2.203125 -0.203125 2.015625 -0.0703125 C 1.824219 0.0625 1.609375 0.125 1.363281 0.117188 C 1.183594 0.117188 1.019531 0.078125 0.871094 0 C 0.71875 -0.078125 0.597656 -0.179688 0.5 -0.304688 C 0.398438 -0.429688 0.328125 -0.574219 0.285156 -0.738281 C 0.246094 -0.902344 0.242188 -1.070312 0.273438 -1.246094 C 0.300781 -1.328125 0.324219 -1.40625 0.351562 -1.480469 C 0.378906 -1.554688 0.40625 -1.636719 0.441406 -1.71875 L 3.058594 -8.1875 C 3.085938 -8.265625 3.109375 -8.347656 3.121094 -8.441406 C 3.136719 -8.527344 3.152344 -8.613281 3.171875 -8.695312 C 3.191406 -8.777344 3.222656 -8.851562 3.261719 -8.925781 C 3.300781 -9 3.359375 -9.0625 3.4375 -9.117188 C 3.515625 -9.171875 3.621094 -9.21875 3.753906 -9.25 C 3.875 -9.285156 4.039062 -9.300781 4.253906 -9.300781 Z M 5.265625 -3.246094 L 4.265625 -5.824219 L 3.261719 -3.246094 Z M 5.265625 -3.246094 "/></g></g></g><g fill="#f8f7f6" fill-opacity="1"><g transform="translate(170.093669, 25.873198)"><g><path d="M 8 -1.6875 C 8.101562 -1.570312 8.171875 -1.445312 8.210938 -1.304688 C 8.253906 -1.164062 8.265625 -1.023438 8.25 -0.882812 C 8.234375 -0.742188 8.1875 -0.609375 8.117188 -0.476562 C 8.046875 -0.347656 7.949219 -0.234375 7.824219 -0.136719 C 7.699219 -0.0429688 7.566406 0.0273438 7.429688 0.0664062 C 7.292969 0.105469 7.152344 0.113281 7.011719 0.09375 C 6.726562 0.0664062 6.484375 -0.0742188 6.28125 -0.320312 L 4.8125 -2.449219 C 4.753906 -2.445312 4.695312 -2.441406 4.636719 -2.4375 C 4.578125 -2.433594 4.519531 -2.433594 4.460938 -2.433594 L 3.261719 -2.433594 L 3.261719 -1.027344 C 3.261719 -0.871094 3.230469 -0.722656 3.171875 -0.582031 C 3.117188 -0.445312 3.035156 -0.324219 2.933594 -0.222656 C 2.722656 -0.00390625 2.453125 0.109375 2.128906 0.109375 C 1.800781 0.109375 1.53125 -0.00390625 1.320312 -0.222656 C 1.21875 -0.324219 1.136719 -0.445312 1.078125 -0.582031 C 1.023438 -0.722656 0.992188 -0.871094 0.992188 -1.027344 L 0.992188 -8.164062 C 0.988281 -8.226562 0.980469 -8.292969 0.972656 -8.355469 C 0.96875 -8.421875 0.957031 -8.484375 0.941406 -8.550781 C 0.921875 -8.613281 0.910156 -8.671875 0.902344 -8.734375 C 0.894531 -8.792969 0.890625 -8.851562 0.890625 -8.902344 C 0.890625 -8.976562 0.902344 -9.042969 0.921875 -9.097656 C 0.945312 -9.15625 0.984375 -9.207031 1.042969 -9.25 C 1.15625 -9.332031 1.351562 -9.375 1.636719 -9.375 L 4.460938 -9.375 C 4.960938 -9.375 5.433594 -9.285156 5.882812 -9.101562 C 6.332031 -8.921875 6.726562 -8.675781 7.070312 -8.359375 C 7.414062 -8.042969 7.6875 -7.667969 7.890625 -7.242188 C 8.09375 -6.8125 8.195312 -6.351562 8.195312 -5.855469 C 8.195312 -5.359375 8.09375 -4.90625 7.890625 -4.488281 C 7.6875 -4.070312 7.414062 -3.710938 7.070312 -3.40625 C 7.027344 -3.371094 6.984375 -3.335938 6.941406 -3.300781 C 6.898438 -3.265625 6.855469 -3.230469 6.808594 -3.195312 Z M 3.214844 -4.382812 L 4.460938 -4.382812 C 4.671875 -4.382812 4.867188 -4.417969 5.054688 -4.488281 C 5.238281 -4.558594 5.398438 -4.652344 5.535156 -4.773438 C 5.675781 -4.898438 5.78125 -5.046875 5.859375 -5.21875 C 5.933594 -5.390625 5.96875 -5.582031 5.96875 -5.789062 C 5.96875 -5.996094 5.933594 -6.195312 5.859375 -6.382812 C 5.78125 -6.570312 5.675781 -6.738281 5.535156 -6.882812 C 5.398438 -7.023438 5.238281 -7.136719 5.054688 -7.21875 C 4.867188 -7.304688 4.671875 -7.347656 4.460938 -7.347656 L 3.214844 -7.347656 Z M 3.214844 -4.382812 "/></g></g></g><g fill="#f8f7f6" fill-opacity="1"><g transform="translate(180.076527, 25.873198)"><g/></g></g><g fill="#f8f7f6" fill-opacity="1"><g transform="translate(184.879795, 25.873198)"><g><path d="M 8.816406 -8.15625 C 8.8125 -8.011719 8.785156 -7.871094 8.730469 -7.730469 C 8.675781 -7.589844 8.597656 -7.460938 8.492188 -7.347656 L 5.621094 -4 L 5.621094 -1.023438 C 5.621094 -0.863281 5.59375 -0.714844 5.53125 -0.574219 C 5.472656 -0.4375 5.390625 -0.320312 5.289062 -0.21875 C 5.078125 0.00390625 4.808594 0.117188 4.484375 0.117188 C 4.15625 0.117188 3.886719 0.00390625 3.671875 -0.21875 C 3.570312 -0.320312 3.492188 -0.4375 3.433594 -0.574219 C 3.375 -0.714844 3.347656 -0.863281 3.347656 -1.023438 L 3.347656 -3.984375 L 0.484375 -7.347656 C 0.269531 -7.59375 0.160156 -7.863281 0.160156 -8.15625 C 0.160156 -8.296875 0.1875 -8.433594 0.238281 -8.570312 C 0.292969 -8.707031 0.375 -8.832031 0.492188 -8.949219 C 0.605469 -9.0625 0.730469 -9.152344 0.875 -9.210938 C 1.023438 -9.273438 1.167969 -9.304688 1.320312 -9.308594 C 1.464844 -9.308594 1.605469 -9.28125 1.742188 -9.21875 C 1.878906 -9.160156 1.996094 -9.066406 2.09375 -8.949219 L 4.492188 -5.917969 L 6.882812 -8.949219 C 6.980469 -9.066406 7.09375 -9.160156 7.230469 -9.21875 C 7.367188 -9.28125 7.507812 -9.308594 7.65625 -9.308594 C 7.808594 -9.304688 7.953125 -9.273438 8.101562 -9.210938 C 8.246094 -9.152344 8.375 -9.0625 8.492188 -8.949219 C 8.601562 -8.835938 8.683594 -8.714844 8.738281 -8.578125 C 8.789062 -8.441406 8.816406 -8.300781 8.816406 -8.15625 Z M 8.816406 -8.15625 "/></g></g></g><g fill="#f8f7f6" fill-opacity="1"><g transform="translate(195.282816, 25.873198)"><g><path d="M 0.441406 -4.59375 C 0.441406 -5.242188 0.566406 -5.851562 0.816406 -6.421875 C 1.0625 -6.996094 1.402344 -7.492188 1.824219 -7.917969 C 2.253906 -8.347656 2.753906 -8.683594 3.320312 -8.929688 C 3.890625 -9.171875 4.5 -9.296875 5.152344 -9.296875 C 5.582031 -9.296875 5.996094 -9.238281 6.394531 -9.125 C 6.792969 -9.011719 7.167969 -8.851562 7.519531 -8.652344 C 7.867188 -8.449219 8.183594 -8.203125 8.46875 -7.914062 C 8.753906 -7.628906 9 -7.308594 9.207031 -6.960938 C 9.410156 -6.613281 9.570312 -6.242188 9.683594 -5.839844 C 9.796875 -5.4375 9.851562 -5.023438 9.851562 -4.59375 C 9.851562 -4.164062 9.796875 -3.746094 9.683594 -3.347656 C 9.570312 -2.945312 9.410156 -2.570312 9.207031 -2.222656 C 9 -1.875 8.753906 -1.558594 8.46875 -1.269531 C 8.183594 -0.984375 7.867188 -0.738281 7.519531 -0.535156 C 7.167969 -0.328125 6.792969 -0.167969 6.394531 -0.0585938 C 5.996094 0.0546875 5.582031 0.109375 5.152344 0.109375 C 4.5 0.109375 3.890625 -0.015625 3.320312 -0.261719 C 2.753906 -0.507812 2.253906 -0.84375 1.824219 -1.269531 C 1.402344 -1.691406 1.0625 -2.191406 0.816406 -2.765625 C 0.566406 -3.335938 0.441406 -3.945312 0.441406 -4.59375 Z M 2.71875 -4.570312 C 2.71875 -4.242188 2.78125 -3.929688 2.910156 -3.632812 C 3.035156 -3.335938 3.210938 -3.074219 3.433594 -2.847656 C 3.652344 -2.625 3.90625 -2.445312 4.203125 -2.3125 C 4.496094 -2.175781 4.8125 -2.109375 5.152344 -2.109375 C 5.484375 -2.109375 5.796875 -2.175781 6.09375 -2.308594 C 6.386719 -2.441406 6.644531 -2.621094 6.867188 -2.847656 C 7.085938 -3.074219 7.257812 -3.339844 7.386719 -3.640625 C 7.515625 -3.941406 7.578125 -4.261719 7.578125 -4.59375 C 7.578125 -4.925781 7.515625 -5.242188 7.386719 -5.542969 C 7.257812 -5.839844 7.085938 -6.101562 6.867188 -6.324219 C 6.644531 -6.550781 6.386719 -6.730469 6.09375 -6.855469 C 5.796875 -6.984375 5.484375 -7.050781 5.152344 -7.050781 C 4.8125 -7.050781 4.496094 -6.984375 4.203125 -6.855469 C 3.90625 -6.722656 3.652344 -6.542969 3.433594 -6.316406 C 3.210938 -6.09375 3.035156 -5.832031 2.910156 -5.527344 C 2.78125 -5.222656 2.71875 -4.90625 2.71875 -4.570312 Z M 2.71875 -4.570312 "/></g></g></g><g fill="#f8f7f6" fill-opacity="1"><g transform="translate(207.033255, 25.873198)"><g><path d="M 0.457031 -3.703125 L 0.464844 -8.085938 C 0.457031 -8.148438 0.453125 -8.210938 0.441406 -8.273438 C 0.433594 -8.335938 0.421875 -8.398438 0.40625 -8.460938 C 0.371094 -8.578125 0.355469 -8.699219 0.355469 -8.824219 C 0.355469 -8.898438 0.367188 -8.960938 0.386719 -9.019531 C 0.410156 -9.078125 0.449219 -9.128906 0.507812 -9.171875 C 0.617188 -9.253906 0.816406 -9.296875 1.101562 -9.296875 C 1.3125 -9.296875 1.515625 -9.28125 1.710938 -9.25 C 1.902344 -9.222656 2.070312 -9.164062 2.21875 -9.078125 C 2.363281 -8.992188 2.480469 -8.867188 2.570312 -8.710938 C 2.664062 -8.554688 2.714844 -8.347656 2.722656 -8.09375 L 2.722656 -3.6875 C 2.722656 -3.457031 2.769531 -3.234375 2.859375 -3.027344 C 2.949219 -2.820312 3.074219 -2.640625 3.238281 -2.484375 C 3.402344 -2.324219 3.601562 -2.203125 3.835938 -2.113281 C 4.070312 -2.023438 4.332031 -1.976562 4.621094 -1.976562 C 4.882812 -1.976562 5.128906 -2.023438 5.359375 -2.113281 C 5.59375 -2.203125 5.796875 -2.324219 5.96875 -2.484375 C 6.140625 -2.640625 6.273438 -2.820312 6.375 -3.027344 C 6.476562 -3.234375 6.527344 -3.457031 6.527344 -3.6875 L 6.511719 -8.085938 C 6.507812 -8.148438 6.503906 -8.210938 6.496094 -8.273438 C 6.488281 -8.335938 6.476562 -8.398438 6.460938 -8.460938 C 6.433594 -8.585938 6.417969 -8.707031 6.417969 -8.824219 C 6.417969 -8.898438 6.429688 -8.960938 6.453125 -9.019531 C 6.472656 -9.078125 6.511719 -9.128906 6.570312 -9.171875 C 6.625 -9.210938 6.699219 -9.242188 6.792969 -9.261719 C 6.886719 -9.285156 7.007812 -9.296875 7.15625 -9.296875 C 7.355469 -9.296875 7.554688 -9.28125 7.75 -9.25 C 7.945312 -9.222656 8.117188 -9.167969 8.273438 -9.085938 C 8.429688 -9 8.550781 -8.875 8.648438 -8.71875 C 8.742188 -8.5625 8.789062 -8.351562 8.789062 -8.09375 L 8.796875 -3.703125 C 8.789062 -3.339844 8.734375 -2.992188 8.632812 -2.65625 C 8.527344 -2.320312 8.382812 -2.003906 8.203125 -1.703125 C 7.824219 -1.09375 7.328125 -0.613281 6.707031 -0.261719 C 6.398438 -0.0859375 6.070312 0.046875 5.714844 0.144531 C 5.363281 0.242188 5 0.289062 4.621094 0.289062 C 4.042969 0.289062 3.5 0.1875 2.996094 -0.0234375 C 2.492188 -0.230469 2.050781 -0.515625 1.671875 -0.875 C 1.296875 -1.234375 1 -1.65625 0.78125 -2.140625 C 0.566406 -2.625 0.457031 -3.148438 0.457031 -3.703125 Z M 0.457031 -3.703125 "/></g></g></g></svg>