<svg xmlns="http://www.w3.org/2000/svg" xmlns:xlink="http://www.w3.org/1999/xlink" width="300" zoomAndPan="magnify" viewBox="0 0 224.87999 44.999999" height="60" preserveAspectRatio="xMidYMid meet" version="1.0"><defs><g/><clipPath id="b7f284ec7e"><path d="M 5 0.0117188 L 219.765625 0.0117188 L 219.765625 43.9375 L 5 43.9375 Z M 5 0.0117188 " clip-rule="nonzero"/></clipPath></defs><g clip-path="url(#b7f284ec7e)"><path fill="#132339" d="M 9.039062 8.136719 C 3.824219 13.320312 4.355469 27.074219 7.550781 34.011719 C 9.929688 39.171875 16.3125 40.617188 21.222656 41.601562 C 38.640625 45.101562 56.5625 44.816406 74.21875 44.554688 C 101.101562 44.15625 127.976562 43.25 154.863281 42.894531 C 167.457031 42.730469 180.050781 42.914062 192.648438 43.003906 C 197.921875 43.039062 203.476562 43.851562 208.609375 42.074219 C 217.441406 39.019531 219.347656 28.121094 220.074219 20.035156 C 220.40625 16.355469 221.226562 11.277344 217.726562 8.59375 C 212.332031 4.46875 204.996094 4.480469 198.640625 3.878906 C 178.484375 1.964844 178.589844 1.84375 158.253906 1.25 C 142.390625 0.789062 117.78125 0.308594 101.90625 0.683594 C 91.410156 0.929688 80.921875 1.550781 70.433594 2.050781 C 59.957031 2.554688 50.5625 1.328125 40.082031 1.679688 C 29.511719 2.035156 14.460938 2.746094 9.039062 8.136719 Z M 9.039062 8.136719 " fill-opacity="1" fill-rule="evenodd"/></g><g fill="#f8f7f6" fill-opacity="1"><g transform="translate(21.61113, 27.420382)"><g><path d="M 10.316406 -7.371094 C 10.316406 -6.75 10.191406 -6.179688 9.933594 -5.652344 C 9.679688 -5.125 9.335938 -4.671875 8.902344 -4.289062 C 8.472656 -3.90625 7.972656 -3.605469 7.40625 -3.390625 C 6.84375 -3.171875 6.246094 -3.066406 5.621094 -3.066406 L 4.105469 -3.066406 L 4.105469 -1.296875 C 4.105469 -1.09375 4.070312 -0.90625 3.996094 -0.734375 C 3.921875 -0.5625 3.824219 -0.410156 3.695312 -0.28125 C 3.425781 -0.00390625 3.089844 0.136719 2.683594 0.136719 C 2.269531 0.136719 1.929688 -0.00390625 1.660156 -0.28125 C 1.53125 -0.410156 1.433594 -0.5625 1.359375 -0.734375 C 1.285156 -0.90625 1.25 -1.09375 1.25 -1.296875 L 1.25 -10.28125 C 1.242188 -10.359375 1.234375 -10.441406 1.226562 -10.523438 C 1.21875 -10.605469 1.203125 -10.6875 1.1875 -10.765625 C 1.160156 -10.84375 1.144531 -10.921875 1.136719 -10.996094 C 1.125 -11.074219 1.121094 -11.144531 1.121094 -11.210938 C 1.121094 -11.304688 1.136719 -11.386719 1.164062 -11.457031 C 1.191406 -11.53125 1.242188 -11.59375 1.3125 -11.648438 C 1.453125 -11.753906 1.703125 -11.804688 2.0625 -11.804688 L 5.621094 -11.804688 C 6.246094 -11.804688 6.84375 -11.691406 7.40625 -11.464844 C 7.972656 -11.234375 8.472656 -10.921875 8.902344 -10.527344 C 9.335938 -10.125 9.679688 -9.65625 9.933594 -9.117188 C 10.191406 -8.582031 10.316406 -7.996094 10.316406 -7.371094 Z M 7.515625 -7.289062 C 7.515625 -7.550781 7.46875 -7.800781 7.375 -8.039062 C 7.28125 -8.273438 7.144531 -8.484375 6.96875 -8.667969 C 6.800781 -8.84375 6.597656 -8.984375 6.363281 -9.089844 C 6.128906 -9.199219 5.882812 -9.25 5.621094 -9.25 L 4.050781 -9.25 L 4.050781 -5.519531 L 5.621094 -5.519531 C 5.882812 -5.519531 6.128906 -5.5625 6.363281 -5.652344 C 6.597656 -5.738281 6.800781 -5.859375 6.96875 -6.011719 C 7.144531 -6.171875 7.28125 -6.355469 7.375 -6.574219 C 7.46875 -6.789062 7.515625 -7.027344 7.515625 -7.289062 Z M 7.515625 -7.289062 "/></g></g></g><g fill="#f8f7f6" fill-opacity="1"><g transform="translate(34.164449, 27.420382)"><g><path d="M 0.554688 -5.785156 C 0.554688 -6.597656 0.714844 -7.367188 1.027344 -8.085938 C 1.339844 -8.808594 1.765625 -9.4375 2.300781 -9.972656 C 2.839844 -10.511719 3.46875 -10.9375 4.183594 -11.246094 C 4.898438 -11.550781 5.664062 -11.703125 6.488281 -11.703125 C 7.027344 -11.703125 7.550781 -11.632812 8.050781 -11.492188 C 8.554688 -11.347656 9.027344 -11.148438 9.46875 -10.894531 C 9.90625 -10.636719 10.304688 -10.328125 10.664062 -9.96875 C 11.023438 -9.605469 11.335938 -9.207031 11.59375 -8.765625 C 11.851562 -8.328125 12.050781 -7.859375 12.191406 -7.351562 C 12.335938 -6.847656 12.40625 -6.324219 12.40625 -5.785156 C 12.40625 -5.242188 12.335938 -4.71875 12.191406 -4.214844 C 12.050781 -3.710938 11.851562 -3.238281 11.59375 -2.800781 C 11.335938 -2.363281 11.023438 -1.964844 10.664062 -1.601562 C 10.304688 -1.238281 9.90625 -0.929688 9.46875 -0.675781 C 9.027344 -0.414062 8.554688 -0.210938 8.050781 -0.0742188 C 7.550781 0.0664062 7.027344 0.136719 6.488281 0.136719 C 5.664062 0.136719 4.898438 -0.0195312 4.183594 -0.328125 C 3.46875 -0.636719 2.839844 -1.0625 2.300781 -1.597656 C 1.765625 -2.132812 1.339844 -2.757812 1.027344 -3.480469 C 0.714844 -4.203125 0.554688 -4.96875 0.554688 -5.785156 Z M 3.421875 -5.757812 C 3.421875 -5.34375 3.5 -4.949219 3.664062 -4.574219 C 3.824219 -4.203125 4.042969 -3.871094 4.324219 -3.585938 C 4.597656 -3.304688 4.921875 -3.082031 5.292969 -2.910156 C 5.664062 -2.738281 6.0625 -2.65625 6.488281 -2.65625 C 6.90625 -2.65625 7.300781 -2.738281 7.671875 -2.90625 C 8.042969 -3.074219 8.367188 -3.300781 8.648438 -3.585938 C 8.921875 -3.871094 9.140625 -4.203125 9.300781 -4.585938 C 9.460938 -4.964844 9.542969 -5.363281 9.542969 -5.785156 C 9.542969 -6.203125 9.460938 -6.601562 9.300781 -6.980469 C 9.140625 -7.355469 8.921875 -7.683594 8.648438 -7.964844 C 8.367188 -8.25 8.042969 -8.472656 7.671875 -8.636719 C 7.300781 -8.796875 6.90625 -8.875 6.488281 -8.875 C 6.0625 -8.875 5.664062 -8.792969 5.292969 -8.628906 C 4.921875 -8.464844 4.597656 -8.242188 4.324219 -7.957031 C 4.042969 -7.675781 3.824219 -7.34375 3.664062 -6.960938 C 3.5 -6.578125 3.421875 -6.175781 3.421875 -5.757812 Z M 3.421875 -5.757812 "/></g></g></g><g fill="#f8f7f6" fill-opacity="1"><g transform="translate(48.962033, 27.420382)"><g><path d="M 10.445312 -10.28125 C 10.445312 -10.082031 10.40625 -9.894531 10.332031 -9.722656 C 10.257812 -9.546875 10.152344 -9.398438 10.027344 -9.269531 C 9.746094 -8.988281 9.402344 -8.847656 8.996094 -8.847656 L 6.816406 -8.847656 L 6.777344 -1.296875 C 6.777344 -1.09375 6.742188 -0.90625 6.671875 -0.734375 C 6.605469 -0.5625 6.507812 -0.410156 6.386719 -0.28125 C 6.257812 -0.148438 6.109375 -0.046875 5.9375 0.0273438 C 5.769531 0.101562 5.582031 0.136719 5.382812 0.136719 C 5.175781 0.136719 4.984375 0.0976562 4.8125 0.0234375 C 4.640625 -0.0546875 4.492188 -0.15625 4.371094 -0.28125 C 4.25 -0.410156 4.152344 -0.5625 4.082031 -0.734375 C 4.011719 -0.90625 3.976562 -1.09375 3.976562 -1.296875 L 3.949219 -8.847656 L 1.722656 -8.847656 C 1.523438 -8.847656 1.335938 -8.886719 1.160156 -8.957031 C 0.980469 -9.03125 0.832031 -9.132812 0.703125 -9.261719 C 0.574219 -9.386719 0.472656 -9.539062 0.398438 -9.710938 C 0.320312 -9.886719 0.28125 -10.074219 0.28125 -10.28125 C 0.28125 -10.6875 0.421875 -11.027344 0.703125 -11.292969 C 0.832031 -11.421875 0.980469 -11.523438 1.160156 -11.601562 C 1.335938 -11.675781 1.523438 -11.714844 1.722656 -11.714844 L 8.984375 -11.714844 C 9.1875 -11.714844 9.375 -11.675781 9.550781 -11.605469 C 9.726562 -11.53125 9.882812 -11.429688 10.015625 -11.304688 C 10.152344 -11.175781 10.257812 -11.023438 10.332031 -10.847656 C 10.40625 -10.671875 10.445312 -10.484375 10.445312 -10.28125 Z M 10.445312 -10.28125 "/></g></g></g><g fill="#f8f7f6" fill-opacity="1"><g transform="translate(61.515352, 27.420382)"><g><path d="M 10.445312 -10.28125 C 10.445312 -10.082031 10.40625 -9.894531 10.332031 -9.722656 C 10.257812 -9.546875 10.152344 -9.398438 10.027344 -9.269531 C 9.746094 -8.988281 9.402344 -8.847656 8.996094 -8.847656 L 6.816406 -8.847656 L 6.777344 -1.296875 C 6.777344 -1.09375 6.742188 -0.90625 6.671875 -0.734375 C 6.605469 -0.5625 6.507812 -0.410156 6.386719 -0.28125 C 6.257812 -0.148438 6.109375 -0.046875 5.9375 0.0273438 C 5.769531 0.101562 5.582031 0.136719 5.382812 0.136719 C 5.175781 0.136719 4.984375 0.0976562 4.8125 0.0234375 C 4.640625 -0.0546875 4.492188 -0.15625 4.371094 -0.28125 C 4.25 -0.410156 4.152344 -0.5625 4.082031 -0.734375 C 4.011719 -0.90625 3.976562 -1.09375 3.976562 -1.296875 L 3.949219 -8.847656 L 1.722656 -8.847656 C 1.523438 -8.847656 1.335938 -8.886719 1.160156 -8.957031 C 0.980469 -9.03125 0.832031 -9.132812 0.703125 -9.261719 C 0.574219 -9.386719 0.472656 -9.539062 0.398438 -9.710938 C 0.320312 -9.886719 0.28125 -10.074219 0.28125 -10.28125 C 0.28125 -10.6875 0.421875 -11.027344 0.703125 -11.292969 C 0.832031 -11.421875 0.980469 -11.523438 1.160156 -11.601562 C 1.335938 -11.675781 1.523438 -11.714844 1.722656 -11.714844 L 8.984375 -11.714844 C 9.1875 -11.714844 9.375 -11.675781 9.550781 -11.605469 C 9.726562 -11.53125 9.882812 -11.429688 10.015625 -11.304688 C 10.152344 -11.175781 10.257812 -11.023438 10.332031 -10.847656 C 10.40625 -10.671875 10.445312 -10.484375 10.445312 -10.28125 Z M 10.445312 -10.28125 "/></g></g></g><g fill="#f8f7f6" fill-opacity="1"><g transform="translate(74.068671, 27.420382)"><g><path d="M 10.035156 -1.296875 C 10.035156 -1.089844 9.996094 -0.898438 9.921875 -0.726562 C 9.84375 -0.550781 9.742188 -0.402344 9.605469 -0.273438 C 9.472656 -0.144531 9.316406 -0.046875 9.136719 0.0273438 C 8.957031 0.101562 8.765625 0.136719 8.566406 0.136719 L 2.753906 0.136719 C 2.535156 0.136719 2.335938 0.0976562 2.148438 0.0234375 C 1.964844 -0.0546875 1.804688 -0.15625 1.679688 -0.292969 C 1.398438 -0.570312 1.257812 -0.933594 1.257812 -1.378906 L 1.257812 -10.152344 C 1.253906 -10.234375 1.242188 -10.3125 1.230469 -10.394531 C 1.21875 -10.476562 1.203125 -10.558594 1.1875 -10.636719 C 1.144531 -10.789062 1.121094 -10.949219 1.121094 -11.113281 C 1.121094 -11.203125 1.132812 -11.285156 1.160156 -11.359375 C 1.183594 -11.429688 1.230469 -11.496094 1.304688 -11.550781 C 1.371094 -11.597656 1.460938 -11.636719 1.578125 -11.667969 C 1.695312 -11.699219 1.84375 -11.714844 2.023438 -11.714844 L 8.574219 -11.714844 C 8.886719 -11.714844 9.144531 -11.648438 9.351562 -11.511719 C 9.558594 -11.378906 9.714844 -11.210938 9.824219 -11.011719 C 9.929688 -10.804688 9.980469 -10.585938 9.984375 -10.351562 C 9.988281 -10.117188 9.9375 -9.898438 9.835938 -9.699219 C 9.730469 -9.492188 9.578125 -9.320312 9.371094 -9.1875 C 9.164062 -9.054688 8.902344 -8.984375 8.585938 -8.984375 L 4.105469 -8.984375 L 4.105469 -7.097656 L 7.433594 -7.097656 C 7.65625 -7.097656 7.859375 -7.042969 8.046875 -6.9375 C 8.234375 -6.832031 8.394531 -6.695312 8.519531 -6.53125 C 8.644531 -6.363281 8.71875 -6.167969 8.753906 -5.953125 C 8.789062 -5.738281 8.757812 -5.519531 8.667969 -5.300781 C 8.5625 -5.039062 8.402344 -4.835938 8.1875 -4.6875 C 7.972656 -4.542969 7.722656 -4.46875 7.433594 -4.46875 L 4.105469 -4.46875 L 4.105469 -2.726562 L 8.558594 -2.726562 C 8.976562 -2.726562 9.328125 -2.597656 9.605469 -2.335938 C 9.742188 -2.207031 9.84375 -2.054688 9.921875 -1.878906 C 9.996094 -1.703125 10.035156 -1.507812 10.035156 -1.296875 Z M 10.035156 -1.296875 "/></g></g></g><g fill="#f8f7f6" fill-opacity="1"><g transform="translate(86.412151, 27.420382)"><g><path d="M 10.070312 -2.125 C 10.199219 -1.980469 10.289062 -1.820312 10.339844 -1.640625 C 10.394531 -1.464844 10.410156 -1.289062 10.390625 -1.113281 C 10.367188 -0.9375 10.3125 -0.765625 10.222656 -0.601562 C 10.132812 -0.4375 10.011719 -0.296875 9.851562 -0.171875 C 9.695312 -0.0507812 9.527344 0.0351562 9.355469 0.0820312 C 9.183594 0.128906 9.007812 0.144531 8.832031 0.117188 C 8.472656 0.0820312 8.164062 -0.0898438 7.910156 -0.402344 L 6.058594 -3.082031 C 5.984375 -3.078125 5.910156 -3.074219 5.839844 -3.070312 C 5.765625 -3.066406 5.691406 -3.066406 5.621094 -3.066406 L 4.105469 -3.066406 L 4.105469 -1.296875 C 4.105469 -1.09375 4.070312 -0.90625 3.996094 -0.734375 C 3.921875 -0.5625 3.824219 -0.410156 3.695312 -0.28125 C 3.425781 -0.00390625 3.089844 0.136719 2.683594 0.136719 C 2.269531 0.136719 1.929688 -0.00390625 1.660156 -0.28125 C 1.53125 -0.410156 1.433594 -0.5625 1.359375 -0.734375 C 1.285156 -0.90625 1.25 -1.09375 1.25 -1.296875 L 1.25 -10.28125 C 1.242188 -10.359375 1.234375 -10.441406 1.226562 -10.523438 C 1.21875 -10.605469 1.203125 -10.6875 1.1875 -10.765625 C 1.160156 -10.84375 1.144531 -10.921875 1.136719 -10.996094 C 1.125 -11.074219 1.121094 -11.144531 1.121094 -11.210938 C 1.121094 -11.304688 1.136719 -11.386719 1.164062 -11.457031 C 1.191406 -11.53125 1.242188 -11.59375 1.3125 -11.648438 C 1.453125 -11.753906 1.703125 -11.804688 2.0625 -11.804688 L 5.621094 -11.804688 C 6.246094 -11.804688 6.84375 -11.691406 7.40625 -11.464844 C 7.972656 -11.234375 8.472656 -10.921875 8.902344 -10.527344 C 9.335938 -10.125 9.679688 -9.65625 9.933594 -9.117188 C 10.191406 -8.582031 10.316406 -7.996094 10.316406 -7.371094 C 10.316406 -6.75 10.191406 -6.179688 9.933594 -5.652344 C 9.679688 -5.125 9.335938 -4.671875 8.902344 -4.289062 C 8.847656 -4.246094 8.792969 -4.203125 8.738281 -4.15625 C 8.683594 -4.109375 8.628906 -4.066406 8.574219 -4.023438 Z M 4.050781 -5.519531 L 5.621094 -5.519531 C 5.882812 -5.519531 6.128906 -5.5625 6.363281 -5.652344 C 6.597656 -5.738281 6.800781 -5.859375 6.96875 -6.011719 C 7.144531 -6.171875 7.28125 -6.355469 7.375 -6.574219 C 7.46875 -6.789062 7.515625 -7.027344 7.515625 -7.289062 C 7.515625 -7.550781 7.46875 -7.800781 7.375 -8.039062 C 7.28125 -8.273438 7.144531 -8.484375 6.96875 -8.667969 C 6.800781 -8.84375 6.597656 -8.984375 6.363281 -9.089844 C 6.128906 -9.199219 5.882812 -9.25 5.621094 -9.25 L 4.050781 -9.25 Z M 4.050781 -5.519531 "/></g></g></g><g fill="#f8f7f6" fill-opacity="1"><g transform="translate(98.983707, 27.420382)"><g><path d="M 11.101562 -10.273438 C 11.097656 -10.089844 11.058594 -9.910156 10.992188 -9.734375 C 10.925781 -9.558594 10.824219 -9.398438 10.691406 -9.25 L 7.078125 -5.035156 L 7.078125 -1.285156 C 7.078125 -1.085938 7.042969 -0.898438 6.964844 -0.726562 C 6.890625 -0.550781 6.789062 -0.402344 6.660156 -0.273438 C 6.390625 0.0078125 6.054688 0.144531 5.648438 0.144531 C 5.234375 0.144531 4.894531 0.0078125 4.625 -0.273438 C 4.496094 -0.402344 4.398438 -0.550781 4.324219 -0.726562 C 4.25 -0.898438 4.214844 -1.085938 4.214844 -1.285156 L 4.214844 -5.019531 L 0.609375 -9.25 C 0.335938 -9.5625 0.199219 -9.902344 0.199219 -10.273438 C 0.199219 -10.449219 0.234375 -10.621094 0.300781 -10.792969 C 0.367188 -10.964844 0.472656 -11.121094 0.621094 -11.265625 C 0.761719 -11.414062 0.921875 -11.523438 1.105469 -11.601562 C 1.285156 -11.675781 1.472656 -11.71875 1.660156 -11.722656 C 1.84375 -11.722656 2.019531 -11.683594 2.195312 -11.609375 C 2.367188 -11.53125 2.515625 -11.417969 2.636719 -11.265625 L 5.65625 -7.453125 L 8.667969 -11.265625 C 8.789062 -11.417969 8.933594 -11.53125 9.105469 -11.609375 C 9.273438 -11.683594 9.453125 -11.722656 9.644531 -11.722656 C 9.832031 -11.71875 10.015625 -11.675781 10.199219 -11.601562 C 10.382812 -11.523438 10.546875 -11.414062 10.691406 -11.265625 C 10.832031 -11.128906 10.9375 -10.972656 11.003906 -10.800781 C 11.070312 -10.632812 11.101562 -10.457031 11.101562 -10.273438 Z M 11.101562 -10.273438 "/></g></g></g><g fill="#f8f7f6" fill-opacity="1"><g transform="translate(112.08441, 27.420382)"><g/></g></g><g fill="#f8f7f6" fill-opacity="1"><g transform="translate(118.132995, 27.420382)"><g><path d="M 8.722656 -7.835938 C 8.582031 -7.964844 8.4375 -8.089844 8.285156 -8.214844 C 8.132812 -8.339844 7.96875 -8.449219 7.792969 -8.546875 C 7.609375 -8.644531 7.410156 -8.722656 7.199219 -8.78125 C 6.984375 -8.839844 6.75 -8.867188 6.488281 -8.867188 C 6.0625 -8.867188 5.664062 -8.785156 5.292969 -8.621094 C 4.921875 -8.457031 4.597656 -8.230469 4.324219 -7.945312 C 4.042969 -7.667969 3.824219 -7.335938 3.664062 -6.957031 C 3.5 -6.578125 3.421875 -6.175781 3.421875 -5.757812 C 3.421875 -5.335938 3.5 -4.941406 3.664062 -4.566406 C 3.824219 -4.191406 4.042969 -3.863281 4.324219 -3.578125 C 4.605469 -3.296875 4.929688 -3.074219 5.300781 -2.90625 C 5.671875 -2.738281 6.066406 -2.65625 6.488281 -2.65625 C 6.785156 -2.65625 7.050781 -2.691406 7.28125 -2.769531 C 7.511719 -2.84375 7.722656 -2.945312 7.917969 -3.066406 C 8.121094 -3.191406 8.308594 -3.328125 8.484375 -3.476562 C 8.574219 -3.554688 8.671875 -3.632812 8.765625 -3.707031 C 8.863281 -3.785156 8.964844 -3.863281 9.070312 -3.941406 C 9.316406 -4.085938 9.601562 -4.160156 9.917969 -4.160156 C 10.0625 -4.152344 10.207031 -4.125 10.351562 -4.074219 C 10.492188 -4.023438 10.621094 -3.941406 10.738281 -3.832031 C 11.054688 -3.570312 11.210938 -3.230469 11.210938 -2.808594 C 11.210938 -2.628906 11.179688 -2.449219 11.117188 -2.277344 C 11.050781 -2.101562 10.945312 -1.941406 10.792969 -1.789062 C 10.226562 -1.113281 9.605469 -0.625 8.921875 -0.320312 C 8.230469 -0.0078125 7.417969 0.144531 6.488281 0.144531 C 5.664062 0.144531 4.898438 -0.0117188 4.183594 -0.324219 C 3.46875 -0.636719 2.839844 -1.0625 2.300781 -1.597656 C 1.765625 -2.136719 1.339844 -2.765625 1.027344 -3.480469 C 0.714844 -4.195312 0.554688 -4.964844 0.554688 -5.785156 C 0.554688 -6.324219 0.625 -6.847656 0.765625 -7.347656 C 0.90625 -7.851562 1.105469 -8.324219 1.367188 -8.765625 C 1.625 -9.207031 1.933594 -9.605469 2.292969 -9.960938 C 2.65625 -10.320312 3.054688 -10.632812 3.496094 -10.894531 C 3.933594 -11.148438 4.402344 -11.347656 4.910156 -11.492188 C 5.414062 -11.632812 5.9375 -11.703125 6.488281 -11.703125 C 6.929688 -11.703125 7.34375 -11.671875 7.722656 -11.605469 C 8.101562 -11.539062 8.460938 -11.429688 8.792969 -11.285156 C 9.453125 -10.992188 10.070312 -10.523438 10.648438 -9.871094 C 10.773438 -9.726562 10.875 -9.570312 10.941406 -9.402344 C 11.011719 -9.234375 11.050781 -9.054688 11.058594 -8.859375 C 11.070312 -8.699219 11.039062 -8.53125 10.964844 -8.347656 C 10.894531 -8.164062 10.785156 -8 10.636719 -7.855469 C 10.527344 -7.75 10.402344 -7.664062 10.253906 -7.589844 C 10.109375 -7.515625 9.953125 -7.476562 9.789062 -7.460938 C 9.625 -7.449219 9.453125 -7.472656 9.269531 -7.527344 C 9.085938 -7.582031 8.902344 -7.683594 8.722656 -7.835938 Z M 8.722656 -7.835938 "/></g></g></g><g fill="#f8f7f6" fill-opacity="1"><g transform="translate(131.744575, 27.420382)"><g><path d="M 0.554688 -5.785156 C 0.554688 -6.597656 0.714844 -7.367188 1.027344 -8.085938 C 1.339844 -8.808594 1.765625 -9.4375 2.300781 -9.972656 C 2.839844 -10.511719 3.46875 -10.9375 4.183594 -11.246094 C 4.898438 -11.550781 5.664062 -11.703125 6.488281 -11.703125 C 7.027344 -11.703125 7.550781 -11.632812 8.050781 -11.492188 C 8.554688 -11.347656 9.027344 -11.148438 9.46875 -10.894531 C 9.90625 -10.636719 10.304688 -10.328125 10.664062 -9.96875 C 11.023438 -9.605469 11.335938 -9.207031 11.59375 -8.765625 C 11.851562 -8.328125 12.050781 -7.859375 12.191406 -7.351562 C 12.335938 -6.847656 12.40625 -6.324219 12.40625 -5.785156 C 12.40625 -5.242188 12.335938 -4.71875 12.191406 -4.214844 C 12.050781 -3.710938 11.851562 -3.238281 11.59375 -2.800781 C 11.335938 -2.363281 11.023438 -1.964844 10.664062 -1.601562 C 10.304688 -1.238281 9.90625 -0.929688 9.46875 -0.675781 C 9.027344 -0.414062 8.554688 -0.210938 8.050781 -0.0742188 C 7.550781 0.0664062 7.027344 0.136719 6.488281 0.136719 C 5.664062 0.136719 4.898438 -0.0195312 4.183594 -0.328125 C 3.46875 -0.636719 2.839844 -1.0625 2.300781 -1.597656 C 1.765625 -2.132812 1.339844 -2.757812 1.027344 -3.480469 C 0.714844 -4.203125 0.554688 -4.96875 0.554688 -5.785156 Z M 3.421875 -5.757812 C 3.421875 -5.34375 3.5 -4.949219 3.664062 -4.574219 C 3.824219 -4.203125 4.042969 -3.871094 4.324219 -3.585938 C 4.597656 -3.304688 4.921875 -3.082031 5.292969 -2.910156 C 5.664062 -2.738281 6.0625 -2.65625 6.488281 -2.65625 C 6.90625 -2.65625 7.300781 -2.738281 7.671875 -2.90625 C 8.042969 -3.074219 8.367188 -3.300781 8.648438 -3.585938 C 8.921875 -3.871094 9.140625 -4.203125 9.300781 -4.585938 C 9.460938 -4.964844 9.542969 -5.363281 9.542969 -5.785156 C 9.542969 -6.203125 9.460938 -6.601562 9.300781 -6.980469 C 9.140625 -7.355469 8.921875 -7.683594 8.648438 -7.964844 C 8.367188 -8.25 8.042969 -8.472656 7.671875 -8.636719 C 7.300781 -8.796875 6.90625 -8.875 6.488281 -8.875 C 6.0625 -8.875 5.664062 -8.792969 5.292969 -8.628906 C 4.921875 -8.464844 4.597656 -8.242188 4.324219 -7.957031 C 4.042969 -7.675781 3.824219 -7.34375 3.664062 -6.960938 C 3.5 -6.578125 3.421875 -6.175781 3.421875 -5.757812 Z M 3.421875 -5.757812 "/></g></g></g><g fill="#f8f7f6" fill-opacity="1"><g transform="translate(146.542159, 27.420382)"><g><path d="M 0.574219 -4.660156 L 0.582031 -10.179688 C 0.578125 -10.261719 0.570312 -10.339844 0.554688 -10.417969 C 0.542969 -10.496094 0.527344 -10.578125 0.511719 -10.65625 C 0.46875 -10.800781 0.445312 -10.953125 0.445312 -11.113281 C 0.445312 -11.203125 0.460938 -11.285156 0.488281 -11.359375 C 0.515625 -11.429688 0.566406 -11.496094 0.636719 -11.550781 C 0.777344 -11.652344 1.027344 -11.703125 1.386719 -11.703125 C 1.65625 -11.703125 1.910156 -11.6875 2.152344 -11.648438 C 2.394531 -11.613281 2.609375 -11.539062 2.792969 -11.429688 C 2.972656 -11.320312 3.125 -11.167969 3.238281 -10.96875 C 3.355469 -10.773438 3.417969 -10.511719 3.429688 -10.191406 L 3.429688 -4.644531 C 3.429688 -4.351562 3.488281 -4.074219 3.597656 -3.8125 C 3.710938 -3.550781 3.871094 -3.324219 4.078125 -3.128906 C 4.285156 -2.929688 4.535156 -2.773438 4.832031 -2.660156 C 5.125 -2.546875 5.457031 -2.492188 5.820312 -2.492188 C 6.148438 -2.492188 6.460938 -2.546875 6.75 -2.660156 C 7.042969 -2.773438 7.296875 -2.929688 7.515625 -3.128906 C 7.730469 -3.324219 7.902344 -3.550781 8.027344 -3.8125 C 8.15625 -4.074219 8.21875 -4.351562 8.21875 -4.644531 L 8.203125 -10.179688 C 8.195312 -10.261719 8.1875 -10.339844 8.179688 -10.417969 C 8.167969 -10.496094 8.15625 -10.578125 8.136719 -10.65625 C 8.101562 -10.8125 8.082031 -10.964844 8.082031 -11.113281 C 8.082031 -11.203125 8.097656 -11.285156 8.125 -11.359375 C 8.152344 -11.429688 8.203125 -11.496094 8.273438 -11.550781 C 8.339844 -11.597656 8.433594 -11.636719 8.554688 -11.664062 C 8.671875 -11.691406 8.824219 -11.703125 9.015625 -11.703125 C 9.261719 -11.703125 9.511719 -11.6875 9.757812 -11.648438 C 10.003906 -11.613281 10.222656 -11.542969 10.417969 -11.441406 C 10.613281 -11.332031 10.769531 -11.175781 10.886719 -10.980469 C 11.007812 -10.78125 11.066406 -10.519531 11.066406 -10.191406 L 11.074219 -4.660156 C 11.070312 -4.207031 11 -3.765625 10.871094 -3.34375 C 10.738281 -2.921875 10.558594 -2.519531 10.328125 -2.144531 C 9.851562 -1.378906 9.226562 -0.773438 8.449219 -0.328125 C 8.058594 -0.109375 7.640625 0.0625 7.199219 0.183594 C 6.753906 0.304688 6.296875 0.363281 5.820312 0.363281 C 5.089844 0.363281 4.40625 0.234375 3.773438 -0.0273438 C 3.136719 -0.289062 2.582031 -0.648438 2.109375 -1.105469 C 1.632812 -1.554688 1.257812 -2.085938 0.984375 -2.695312 C 0.710938 -3.308594 0.574219 -3.960938 0.574219 -4.660156 Z M 0.574219 -4.660156 "/></g></g></g><g fill="#f8f7f6" fill-opacity="1"><g transform="translate(160.00778, 27.420382)"><g><path d="M 10.070312 -2.125 C 10.199219 -1.980469 10.289062 -1.820312 10.339844 -1.640625 C 10.394531 -1.464844 10.410156 -1.289062 10.390625 -1.113281 C 10.367188 -0.9375 10.3125 -0.765625 10.222656 -0.601562 C 10.132812 -0.4375 10.011719 -0.296875 9.851562 -0.171875 C 9.695312 -0.0507812 9.527344 0.0351562 9.355469 0.0820312 C 9.183594 0.128906 9.007812 0.144531 8.832031 0.117188 C 8.472656 0.0820312 8.164062 -0.0898438 7.910156 -0.402344 L 6.058594 -3.082031 C 5.984375 -3.078125 5.910156 -3.074219 5.839844 -3.070312 C 5.765625 -3.066406 5.691406 -3.066406 5.621094 -3.066406 L 4.105469 -3.066406 L 4.105469 -1.296875 C 4.105469 -1.09375 4.070312 -0.90625 3.996094 -0.734375 C 3.921875 -0.5625 3.824219 -0.410156 3.695312 -0.28125 C 3.425781 -0.00390625 3.089844 0.136719 2.683594 0.136719 C 2.269531 0.136719 1.929688 -0.00390625 1.660156 -0.28125 C 1.53125 -0.410156 1.433594 -0.5625 1.359375 -0.734375 C 1.285156 -0.90625 1.25 -1.09375 1.25 -1.296875 L 1.25 -10.28125 C 1.242188 -10.359375 1.234375 -10.441406 1.226562 -10.523438 C 1.21875 -10.605469 1.203125 -10.6875 1.1875 -10.765625 C 1.160156 -10.84375 1.144531 -10.921875 1.136719 -10.996094 C 1.125 -11.074219 1.121094 -11.144531 1.121094 -11.210938 C 1.121094 -11.304688 1.136719 -11.386719 1.164062 -11.457031 C 1.191406 -11.53125 1.242188 -11.59375 1.3125 -11.648438 C 1.453125 -11.753906 1.703125 -11.804688 2.0625 -11.804688 L 5.621094 -11.804688 C 6.246094 -11.804688 6.84375 -11.691406 7.40625 -11.464844 C 7.972656 -11.234375 8.472656 -10.921875 8.902344 -10.527344 C 9.335938 -10.125 9.679688 -9.65625 9.933594 -9.117188 C 10.191406 -8.582031 10.316406 -7.996094 10.316406 -7.371094 C 10.316406 -6.75 10.191406 -6.179688 9.933594 -5.652344 C 9.679688 -5.125 9.335938 -4.671875 8.902344 -4.289062 C 8.847656 -4.246094 8.792969 -4.203125 8.738281 -4.15625 C 8.683594 -4.109375 8.628906 -4.066406 8.574219 -4.023438 Z M 4.050781 -5.519531 L 5.621094 -5.519531 C 5.882812 -5.519531 6.128906 -5.5625 6.363281 -5.652344 C 6.597656 -5.738281 6.800781 -5.859375 6.96875 -6.011719 C 7.144531 -6.171875 7.28125 -6.355469 7.375 -6.574219 C 7.46875 -6.789062 7.515625 -7.027344 7.515625 -7.289062 C 7.515625 -7.550781 7.46875 -7.800781 7.375 -8.039062 C 7.28125 -8.273438 7.144531 -8.484375 6.96875 -8.667969 C 6.800781 -8.84375 6.597656 -8.984375 6.363281 -9.089844 C 6.128906 -9.199219 5.882812 -9.25 5.621094 -9.25 L 4.050781 -9.25 Z M 4.050781 -5.519531 "/></g></g></g><g fill="#f8f7f6" fill-opacity="1"><g transform="translate(172.579335, 27.420382)"><g><path d="M 7.1875 -7.992188 C 7.085938 -7.992188 6.984375 -7.996094 6.886719 -8.003906 C 6.789062 -8.015625 6.691406 -8.039062 6.597656 -8.074219 C 6.402344 -8.140625 6.183594 -8.277344 5.9375 -8.484375 C 5.691406 -8.722656 5.457031 -8.910156 5.246094 -9.050781 C 5.03125 -9.191406 4.804688 -9.261719 4.5625 -9.261719 C 4.433594 -9.261719 4.304688 -9.246094 4.167969 -9.214844 C 4.035156 -9.183594 3.914062 -9.136719 3.804688 -9.070312 C 3.695312 -9.007812 3.605469 -8.925781 3.535156 -8.828125 C 3.464844 -8.726562 3.429688 -8.617188 3.429688 -8.492188 C 3.429688 -8.316406 3.507812 -8.15625 3.667969 -8.011719 C 3.824219 -7.863281 4.03125 -7.722656 4.289062 -7.582031 C 4.414062 -7.507812 4.550781 -7.433594 4.699219 -7.363281 C 4.84375 -7.289062 5.003906 -7.214844 5.171875 -7.144531 C 5.5 -6.992188 5.835938 -6.828125 6.175781 -6.65625 C 6.515625 -6.480469 6.855469 -6.292969 7.1875 -6.085938 C 7.515625 -5.878906 7.808594 -5.644531 8.066406 -5.378906 C 8.320312 -5.113281 8.527344 -4.820312 8.683594 -4.496094 C 8.84375 -4.164062 8.921875 -3.792969 8.921875 -3.382812 C 8.921875 -2.789062 8.785156 -2.269531 8.511719 -1.828125 C 8.238281 -1.386719 7.886719 -1.023438 7.460938 -0.730469 C 7.035156 -0.433594 6.570312 -0.210938 6.058594 -0.0625 C 5.546875 0.0820312 5.050781 0.15625 4.570312 0.15625 C 3.863281 0.15625 3.257812 0.0703125 2.746094 -0.0976562 C 2.234375 -0.261719 1.808594 -0.476562 1.46875 -0.738281 C 1.132812 -0.996094 0.878906 -1.277344 0.699219 -1.59375 C 0.519531 -1.90625 0.414062 -2.207031 0.382812 -2.5 C 0.378906 -2.683594 0.398438 -2.855469 0.453125 -3.023438 C 0.503906 -3.191406 0.582031 -3.335938 0.695312 -3.457031 C 0.796875 -3.578125 0.925781 -3.675781 1.082031 -3.75 C 1.234375 -3.824219 1.414062 -3.859375 1.613281 -3.859375 C 1.820312 -3.859375 2.027344 -3.808594 2.234375 -3.703125 C 2.441406 -3.601562 2.660156 -3.453125 2.890625 -3.257812 C 2.976562 -3.152344 3.085938 -3.058594 3.214844 -2.972656 C 3.347656 -2.890625 3.488281 -2.8125 3.640625 -2.746094 C 3.949219 -2.605469 4.261719 -2.535156 4.570312 -2.535156 C 4.722656 -2.535156 4.875 -2.554688 5.03125 -2.589844 C 5.1875 -2.628906 5.324219 -2.683594 5.445312 -2.753906 C 5.566406 -2.820312 5.667969 -2.910156 5.746094 -3.015625 C 5.828125 -3.121094 5.867188 -3.246094 5.867188 -3.394531 C 5.867188 -3.546875 5.792969 -3.6875 5.644531 -3.8125 C 5.492188 -3.941406 5.300781 -4.070312 5.0625 -4.195312 C 4.941406 -4.257812 4.8125 -4.320312 4.675781 -4.382812 C 4.539062 -4.449219 4.390625 -4.511719 4.234375 -4.578125 C 3.921875 -4.714844 3.605469 -4.859375 3.28125 -5.023438 C 2.953125 -5.183594 2.636719 -5.363281 2.328125 -5.566406 C 2.015625 -5.765625 1.742188 -6 1.5 -6.261719 C 1.261719 -6.527344 1.066406 -6.828125 0.921875 -7.160156 C 0.769531 -7.488281 0.695312 -7.875 0.695312 -8.3125 C 0.695312 -8.816406 0.789062 -9.277344 0.984375 -9.691406 C 1.179688 -10.109375 1.453125 -10.46875 1.804688 -10.765625 C 2.164062 -11.0625 2.59375 -11.292969 3.097656 -11.457031 C 3.597656 -11.621094 4.164062 -11.703125 4.789062 -11.703125 C 5.046875 -11.703125 5.316406 -11.675781 5.601562 -11.613281 C 5.886719 -11.554688 6.171875 -11.472656 6.449219 -11.367188 C 6.730469 -11.257812 6.996094 -11.125 7.253906 -10.96875 C 7.507812 -10.816406 7.734375 -10.644531 7.929688 -10.457031 C 8.121094 -10.265625 8.277344 -10.0625 8.394531 -9.84375 C 8.507812 -9.625 8.566406 -9.398438 8.566406 -9.160156 C 8.566406 -8.941406 8.53125 -8.757812 8.460938 -8.609375 C 8.390625 -8.457031 8.296875 -8.339844 8.175781 -8.246094 C 8.050781 -8.15625 7.910156 -8.089844 7.742188 -8.050781 C 7.574219 -8.011719 7.390625 -7.992188 7.1875 -7.992188 Z M 7.1875 -7.992188 "/></g></g></g><g fill="#f8f7f6" fill-opacity="1"><g transform="translate(183.828064, 27.420382)"><g><path d="M 10.035156 -1.296875 C 10.035156 -1.089844 9.996094 -0.898438 9.921875 -0.726562 C 9.84375 -0.550781 9.742188 -0.402344 9.605469 -0.273438 C 9.472656 -0.144531 9.316406 -0.046875 9.136719 0.0273438 C 8.957031 0.101562 8.765625 0.136719 8.566406 0.136719 L 2.753906 0.136719 C 2.535156 0.136719 2.335938 0.0976562 2.148438 0.0234375 C 1.964844 -0.0546875 1.804688 -0.15625 1.679688 -0.292969 C 1.398438 -0.570312 1.257812 -0.933594 1.257812 -1.378906 L 1.257812 -10.152344 C 1.253906 -10.234375 1.242188 -10.3125 1.230469 -10.394531 C 1.21875 -10.476562 1.203125 -10.558594 1.1875 -10.636719 C 1.144531 -10.789062 1.121094 -10.949219 1.121094 -11.113281 C 1.121094 -11.203125 1.132812 -11.285156 1.160156 -11.359375 C 1.183594 -11.429688 1.230469 -11.496094 1.304688 -11.550781 C 1.371094 -11.597656 1.460938 -11.636719 1.578125 -11.667969 C 1.695312 -11.699219 1.84375 -11.714844 2.023438 -11.714844 L 8.574219 -11.714844 C 8.886719 -11.714844 9.144531 -11.648438 9.351562 -11.511719 C 9.558594 -11.378906 9.714844 -11.210938 9.824219 -11.011719 C 9.929688 -10.804688 9.980469 -10.585938 9.984375 -10.351562 C 9.988281 -10.117188 9.9375 -9.898438 9.835938 -9.699219 C 9.730469 -9.492188 9.578125 -9.320312 9.371094 -9.1875 C 9.164062 -9.054688 8.902344 -8.984375 8.585938 -8.984375 L 4.105469 -8.984375 L 4.105469 -7.097656 L 7.433594 -7.097656 C 7.65625 -7.097656 7.859375 -7.042969 8.046875 -6.9375 C 8.234375 -6.832031 8.394531 -6.695312 8.519531 -6.53125 C 8.644531 -6.363281 8.71875 -6.167969 8.753906 -5.953125 C 8.789062 -5.738281 8.757812 -5.519531 8.667969 -5.300781 C 8.5625 -5.039062 8.402344 -4.835938 8.1875 -4.6875 C 7.972656 -4.542969 7.722656 -4.46875 7.433594 -4.46875 L 4.105469 -4.46875 L 4.105469 -2.726562 L 8.558594 -2.726562 C 8.976562 -2.726562 9.328125 -2.597656 9.605469 -2.335938 C 9.742188 -2.207031 9.84375 -2.054688 9.921875 -1.878906 C 9.996094 -1.703125 10.035156 -1.507812 10.035156 -1.296875 Z M 10.035156 -1.296875 "/></g></g></g><g fill="#f8f7f6" fill-opacity="1"><g transform="translate(196.171544, 27.420382)"><g><path d="M 7.1875 -7.992188 C 7.085938 -7.992188 6.984375 -7.996094 6.886719 -8.003906 C 6.789062 -8.015625 6.691406 -8.039062 6.597656 -8.074219 C 6.402344 -8.140625 6.183594 -8.277344 5.9375 -8.484375 C 5.691406 -8.722656 5.457031 -8.910156 5.246094 -9.050781 C 5.03125 -9.191406 4.804688 -9.261719 4.5625 -9.261719 C 4.433594 -9.261719 4.304688 -9.246094 4.167969 -9.214844 C 4.035156 -9.183594 3.914062 -9.136719 3.804688 -9.070312 C 3.695312 -9.007812 3.605469 -8.925781 3.535156 -8.828125 C 3.464844 -8.726562 3.429688 -8.617188 3.429688 -8.492188 C 3.429688 -8.316406 3.507812 -8.15625 3.667969 -8.011719 C 3.824219 -7.863281 4.03125 -7.722656 4.289062 -7.582031 C 4.414062 -7.507812 4.550781 -7.433594 4.699219 -7.363281 C 4.84375 -7.289062 5.003906 -7.214844 5.171875 -7.144531 C 5.5 -6.992188 5.835938 -6.828125 6.175781 -6.65625 C 6.515625 -6.480469 6.855469 -6.292969 7.1875 -6.085938 C 7.515625 -5.878906 7.808594 -5.644531 8.066406 -5.378906 C 8.320312 -5.113281 8.527344 -4.820312 8.683594 -4.496094 C 8.84375 -4.164062 8.921875 -3.792969 8.921875 -3.382812 C 8.921875 -2.789062 8.785156 -2.269531 8.511719 -1.828125 C 8.238281 -1.386719 7.886719 -1.023438 7.460938 -0.730469 C 7.035156 -0.433594 6.570312 -0.210938 6.058594 -0.0625 C 5.546875 0.0820312 5.050781 0.15625 4.570312 0.15625 C 3.863281 0.15625 3.257812 0.0703125 2.746094 -0.0976562 C 2.234375 -0.261719 1.808594 -0.476562 1.46875 -0.738281 C 1.132812 -0.996094 0.878906 -1.277344 0.699219 -1.59375 C 0.519531 -1.90625 0.414062 -2.207031 0.382812 -2.5 C 0.378906 -2.683594 0.398438 -2.855469 0.453125 -3.023438 C 0.503906 -3.191406 0.582031 -3.335938 0.695312 -3.457031 C 0.796875 -3.578125 0.925781 -3.675781 1.082031 -3.75 C 1.234375 -3.824219 1.414062 -3.859375 1.613281 -3.859375 C 1.820312 -3.859375 2.027344 -3.808594 2.234375 -3.703125 C 2.441406 -3.601562 2.660156 -3.453125 2.890625 -3.257812 C 2.976562 -3.152344 3.085938 -3.058594 3.214844 -2.972656 C 3.347656 -2.890625 3.488281 -2.8125 3.640625 -2.746094 C 3.949219 -2.605469 4.261719 -2.535156 4.570312 -2.535156 C 4.722656 -2.535156 4.875 -2.554688 5.03125 -2.589844 C 5.1875 -2.628906 5.324219 -2.683594 5.445312 -2.753906 C 5.566406 -2.820312 5.667969 -2.910156 5.746094 -3.015625 C 5.828125 -3.121094 5.867188 -3.246094 5.867188 -3.394531 C 5.867188 -3.546875 5.792969 -3.6875 5.644531 -3.8125 C 5.492188 -3.941406 5.300781 -4.070312 5.0625 -4.195312 C 4.941406 -4.257812 4.8125 -4.320312 4.675781 -4.382812 C 4.539062 -4.449219 4.390625 -4.511719 4.234375 -4.578125 C 3.921875 -4.714844 3.605469 -4.859375 3.28125 -5.023438 C 2.953125 -5.183594 2.636719 -5.363281 2.328125 -5.566406 C 2.015625 -5.765625 1.742188 -6 1.5 -6.261719 C 1.261719 -6.527344 1.066406 -6.828125 0.921875 -7.160156 C 0.769531 -7.488281 0.695312 -7.875 0.695312 -8.3125 C 0.695312 -8.816406 0.789062 -9.277344 0.984375 -9.691406 C 1.179688 -10.109375 1.453125 -10.46875 1.804688 -10.765625 C 2.164062 -11.0625 2.59375 -11.292969 3.097656 -11.457031 C 3.597656 -11.621094 4.164062 -11.703125 4.789062 -11.703125 C 5.046875 -11.703125 5.316406 -11.675781 5.601562 -11.613281 C 5.886719 -11.554688 6.171875 -11.472656 6.449219 -11.367188 C 6.730469 -11.257812 6.996094 -11.125 7.253906 -10.96875 C 7.507812 -10.816406 7.734375 -10.644531 7.929688 -10.457031 C 8.121094 -10.265625 8.277344 -10.0625 8.394531 -9.84375 C 8.507812 -9.625 8.566406 -9.398438 8.566406 -9.160156 C 8.566406 -8.941406 8.53125 -8.757812 8.460938 -8.609375 C 8.390625 -8.457031 8.296875 -8.339844 8.175781 -8.246094 C 8.050781 -8.15625 7.910156 -8.089844 7.742188 -8.050781 C 7.574219 -8.011719 7.390625 -7.992188 7.1875 -7.992188 Z M 7.1875 -7.992188 "/></g></g></g></svg>