<svg xmlns="http://www.w3.org/2000/svg" xmlns:xlink="http://www.w3.org/1999/xlink" width="300" zoomAndPan="magnify" viewBox="0 0 224.87999 44.999999" height="60" preserveAspectRatio="xMidYMid meet" version="1.0"><defs><g/><clipPath id="415550b871"><path d="M 3 0.0117188 L 221.867188 0.0117188 L 221.867188 44.683594 L 3 44.683594 Z M 3 0.0117188 " clip-rule="nonzero"/></clipPath></defs><g clip-path="url(#415550b871)"><path fill="#270c6d" d="M 7.605469 8.273438 C 2.296875 13.546875 2.839844 27.53125 6.089844 34.585938 C 8.511719 39.835938 15 41.304688 19.992188 42.308594 C 37.707031 45.863281 55.929688 45.574219 73.882812 45.308594 C 101.222656 44.902344 128.550781 43.980469 155.890625 43.621094 C 168.699219 43.453125 181.507812 43.640625 194.316406 43.730469 C 199.675781 43.769531 205.328125 44.59375 210.546875 42.789062 C 219.53125 39.679688 221.464844 28.597656 222.207031 20.375 C 222.542969 16.632812 223.378906 11.46875 219.816406 8.742188 C 214.335938 4.542969 206.875 4.554688 200.40625 3.945312 C 179.910156 2 180.023438 1.875 159.339844 1.273438 C 143.207031 0.800781 118.183594 0.316406 102.042969 0.695312 C 91.367188 0.945312 80.703125 1.574219 70.035156 2.085938 C 59.382812 2.597656 49.828125 1.351562 39.171875 1.710938 C 28.421875 2.070312 13.117188 2.792969 7.605469 8.273438 Z M 7.605469 8.273438 " fill-opacity="1" fill-rule="evenodd"/></g><g fill="#ffffff" fill-opacity="1"><g transform="translate(57.174293, 25.873197)"><g><path d="M 6.5625 -1.875 C 6.882812 -1.875 7.109375 -1.90625 7.234375 -1.96875 L 7.265625 -1.953125 L 7.1875 0 L 1.34375 0 L 1.34375 -10.4375 C 1.476562 -10.425781 1.632812 -10.414062 1.8125 -10.40625 L 2.359375 -10.390625 C 2.722656 -10.378906 3.117188 -10.375 3.546875 -10.375 C 4.734375 -10.375 5.910156 -10.394531 7.078125 -10.4375 C 7.023438 -9.976562 7 -9.367188 7 -8.609375 C 7 -8.523438 7.003906 -8.460938 7.015625 -8.421875 L 7 -8.390625 C 6.726562 -8.472656 6.34375 -8.515625 5.84375 -8.515625 L 3.375 -8.515625 L 3.375 -6.53125 L 5.234375 -6.53125 C 5.804688 -6.53125 6.148438 -6.546875 6.265625 -6.578125 L 6.28125 -4.640625 C 6.03125 -4.671875 5.707031 -4.6875 5.3125 -4.6875 L 3.375 -4.6875 L 3.375 -1.875 Z M 6.5625 -1.875 "/></g></g></g><g fill="#ffffff" fill-opacity="1"><g transform="translate(65.183687, 25.873197)"><g><path d="M 1.40625 0 C 1.4375 -0.175781 1.453125 -0.367188 1.453125 -0.578125 L 1.453125 -10.375 L 3.015625 -10.375 L 7.15625 -3.875 L 7.15625 -9.84375 C 7.15625 -10.132812 7.128906 -10.3125 7.078125 -10.375 L 9.1875 -10.375 C 9.15625 -10.164062 9.140625 -9.9375 9.140625 -9.6875 L 9.140625 0 L 7.53125 0 L 3.453125 -6.25 L 3.453125 0 Z M 1.40625 0 "/></g></g></g><g fill="#ffffff" fill-opacity="1"><g transform="translate(75.792626, 25.873197)"><g><path d="M 7.171875 0.046875 C 6.734375 0.140625 6.226562 0.1875 5.65625 0.1875 C 5.082031 0.1875 4.472656 0.0664062 3.828125 -0.171875 C 3.191406 -0.421875 2.640625 -0.773438 2.171875 -1.234375 C 1.148438 -2.203125 0.640625 -3.445312 0.640625 -4.96875 C 0.640625 -6.507812 1.132812 -7.816406 2.125 -8.890625 C 3.164062 -10.015625 4.492188 -10.578125 6.109375 -10.578125 C 7.566406 -10.578125 8.78125 -10.113281 9.75 -9.1875 C 10.78125 -8.195312 11.296875 -6.898438 11.296875 -5.296875 C 11.296875 -4.015625 10.929688 -2.890625 10.203125 -1.921875 C 9.972656 -1.617188 9.71875 -1.347656 9.4375 -1.109375 C 9.625 -1.054688 9.847656 -0.972656 10.109375 -0.859375 C 10.679688 -0.585938 11.21875 -0.445312 11.71875 -0.4375 L 11.875 -0.4375 C 12.144531 -0.4375 12.328125 -0.472656 12.421875 -0.546875 L 12.453125 -0.53125 L 11.859375 0.953125 C 11.785156 1.179688 11.644531 1.296875 11.4375 1.296875 C 11.144531 1.296875 10.84375 1.234375 10.53125 1.109375 C 10.226562 0.984375 9.953125 0.863281 9.703125 0.75 C 9.460938 0.644531 9.234375 0.550781 9.015625 0.46875 C 8.796875 0.382812 8.585938 0.3125 8.390625 0.25 C 8.054688 0.15625 7.648438 0.0859375 7.171875 0.046875 Z M 2.734375 -5.0625 C 2.734375 -4.570312 2.816406 -4.117188 2.984375 -3.703125 C 3.148438 -3.296875 3.382812 -2.941406 3.6875 -2.640625 C 4.320312 -1.992188 5.117188 -1.671875 6.078125 -1.671875 C 6.992188 -1.671875 7.738281 -1.984375 8.3125 -2.609375 C 8.90625 -3.242188 9.203125 -4.082031 9.203125 -5.125 C 9.203125 -6.113281 8.921875 -6.941406 8.359375 -7.609375 C 7.753906 -8.304688 6.953125 -8.65625 5.953125 -8.65625 C 4.972656 -8.65625 4.179688 -8.300781 3.578125 -7.59375 C 3.015625 -6.914062 2.734375 -6.070312 2.734375 -5.0625 Z M 2.734375 -5.0625 "/></g></g></g><g fill="#ffffff" fill-opacity="1"><g transform="translate(87.775496, 25.873197)"><g><path d="M 7.265625 -10.421875 C 7.585938 -10.390625 7.851562 -10.375 8.0625 -10.375 L 8.703125 -10.375 C 8.921875 -10.375 9.148438 -10.394531 9.390625 -10.4375 L 9.390625 -3.984375 C 9.390625 -2.703125 9.003906 -1.675781 8.234375 -0.90625 C 7.503906 -0.175781 6.582031 0.1875 5.46875 0.1875 C 4.257812 0.1875 3.28125 -0.125 2.53125 -0.75 C 1.6875 -1.457031 1.265625 -2.476562 1.265625 -3.8125 L 1.265625 -10.421875 C 1.703125 -10.390625 2.109375 -10.375 2.484375 -10.375 C 2.867188 -10.375 3.1875 -10.394531 3.4375 -10.4375 L 3.4375 -3.703125 C 3.4375 -3.046875 3.640625 -2.535156 4.046875 -2.171875 C 4.421875 -1.835938 4.890625 -1.671875 5.453125 -1.671875 C 6.285156 -1.671875 6.835938 -2.097656 7.109375 -2.953125 C 7.210938 -3.265625 7.265625 -3.644531 7.265625 -4.09375 Z M 7.265625 -10.421875 "/></g></g></g><g fill="#ffffff" fill-opacity="1"><g transform="translate(98.454687, 25.873197)"><g><path d="M 1.578125 -10.40625 C 2.097656 -10.382812 2.414062 -10.375 2.53125 -10.375 L 3.09375 -10.375 C 3.363281 -10.375 3.582031 -10.394531 3.75 -10.4375 L 3.75 0 L 1.578125 0 Z M 1.578125 -10.40625 "/></g></g></g><g fill="#ffffff" fill-opacity="1"><g transform="translate(103.794283, 25.873197)"><g><path d="M 4.703125 -4.03125 C 4.546875 -4.019531 4.378906 -4.015625 4.203125 -4.015625 C 4.023438 -4.015625 3.757812 -4.03125 3.40625 -4.0625 L 3.40625 0 L 1.34375 0 L 1.34375 -10.4375 C 2.070312 -10.53125 2.96875 -10.578125 4.03125 -10.578125 C 5.476562 -10.578125 6.554688 -10.304688 7.265625 -9.765625 C 7.972656 -9.234375 8.328125 -8.414062 8.328125 -7.3125 C 8.328125 -6.445312 8.003906 -5.707031 7.359375 -5.09375 C 7.140625 -4.894531 6.894531 -4.722656 6.625 -4.578125 L 8.203125 -1.21875 C 8.515625 -0.519531 8.753906 -0.109375 8.921875 0.015625 L 8.890625 0.046875 C 8.378906 -0.0234375 7.585938 -0.0195312 6.515625 0.0625 Z M 4.171875 -8.734375 C 3.910156 -8.734375 3.65625 -8.71875 3.40625 -8.6875 L 3.40625 -5.71875 C 3.664062 -5.675781 3.96875 -5.65625 4.3125 -5.65625 C 4.65625 -5.65625 4.941406 -5.6875 5.171875 -5.75 C 5.410156 -5.8125 5.613281 -5.90625 5.78125 -6.03125 C 6.15625 -6.300781 6.34375 -6.710938 6.34375 -7.265625 C 6.34375 -7.816406 6.148438 -8.203125 5.765625 -8.421875 C 5.398438 -8.628906 4.867188 -8.734375 4.171875 -8.734375 Z M 4.171875 -8.734375 "/></g></g></g><g fill="#ffffff" fill-opacity="1"><g transform="translate(113.107355, 25.873197)"><g><path d="M 6.5625 -1.875 C 6.882812 -1.875 7.109375 -1.90625 7.234375 -1.96875 L 7.265625 -1.953125 L 7.1875 0 L 1.34375 0 L 1.34375 -10.4375 C 1.476562 -10.425781 1.632812 -10.414062 1.8125 -10.40625 L 2.359375 -10.390625 C 2.722656 -10.378906 3.117188 -10.375 3.546875 -10.375 C 4.734375 -10.375 5.910156 -10.394531 7.078125 -10.4375 C 7.023438 -9.976562 7 -9.367188 7 -8.609375 C 7 -8.523438 7.003906 -8.460938 7.015625 -8.421875 L 7 -8.390625 C 6.726562 -8.472656 6.34375 -8.515625 5.84375 -8.515625 L 3.375 -8.515625 L 3.375 -6.53125 L 5.234375 -6.53125 C 5.804688 -6.53125 6.148438 -6.546875 6.265625 -6.578125 L 6.28125 -4.640625 C 6.03125 -4.671875 5.707031 -4.6875 5.3125 -4.6875 L 3.375 -4.6875 L 3.375 -1.875 Z M 6.5625 -1.875 "/></g></g></g><g fill="#ffffff" fill-opacity="1"><g transform="translate(121.116748, 25.873197)"><g/></g></g><g fill="#ffffff" fill-opacity="1"><g transform="translate(126.417318, 25.873197)"><g><path d="M 1.40625 0 C 1.4375 -0.175781 1.453125 -0.367188 1.453125 -0.578125 L 1.453125 -10.375 L 3.015625 -10.375 L 7.15625 -3.875 L 7.15625 -9.84375 C 7.15625 -10.132812 7.128906 -10.3125 7.078125 -10.375 L 9.1875 -10.375 C 9.15625 -10.164062 9.140625 -9.9375 9.140625 -9.6875 L 9.140625 0 L 7.53125 0 L 3.453125 -6.25 L 3.453125 0 Z M 1.40625 0 "/></g></g></g><g fill="#ffffff" fill-opacity="1"><g transform="translate(137.026257, 25.873197)"><g><path d="M 2.1875 -1.21875 C 1.71875 -1.675781 1.34375 -2.222656 1.0625 -2.859375 C 0.789062 -3.492188 0.65625 -4.191406 0.65625 -4.953125 C 0.65625 -5.710938 0.78125 -6.425781 1.03125 -7.09375 C 1.289062 -7.769531 1.65625 -8.363281 2.125 -8.875 C 2.601562 -9.394531 3.175781 -9.804688 3.84375 -10.109375 C 4.519531 -10.421875 5.273438 -10.578125 6.109375 -10.578125 C 7.546875 -10.578125 8.753906 -10.125 9.734375 -9.21875 C 10.785156 -8.25 11.3125 -6.941406 11.3125 -5.296875 C 11.3125 -3.703125 10.769531 -2.378906 9.6875 -1.328125 C 9.019531 -0.671875 8.226562 -0.222656 7.3125 0.015625 C 6.863281 0.128906 6.332031 0.1875 5.71875 0.1875 C 5.113281 0.1875 4.492188 0.0664062 3.859375 -0.171875 C 3.222656 -0.421875 2.664062 -0.769531 2.1875 -1.21875 Z M 2.828125 -5.0625 C 2.828125 -4.570312 2.90625 -4.125 3.0625 -3.71875 C 3.226562 -3.3125 3.457031 -2.960938 3.75 -2.671875 C 4.351562 -2.054688 5.132812 -1.75 6.09375 -1.75 C 7.007812 -1.75 7.738281 -2.046875 8.28125 -2.640625 C 8.84375 -3.242188 9.125 -4.070312 9.125 -5.125 C 9.125 -6.113281 8.859375 -6.941406 8.328125 -7.609375 C 7.753906 -8.304688 6.960938 -8.65625 5.953125 -8.65625 C 4.984375 -8.65625 4.210938 -8.300781 3.640625 -7.59375 C 3.097656 -6.914062 2.828125 -6.070312 2.828125 -5.0625 Z M 2.828125 -5.0625 "/></g></g></g><g fill="#ffffff" fill-opacity="1"><g transform="translate(149.009127, 25.873197)"><g><path d="M 5.0625 0.03125 C 4.90625 0.0078125 4.640625 0 4.265625 0 L 3.359375 0 C 3.179688 0 3.035156 0.00390625 2.921875 0.015625 L 2.90625 0 C 2.925781 -0.03125 2.9375 -0.0664062 2.9375 -0.109375 C 2.9375 -0.160156 2.929688 -0.210938 2.921875 -0.265625 C 2.921875 -0.316406 2.898438 -0.410156 2.859375 -0.546875 C 2.828125 -0.679688 2.78125 -0.878906 2.71875 -1.140625 L 0.0625 -10.40625 C 0.394531 -10.382812 0.796875 -10.375 1.265625 -10.375 C 1.742188 -10.375 2.050781 -10.394531 2.1875 -10.4375 L 4.03125 -3.375 L 5.828125 -10.40625 C 5.910156 -10.40625 5.984375 -10.398438 6.046875 -10.390625 L 6.21875 -10.390625 C 6.382812 -10.378906 6.597656 -10.375 6.859375 -10.375 C 7.117188 -10.375 7.390625 -10.394531 7.671875 -10.4375 L 9.484375 -3.375 L 11.0625 -10.40625 C 11.375 -10.382812 11.78125 -10.375 12.28125 -10.375 C 12.789062 -10.375 13.097656 -10.394531 13.203125 -10.4375 L 10.953125 -2.203125 C 10.671875 -1.253906 10.519531 -0.691406 10.5 -0.515625 C 10.488281 -0.335938 10.484375 -0.210938 10.484375 -0.140625 C 10.484375 -0.078125 10.492188 -0.03125 10.515625 0 L 10.5 0.03125 C 10.332031 0.0078125 10.066406 0 9.703125 0 C 9.390625 0 9.101562 0 8.84375 0 C 8.59375 0 8.410156 0.00390625 8.296875 0.015625 L 8.296875 0 C 8.316406 -0.03125 8.328125 -0.0664062 8.328125 -0.109375 C 8.328125 -0.160156 8.320312 -0.207031 8.3125 -0.25 C 8.3125 -0.300781 8.296875 -0.394531 8.265625 -0.53125 C 8.242188 -0.664062 8.207031 -0.863281 8.15625 -1.125 L 7.953125 -2.1875 L 6.671875 -7.046875 L 5.453125 -2.203125 C 5.203125 -1.210938 5.070312 -0.640625 5.0625 -0.484375 C 5.039062 -0.203125 5.046875 -0.0390625 5.078125 0 Z M 5.0625 0.03125 "/></g></g></g><g fill="#ffffff" fill-opacity="1"><g transform="translate(162.358116, 25.873197)"><g><path d="M 3.65625 -2.921875 C 3.382812 -2.953125 2.925781 -2.96875 2.28125 -2.96875 L 1.65625 -2.96875 L 1.640625 -10.59375 L 2.359375 -10.5625 L 2.53125 -10.5625 C 3.132812 -10.5625 3.519531 -10.582031 3.6875 -10.625 Z M 3.703125 -1.875 C 3.679688 -1.613281 3.671875 -1.28125 3.671875 -0.875 C 3.671875 -0.46875 3.679688 -0.175781 3.703125 0 L 1.625 0 C 1.664062 -0.320312 1.6875 -0.640625 1.6875 -0.953125 C 1.6875 -1.265625 1.671875 -1.570312 1.640625 -1.875 Z M 3.703125 -1.875 "/></g></g></g></svg>