<svg xmlns="http://www.w3.org/2000/svg" xmlns:xlink="http://www.w3.org/1999/xlink" width="600" zoomAndPan="magnify" viewBox="0 0 450 74.999997" height="100" preserveAspectRatio="xMidYMid meet" version="1.0"><defs><clipPath id="adb27f05d0"><path d="M 184 0 L 450 0 L 450 68 L 184 68 Z M 184 0 " clip-rule="nonzero"/></clipPath><clipPath id="6cbca62b0d"><path d="M 463.441406 66.390625 L 168.355469 81.980469 L 164.160156 2.589844 L 459.246094 -13 Z M 463.441406 66.390625 " clip-rule="nonzero"/></clipPath><clipPath id="4d44dab2cd"><path d="M 459.230469 -13.351562 L 164.140625 2.238281 L 168.335938 81.628906 L 463.421875 66.039062 Z M 459.230469 -13.351562 " clip-rule="nonzero"/></clipPath></defs><path fill="#f8f7f6" d="M 15.683594 61.582031 C 26.4375 67.203125 52.5625 64.90625 63.445312 65.980469 C 113.058594 70.875 162.644531 78.019531 212.554688 70.796875 C 234.511719 67.621094 280.96875 59.476562 254.253906 28.871094 C 251.410156 25.613281 248.332031 22.117188 244.5 19.972656 C 223.214844 8.058594 178.074219 19.164062 153.789062 19.046875 C 131.96875 18.945312 110.597656 15.023438 89.441406 9.835938 C 70.1875 5.113281 50.585938 -1.042969 30.496094 1.273438 C 20.664062 2.410156 8.441406 4.660156 0.453125 10.882812 C -4.722656 14.914062 -5.992188 20.265625 -7.5 26.40625 C -11.578125 43.039062 1.90625 54.378906 15.683594 61.582031 Z M 15.683594 61.582031 " fill-opacity="1" fill-rule="evenodd"/><g clip-path="url(#adb27f05d0)"><g clip-path="url(#6cbca62b0d)"><g clip-path="url(#4d44dab2cd)"><path fill="#f8f7f6" d="M 432.449219 4.6875 C 421.308594 -0.40625 395.078125 3.300781 384.046875 2.796875 C 333.75 0.503906 283.363281 -4.058594 233.410156 5.882812 C 211.4375 10.257812 165.015625 20.945312 193.589844 50.390625 C 196.632812 53.527344 199.921875 56.886719 203.898438 58.84375 C 226 69.726562 270.9375 56.121094 295.433594 54.945312 C 317.445312 53.886719 339.210938 56.703125 360.824219 60.804688 C 380.492188 64.542969 400.585938 69.707031 420.722656 66.300781 C 430.582031 64.632812 442.789062 61.710938 450.511719 55.007812 C 455.515625 50.667969 456.515625 45.203125 457.707031 38.929688 C 460.933594 21.9375 446.730469 11.21875 432.449219 4.6875 Z M 432.449219 4.6875 " fill-opacity="1" fill-rule="evenodd"/></g></g></g></svg>