<svg xmlns="http://www.w3.org/2000/svg" xmlns:xlink="http://www.w3.org/1999/xlink" width="600" zoomAndPan="magnify" viewBox="0 0 450 44.999999" height="60" preserveAspectRatio="xMidYMid meet" version="1.0"><path fill="#f8f7f6" d="M 255.167969 3.59375 C 242.675781 2.320312 230.332031 6.128906 221.761719 16.617188 C 216.464844 23.097656 214.449219 33.5 219.433594 40.257812 C 223.648438 45.96875 231.265625 47.308594 238.070312 46.949219 C 252.34375 46.1875 266.582031 46.824219 280.546875 42.960938 C 287.703125 40.976562 295.867188 37.351562 303.257812 36.996094 C 312.675781 36.550781 321.117188 43.839844 330.554688 44.160156 C 337.558594 44.394531 344.15625 40.757812 351.117188 39.808594 C 361.960938 38.328125 372.507812 43.425781 383.191406 45.886719 C 401.039062 50.003906 420.324219 46.496094 435.882812 36.316406 C 442.996094 31.660156 449.976562 23.910156 448.5 15.167969 C 447.472656 9.058594 442.289062 4.390625 436.628906 2.945312 C 425.242188 0.046875 417.429688 6.136719 407.640625 10.617188 C 396.976562 15.515625 385.179688 17.707031 373.605469 16.589844 C 356.234375 14.933594 340.777344 4.746094 322.878906 6.394531 C 315.789062 7.046875 308.914062 9.3125 301.910156 10.714844 C 293.777344 12.339844 286.449219 12.105469 278.761719 8.835938 C 272.910156 6.320312 266.8125 4.75 260.46875 4.128906 C 258.746094 3.949219 256.96875 3.757812 255.167969 3.59375 Z M 255.167969 3.59375 " fill-opacity="1" fill-rule="nonzero"/><path fill="#f8f7f6" d="M 75.527344 5.09375 C 63.035156 3.820312 50.691406 7.628906 42.117188 18.117188 C 36.820312 24.597656 34.808594 35 39.792969 41.757812 C 44.007812 47.46875 51.621094 48.808594 58.429688 48.449219 C 72.703125 47.6875 86.9375 48.324219 100.902344 44.460938 C 108.058594 42.476562 116.222656 38.851562 123.617188 38.496094 C 133.03125 38.050781 141.476562 45.339844 150.914062 45.660156 C 157.914062 45.894531 164.515625 42.257812 171.476562 41.308594 C 182.320312 39.828125 192.867188 44.925781 203.550781 47.386719 C 221.394531 51.503906 240.683594 47.996094 256.242188 37.816406 C 263.351562 33.160156 270.332031 25.410156 268.859375 16.667969 C 267.828125 10.558594 262.648438 5.890625 256.984375 4.445312 C 245.597656 1.546875 237.785156 7.636719 227.996094 12.117188 C 217.332031 17.015625 205.535156 19.207031 193.964844 18.089844 C 176.59375 16.433594 161.132812 6.246094 143.238281 7.894531 C 136.148438 8.546875 129.269531 10.8125 122.269531 12.214844 C 114.136719 13.839844 106.804688 13.605469 99.121094 10.335938 C 93.265625 7.820312 87.167969 6.25 80.828125 5.628906 C 79.105469 5.449219 77.328125 5.257812 75.527344 5.09375 Z M 75.527344 5.09375 " fill-opacity="1" fill-rule="nonzero"/><path fill="#f8f7f6" d="M 194.820312 5.09375 C 207.3125 3.820312 219.65625 7.628906 228.230469 18.117188 C 233.523438 24.597656 235.539062 35 230.554688 41.757812 C 226.339844 47.46875 218.722656 48.808594 211.917969 48.449219 C 197.644531 47.6875 183.410156 48.324219 169.445312 44.460938 C 162.285156 42.476562 154.121094 38.851562 146.730469 38.496094 C 137.316406 38.050781 128.871094 45.339844 119.433594 45.660156 C 112.433594 45.894531 105.832031 42.257812 98.871094 41.308594 C 88.027344 39.828125 77.480469 44.925781 66.796875 47.386719 C 48.949219 51.503906 29.664062 47.996094 14.105469 37.816406 C 6.996094 33.160156 0.015625 25.410156 1.488281 16.667969 C 2.515625 10.558594 7.699219 5.890625 13.363281 4.445312 C 24.75 1.546875 32.5625 7.636719 42.347656 12.117188 C 53.011719 17.015625 64.8125 19.207031 76.382812 18.089844 C 93.753906 16.433594 109.214844 6.246094 127.109375 7.894531 C 134.199219 8.546875 141.078125 10.8125 148.078125 12.214844 C 156.210938 13.839844 163.542969 13.605469 171.226562 10.335938 C 177.082031 7.820312 183.179688 6.25 189.519531 5.628906 C 191.242188 5.449219 193.019531 5.257812 194.820312 5.09375 Z M 194.820312 5.09375 " fill-opacity="1" fill-rule="nonzero"/></svg>