<svg xmlns="http://www.w3.org/2000/svg" xmlns:xlink="http://www.w3.org/1999/xlink" width="1800" zoomAndPan="magnify" viewBox="0 0 1350 4499.999944" height="6000" preserveAspectRatio="xMidYMid meet" version="1.0"><defs><clipPath id="98ed495be0"><path d="M -3638.925781 3047.714844 L -558.277344 -1381.871094 L 3543.503906 1470.800781 L 462.851562 5900.386719 Z M -3638.925781 3047.714844 " clip-rule="nonzero"/></clipPath><clipPath id="7ad16fdc38"><path d="M -1478.222656 924.347656 C -1267.929688 1555.179688 -868.164062 1775.386719 -925.816406 2281.816406 C -1040.789062 3303.171875 -1952.691406 3797.816406 -1427.183594 4510.203125 C -876.492188 5222.277344 219.210938 5100.441406 1538.804688 4112.90625 C 3079.164062 2962.28125 2764.992188 517.492188 1524.832031 145.34375 C 481.316406 -139.867188 461.375 -893.648438 -197.949219 -916.519531 C -1294.769531 -927.675781 -1704.347656 248.089844 -1478.222656 924.347656 Z M -1478.222656 924.347656 " clip-rule="nonzero"/></clipPath><clipPath id="69ae1667e8"><path d="M -3077.976562 3047.714844 L 2.671875 -1381.871094 L 4104.453125 1470.800781 L 1023.800781 5900.386719 Z M -3077.976562 3047.714844 " clip-rule="nonzero"/></clipPath><clipPath id="f2d48c21c9"><path d="M -917.273438 924.347656 C -706.980469 1555.179688 -307.214844 1775.386719 -364.867188 2281.816406 C -479.839844 3303.171875 -1391.742188 3797.816406 -866.234375 4510.203125 C -315.542969 5222.277344 780.160156 5100.441406 2099.753906 4112.90625 C 3640.113281 2962.28125 3325.941406 517.492188 2085.78125 145.34375 C 1042.265625 -139.867188 1022.324219 -893.648438 363 -916.519531 C -733.820312 -927.675781 -1143.398438 248.089844 -917.273438 924.347656 Z M -917.273438 924.347656 " clip-rule="nonzero"/></clipPath><clipPath id="5baa2b2784"><path d="M -3371.601562 3117.9375 L -290.953125 -1311.644531 L 3810.828125 1541.027344 L 730.175781 5970.609375 Z M -3371.601562 3117.9375 " clip-rule="nonzero"/></clipPath><clipPath id="7730509b26"><path d="M -1210.894531 994.574219 C -1000.605469 1625.40625 -600.839844 1845.609375 -658.492188 2352.042969 C -773.464844 3373.394531 -1685.367188 3868.039062 -1159.859375 4580.429688 C -609.167969 5292.5 486.535156 5170.664062 1806.128906 4183.132812 C 3346.488281 3032.507812 3032.316406 587.71875 1792.15625 215.566406 C 748.640625 -69.644531 728.699219 -823.425781 69.375 -846.292969 C -1027.445312 -857.453125 -1437.023438 318.3125 -1210.894531 994.574219 Z M -1210.894531 994.574219 " clip-rule="nonzero"/></clipPath></defs><g clip-path="url(#98ed495be0)"><g clip-path="url(#7ad16fdc38)"><path fill="#27016d" d="M -3638.925781 3047.714844 L -558.277344 -1381.871094 L 3535.097656 1464.957031 L 454.445312 5894.539062 Z M -3638.925781 3047.714844 " fill-opacity="1" fill-rule="nonzero"/></g></g><g clip-path="url(#69ae1667e8)"><g clip-path="url(#f2d48c21c9)"><path fill="#27016d" d="M -3077.976562 3047.714844 L 2.671875 -1381.871094 L 4096.046875 1464.957031 L 1015.394531 5894.539062 Z M -3077.976562 3047.714844 " fill-opacity="1" fill-rule="nonzero"/></g></g><g clip-path="url(#5baa2b2784)"><g clip-path="url(#7730509b26)"><path fill="#27016d" d="M -3371.601562 3117.9375 L -290.953125 -1311.644531 L 3802.421875 1535.179688 L 721.769531 5964.765625 Z M -3371.601562 3117.9375 " fill-opacity="1" fill-rule="nonzero"/></g></g></svg>