<svg xmlns="http://www.w3.org/2000/svg" xmlns:xlink="http://www.w3.org/1999/xlink" width="1800" zoomAndPan="magnify" viewBox="0 0 1350 749.999995" height="1000" preserveAspectRatio="xMidYMid meet" version="1.0"><defs><clipPath id="a8b792485e"><path d="M 12 18 L 1198 18 L 1198 669 L 12 669 Z M 12 18 " clip-rule="nonzero"/></clipPath><clipPath id="81032a264a"><path d="M 1259.359375 513.585938 L 21.039062 706.445312 L -71.523438 112.109375 L 1166.796875 -80.75 Z M 1259.359375 513.585938 " clip-rule="nonzero"/></clipPath><clipPath id="629fe03568"><path d="M 1259.359375 513.585938 L 21.039062 706.445312 L -71.523438 112.109375 L 1166.796875 -80.75 Z M 1259.359375 513.585938 " clip-rule="nonzero"/></clipPath><clipPath id="db248e6130"><path d="M 12 87 L 1198 87 L 1198 737 L 12 737 Z M 12 87 " clip-rule="nonzero"/></clipPath><clipPath id="69139c9150"><path d="M 1259.359375 582.09375 L 21.039062 774.949219 L -71.523438 180.617188 L 1166.796875 -12.242188 Z M 1259.359375 582.09375 " clip-rule="nonzero"/></clipPath><clipPath id="98ec379669"><path d="M 1259.359375 582.09375 L 21.039062 774.949219 L -71.523438 180.617188 L 1166.796875 -12.242188 Z M 1259.359375 582.09375 " clip-rule="nonzero"/></clipPath></defs><g clip-path="url(#a8b792485e)"><g clip-path="url(#81032a264a)"><g clip-path="url(#629fe03568)"><path fill="#dabfbe" d="M 70.175781 599.890625 C 114.945312 653.453125 191.648438 679.875 259.695312 663.183594 C 336.988281 644.277344 404.546875 590.332031 479.570312 566.851562 C 544.960938 546.425781 613.691406 540.777344 681.730469 536.53125 C 805.628906 528.902344 938.964844 526.933594 1044.949219 453.390625 C 1131.507812 393.246094 1189.523438 292.175781 1196.433594 186.753906 C 1199.359375 141.445312 1192.34375 90.558594 1161.769531 54.878906 C 1126.578125 13.695312 1073.078125 13.082031 1024.785156 27.605469 C 965.824219 45.210938 913.015625 74.824219 851.136719 83.683594 C 785.84375 93.074219 719.429688 86.957031 654.492188 78.664062 C 535.722656 63.457031 411.914062 36.722656 293.5625 69.15625 C 193.246094 96.703125 107.335938 167.636719 57.597656 258.601562 C 1.222656 361.878906 -9.3125 504.8125 70.175781 599.890625 Z M 70.175781 599.890625 " fill-opacity="1" fill-rule="nonzero"/></g></g></g><g clip-path="url(#db248e6130)"><g clip-path="url(#69139c9150)"><g clip-path="url(#98ec379669)"><path fill="#c89c9d" d="M 70.175781 668.394531 C 114.945312 721.957031 191.648438 748.378906 259.695312 731.691406 C 336.988281 712.78125 404.546875 658.835938 479.570312 635.355469 C 544.960938 614.929688 613.691406 609.28125 681.730469 605.039062 C 805.628906 597.40625 938.964844 595.4375 1044.949219 521.894531 C 1131.507812 461.75 1189.523438 360.683594 1196.433594 255.257812 C 1199.359375 209.953125 1192.34375 159.066406 1161.769531 123.382812 C 1126.578125 82.199219 1073.078125 81.589844 1024.785156 96.109375 C 965.824219 113.71875 913.015625 143.332031 851.136719 152.1875 C 785.84375 161.582031 719.429688 155.460938 654.492188 147.167969 C 535.722656 131.964844 411.914062 105.230469 293.5625 137.660156 C 193.246094 165.210938 107.335938 236.144531 57.597656 327.109375 C 1.222656 430.382812 -9.3125 573.316406 70.175781 668.394531 Z M 70.175781 668.394531 " fill-opacity="1" fill-rule="nonzero"/></g></g></g></svg>