<svg xmlns="http://www.w3.org/2000/svg" xmlns:xlink="http://www.w3.org/1999/xlink" width="1800" zoomAndPan="magnify" viewBox="0 0 1350 5624.999793" height="7500" preserveAspectRatio="xMidYMid meet" version="1.0"><defs><clipPath id="8cf07eed86"><path d="M 13 1868 L 1333 1868 L 1333 3657 L 13 3657 Z M 13 1868 " clip-rule="nonzero"/></clipPath><clipPath id="ce27c270ca"><path d="M 1956.78125 2499.347656 L 1048.582031 3805.222656 L -281.828125 2879.957031 L 626.371094 1574.082031 Z M 1956.78125 2499.347656 " clip-rule="nonzero"/></clipPath><clipPath id="a4b6747f11"><path d="M 1307.152344 3114.3125 C 1232.035156 2919.507812 1103.136719 2846.875 1114.082031 2693.703125 C 1135.75 2384.773438 1415.621094 2247.316406 1240.171875 2023.238281 C 1060.40625 1793.726562 713.816406 1820.386719 312.679688 2101.925781 C -155.59375 2429.917969 -27.882812 3186.175781 373.421875 3308.535156 C 705.773438 3410.078125 719.613281 3644.074219 930.507812 3655.878906 C 1275.738281 3674.847656 1387.898438 3323.152344 1307.152344 3114.3125 Z M 1307.152344 3114.3125 " clip-rule="nonzero"/></clipPath><clipPath id="e2443d58c5"><path d="M 115 757 L 1350 757 L 1350 2537 L 115 2537 Z M 115 757 " clip-rule="nonzero"/></clipPath><clipPath id="9bdd1db0b7"><path d="M 2075.527344 1632.332031 L 888.332031 2690.960938 L -190.1875 1481.457031 L 997.007812 422.828125 Z M 2075.527344 1632.332031 " clip-rule="nonzero"/></clipPath><clipPath id="6a31ededf3"><path d="M 1300.609375 2079.207031 C 1272.894531 1872.269531 1164.441406 1771.628906 1210.738281 1625.214844 C 1303.710938 1329.8125 1607.886719 1261.269531 1489.414062 1002.511719 C 1368 737.460938 1024.726562 682.722656 569.078125 863.164062 C 37.324219 1073.160156 -14.488281 1838.371094 347.3125 2050.773438 C 646.90625 2226.882812 605.90625 2457.671875 808.257812 2518.238281 C 1139.59375 2617.039062 1330.53125 2301.105469 1300.609375 2079.207031 Z M 1300.609375 2079.207031 " clip-rule="nonzero"/></clipPath><clipPath id="298b6e3552"><path d="M 135.003906 2567 L 1350 2567 L 1350 4154.410156 L 135.003906 4154.410156 Z M 135.003906 2567 " clip-rule="nonzero"/></clipPath><clipPath id="6d9266507d"><path d="M 317.207031 3278.625 C 490.105469 3395.664062 637.398438 3381.699219 715.867188 3513.699219 C 874.464844 3779.691406 723.179688 4052.335938 995.160156 4136.125 C 1273.789062 4221.90625 1543.109375 4002.128906 1711.679688 3541.960938 C 1908.847656 3005.316406 1372.207031 2457.371094 972.882812 2586.042969 C 642.054688 2692.441406 497.085938 2508.242188 317.207031 2618.960938 C 22.953125 2800.503906 131.675781 3153.277344 317.207031 3278.625 Z M 317.207031 3278.625 " clip-rule="nonzero"/></clipPath><clipPath id="7dc50b11e6"><path d="M 0 3613.453125 L 1215 3613.453125 L 1215 4852 L 0 4852 Z M 0 3613.453125 " clip-rule="nonzero"/></clipPath><clipPath id="a622aaa74d"><path d="M 1078.25 4296.464844 C 948.492188 4205.191406 837.945312 4216.082031 779.054688 4113.136719 C 660.027344 3905.691406 773.566406 3693.0625 569.441406 3627.714844 C 360.332031 3560.816406 158.203125 3732.21875 31.6875 4091.097656 C -120.839844 4509.617188 286.46875 4936.953125 586.164062 4836.601562 C 834.453125 4753.621094 943.25 4897.277344 1078.25 4810.929688 C 1302.382812 4669.347656 1217.589844 4394.226562 1078.25 4296.464844 Z M 1078.25 4296.464844 " clip-rule="nonzero"/></clipPath><clipPath id="fa782039e1"><path d="M 0 14 L 1079 14 L 1079 987 L 0 987 Z M 0 14 " clip-rule="nonzero"/></clipPath><clipPath id="df37f8d67c"><path d="M 935.332031 1152.125 L -54.574219 928.929688 L 172.8125 -79.574219 L 1162.71875 143.621094 Z M 935.332031 1152.125 " clip-rule="nonzero"/></clipPath><clipPath id="50e37ba5c1"><path d="M 415.867188 915.84375 C 512.964844 824.667969 524.941406 731.042969 618.101562 700.730469 C 805.890625 639.355469 954.339844 771.761719 1044.644531 614.257812 C 1137.128906 452.894531 1038.144531 254.449219 775.417969 84.96875 C 469.113281 -113.035156 52.808594 144.050781 76.855469 410.617188 C 96.648438 631.433594 -38.324219 695.804688 5.339844 823.28125 C 77.027344 1031.878906 311.828125 1013.71875 415.867188 915.84375 Z M 415.867188 915.84375 " clip-rule="nonzero"/></clipPath></defs><g clip-path="url(#8cf07eed86)"><g clip-path="url(#ce27c270ca)"><g clip-path="url(#a4b6747f11)"><path fill="#caa2a2" d="M 1956.78125 2499.347656 L 1050.480469 3802.496094 L -279.933594 2877.230469 L 626.371094 1574.082031 Z M 1956.78125 2499.347656 " fill-opacity="1" fill-rule="nonzero"/></g></g></g><g clip-path="url(#e2443d58c5)"><g clip-path="url(#9bdd1db0b7)"><g clip-path="url(#6a31ededf3)"><path fill="#caa2a2" d="M 2075.527344 1632.332031 L 890.808594 2688.75 L -187.710938 1479.246094 L 997.007812 422.828125 Z M 2075.527344 1632.332031 " fill-opacity="1" fill-rule="nonzero"/></g></g></g><g clip-path="url(#298b6e3552)"><g clip-path="url(#6d9266507d)"><path fill="#caa2a2" d="M 135.003906 4154.410156 L 135.003906 2567.09375 L 1755.527344 2567.09375 L 1755.527344 4154.410156 Z M 135.003906 4154.410156 " fill-opacity="1" fill-rule="nonzero"/></g></g><g clip-path="url(#7dc50b11e6)"><g clip-path="url(#a622aaa74d)"><path fill="#caa2a2" d="M 1214.996094 3613.453125 L 1214.996094 4851.382812 L 0.378906 4851.382812 L 0.378906 3613.453125 Z M 1214.996094 3613.453125 " fill-opacity="1" fill-rule="nonzero"/></g></g><g clip-path="url(#fa782039e1)"><g clip-path="url(#df37f8d67c)"><g clip-path="url(#50e37ba5c1)"><path fill="#caa2a2" d="M 935.332031 1152.125 L -52.507812 929.398438 L 174.878906 -79.109375 L 1162.71875 143.621094 Z M 935.332031 1152.125 " fill-opacity="1" fill-rule="nonzero"/></g></g></g></svg>