<svg xmlns="http://www.w3.org/2000/svg" xmlns:xlink="http://www.w3.org/1999/xlink" width="1000" zoomAndPan="magnify" viewBox="0 0 750 899.99999" height="1200" preserveAspectRatio="xMidYMid meet" version="1.0"><defs><clipPath id="aabfac8242"><path d="M 6 188 L 702 188 L 702 841 L 6 841 Z M 6 188 " clip-rule="nonzero"/></clipPath><clipPath id="0798e17284"><path d="M 948.269531 295.886719 L 301.757812 996.390625 L -207.5 526.386719 L 439.011719 -174.121094 Z M 948.269531 295.886719 " clip-rule="nonzero"/></clipPath><clipPath id="e301dbab7f"><path d="M 948.269531 295.886719 L 301.757812 996.390625 L -207.5 526.386719 L 439.011719 -174.121094 Z M 948.269531 295.886719 " clip-rule="nonzero"/></clipPath><clipPath id="6e1cb6ddb0"><path d="M 10 227 L 707 227 L 707 880 L 10 880 Z M 10 227 " clip-rule="nonzero"/></clipPath><clipPath id="220f20e926"><path d="M 952.769531 334.886719 L 306.257812 1035.390625 L -203 565.386719 L 443.511719 -135.121094 Z M 952.769531 334.886719 " clip-rule="nonzero"/></clipPath><clipPath id="5c4adec15c"><path d="M 952.769531 334.886719 L 306.257812 1035.390625 L -203 565.386719 L 443.511719 -135.121094 Z M 952.769531 334.886719 " clip-rule="nonzero"/></clipPath></defs><g clip-path="url(#aabfac8242)"><g clip-path="url(#0798e17284)"><g clip-path="url(#e301dbab7f)"><path fill="#d9bfbe" d="M 549.421875 432.644531 C 372.332031 533.179688 487.992188 734.371094 287.652344 829.578125 C 180.066406 880.703125 32.339844 745.195312 7.191406 554.1875 C -9.957031 312.050781 240.566406 513.367188 346.851562 283.75 C 453.136719 54.136719 947.3125 296.824219 549.417969 432.640625 Z M 549.421875 432.644531 " fill-opacity="1" fill-rule="nonzero"/></g></g></g><g clip-path="url(#6e1cb6ddb0)"><g clip-path="url(#220f20e926)"><g clip-path="url(#5c4adec15c)"><path fill="#c89c9d" d="M 553.921875 471.644531 C 376.832031 572.179688 492.492188 773.371094 292.152344 868.578125 C 184.566406 919.703125 36.839844 784.195312 11.691406 593.1875 C -5.457031 351.050781 245.066406 552.367188 351.351562 322.75 C 457.636719 93.136719 951.8125 335.824219 553.917969 471.640625 Z M 553.921875 471.644531 " fill-opacity="1" fill-rule="nonzero"/></g></g></g></svg>