<svg xmlns="http://www.w3.org/2000/svg" xmlns:xlink="http://www.w3.org/1999/xlink" width="1800" zoomAndPan="magnify" viewBox="0 0 1350 749.999995" height="1000" preserveAspectRatio="xMidYMid meet" version="1.0"><defs><filter x="0%" y="0%" width="100%" height="100%" id="aa7559315e"><feColorMatrix values="0 0 0 0 1 0 0 0 0 1 0 0 0 0 1 0 0 0 1 0" color-interpolation-filters="sRGB"/></filter><mask id="04cec03e67"><g filter="url(#aa7559315e)"><rect x="-135" width="1620" fill="#000000" y="-74.999999" height="899.999994" fill-opacity="0.92"/></g></mask><clipPath id="f4271c9969"><path d="M 153 4 L 1135 4 L 1135 747 L 153 747 Z M 153 4 " clip-rule="nonzero"/></clipPath><clipPath id="19f47c3c19"><path d="M 468.6875 -315.074219 L 1212.550781 144.253906 L 744.59375 902.09375 L 0.730469 442.765625 Z M 468.6875 -315.074219 " clip-rule="nonzero"/></clipPath><clipPath id="50313cf15b"><path d="M 825.632812 23.035156 C 720.972656 70.09375 684.96875 143.007812 600.582031 141.585938 C 430.390625 138.945312 346.574219 -10.535156 228.851562 92.460938 C 108.277344 197.988281 133.285156 387.402344 299.804688 599.117188 C 493.832031 846.289062 905.042969 753.558594 960.179688 529.65625 C 1005.957031 344.21875 1133.960938 329.617188 1134.125 213.523438 C 1134.199219 23.492188 937.828125 -27.53125 825.632812 23.035156 Z M 825.632812 23.035156 " clip-rule="nonzero"/></clipPath><clipPath id="fa2c2a93c2"><rect x="0" width="1212" y="0" height="750"/></clipPath></defs><g mask="url(#04cec03e67)"><g transform="matrix(1, 0, 0, 1, 64, -0.000000000000042435)"><g clip-path="url(#fa2c2a93c2)"><g clip-path="url(#f4271c9969)"><g clip-path="url(#19f47c3c19)"><g clip-path="url(#50313cf15b)"><path fill="#c69a9a" d="M 468.6875 -315.074219 L 1211 143.292969 L 743.039062 901.136719 L 0.730469 442.765625 Z M 468.6875 -315.074219 " fill-opacity="1" fill-rule="nonzero"/></g></g></g></g></g></g></svg>