<svg xmlns="http://www.w3.org/2000/svg" xmlns:xlink="http://www.w3.org/1999/xlink" width="300" zoomAndPan="magnify" viewBox="0 0 224.87999 44.999999" height="60" preserveAspectRatio="xMidYMid meet" version="1.0"><defs><g/><clipPath id="715067848a"><path d="M 3 0.0117188 L 221.867188 0.0117188 L 221.867188 44.683594 L 3 44.683594 Z M 3 0.0117188 " clip-rule="nonzero"/></clipPath></defs><g clip-path="url(#715067848a)"><path fill="#caa1a1" d="M 7.605469 8.273438 C 2.296875 13.546875 2.839844 27.53125 6.089844 34.585938 C 8.511719 39.835938 15 41.304688 19.992188 42.308594 C 37.707031 45.863281 55.929688 45.574219 73.882812 45.308594 C 101.222656 44.902344 128.550781 43.980469 155.890625 43.621094 C 168.699219 43.453125 181.507812 43.640625 194.316406 43.730469 C 199.675781 43.769531 205.328125 44.59375 210.546875 42.789062 C 219.53125 39.679688 221.464844 28.597656 222.207031 20.375 C 222.542969 16.632812 223.378906 11.46875 219.816406 8.742188 C 214.335938 4.542969 206.875 4.554688 200.40625 3.945312 C 179.910156 2 180.023438 1.875 159.339844 1.273438 C 143.207031 0.800781 118.183594 0.316406 102.042969 0.695312 C 91.367188 0.945312 80.703125 1.574219 70.035156 2.085938 C 59.382812 2.597656 49.828125 1.351562 39.171875 1.710938 C 28.421875 2.070312 13.117188 2.792969 7.605469 8.273438 Z M 7.605469 8.273438 " fill-opacity="1" fill-rule="evenodd"/></g><g fill="#ffffff" fill-opacity="1"><g transform="translate(70.491405, 25.873197)"><g><path d="M 5.0625 0.03125 C 4.90625 0.0078125 4.640625 0 4.265625 0 L 3.359375 0 C 3.179688 0 3.035156 0.00390625 2.921875 0.015625 L 2.90625 0 C 2.925781 -0.03125 2.9375 -0.0664062 2.9375 -0.109375 C 2.9375 -0.160156 2.929688 -0.210938 2.921875 -0.265625 C 2.921875 -0.316406 2.898438 -0.410156 2.859375 -0.546875 C 2.828125 -0.679688 2.78125 -0.878906 2.71875 -1.140625 L 0.0625 -10.40625 C 0.394531 -10.382812 0.796875 -10.375 1.265625 -10.375 C 1.742188 -10.375 2.050781 -10.394531 2.1875 -10.4375 L 4.03125 -3.375 L 5.828125 -10.40625 C 5.910156 -10.40625 5.984375 -10.398438 6.046875 -10.390625 L 6.21875 -10.390625 C 6.382812 -10.378906 6.597656 -10.375 6.859375 -10.375 C 7.117188 -10.375 7.390625 -10.394531 7.671875 -10.4375 L 9.484375 -3.375 L 11.0625 -10.40625 C 11.375 -10.382812 11.78125 -10.375 12.28125 -10.375 C 12.789062 -10.375 13.097656 -10.394531 13.203125 -10.4375 L 10.953125 -2.203125 C 10.671875 -1.253906 10.519531 -0.691406 10.5 -0.515625 C 10.488281 -0.335938 10.484375 -0.210938 10.484375 -0.140625 C 10.484375 -0.078125 10.492188 -0.03125 10.515625 0 L 10.5 0.03125 C 10.332031 0.0078125 10.066406 0 9.703125 0 C 9.390625 0 9.101562 0 8.84375 0 C 8.59375 0 8.410156 0.00390625 8.296875 0.015625 L 8.296875 0 C 8.316406 -0.03125 8.328125 -0.0664062 8.328125 -0.109375 C 8.328125 -0.160156 8.320312 -0.207031 8.3125 -0.25 C 8.3125 -0.300781 8.296875 -0.394531 8.265625 -0.53125 C 8.242188 -0.664062 8.207031 -0.863281 8.15625 -1.125 L 7.953125 -2.1875 L 6.671875 -7.046875 L 5.453125 -2.203125 C 5.203125 -1.210938 5.070312 -0.640625 5.0625 -0.484375 C 5.039062 -0.203125 5.046875 -0.0390625 5.078125 0 Z M 5.0625 0.03125 "/></g></g></g><g fill="#ffffff" fill-opacity="1"><g transform="translate(83.840393, 25.873197)"><g><path d="M 3.453125 0.046875 C 2.953125 0.015625 2.359375 0 1.671875 0 L 1.421875 0 L 1.421875 -10.421875 C 1.742188 -10.390625 1.972656 -10.375 2.109375 -10.375 L 2.421875 -10.375 C 2.835938 -10.375 3.179688 -10.394531 3.453125 -10.4375 L 3.453125 -6.28125 L 7.125 -6.28125 L 7.125 -10.421875 C 7.550781 -10.390625 7.96875 -10.375 8.375 -10.375 C 8.78125 -10.375 9.035156 -10.394531 9.140625 -10.4375 L 9.140625 0.046875 C 8.890625 0.015625 8.398438 0 7.671875 0 L 7.125 0 L 7.125 -4.40625 L 3.453125 -4.40625 Z M 3.453125 0.046875 "/></g></g></g><g fill="#ffffff" fill-opacity="1"><g transform="translate(94.488359, 25.873197)"><g><path d="M 2.09375 0.0625 C 1.644531 0.0195312 1.125 0 0.53125 0 L -0.078125 0 L 3.3125 -9.515625 C 3.457031 -9.941406 3.53125 -10.1875 3.53125 -10.25 C 3.53125 -10.320312 3.53125 -10.367188 3.53125 -10.390625 L 3.53125 -10.40625 C 3.875 -10.382812 4.234375 -10.375 4.609375 -10.375 C 4.921875 -10.375 5.296875 -10.378906 5.734375 -10.390625 L 5.75 -10.375 C 5.738281 -10.351562 5.734375 -10.328125 5.734375 -10.296875 C 5.734375 -10.191406 5.8125 -9.925781 5.96875 -9.5 L 9.421875 0.015625 C 9.316406 0.015625 9.195312 0.015625 9.0625 0.015625 C 9.0625 0.015625 8.925781 0.0078125 8.65625 0 C 8.519531 0 8.398438 0 8.296875 0 L 7.09375 0 L 6.359375 -2.25 L 2.828125 -2.25 Z M 5.75 -4.125 L 4.578125 -7.75 L 3.421875 -4.125 Z M 5.75 -4.125 "/></g></g></g><g fill="#ffffff" fill-opacity="1"><g transform="translate(103.832657, 25.873197)"><g><path d="M 5.09375 0.046875 C 4.84375 0.015625 4.195312 0 3.15625 0 L 2.90625 0 L 2.90625 -8.625 L 1.359375 -8.625 C 0.898438 -8.625 0.628906 -8.597656 0.546875 -8.546875 C 0.460938 -8.503906 0.398438 -8.46875 0.359375 -8.4375 L 0.328125 -8.4375 L 0.328125 -10.4375 L 0.359375 -10.46875 C 0.523438 -10.40625 0.988281 -10.375 1.75 -10.375 L 6.640625 -10.375 C 7.097656 -10.375 7.367188 -10.394531 7.453125 -10.4375 C 7.535156 -10.488281 7.601562 -10.535156 7.65625 -10.578125 L 7.671875 -10.5625 L 7.671875 -8.5625 L 7.65625 -8.546875 C 7.476562 -8.597656 7.015625 -8.625 6.265625 -8.625 L 5.09375 -8.625 Z M 5.09375 0.046875 "/></g></g></g><g fill="#ffffff" fill-opacity="1"><g transform="translate(111.84205, 25.873197)"><g><path d="M 3.71875 -11.28125 C 3.769531 -10.726562 3.796875 -10.3125 3.796875 -10.03125 C 3.796875 -9.757812 3.785156 -9.492188 3.765625 -9.234375 C 3.753906 -8.972656 3.734375 -8.738281 3.703125 -8.53125 C 3.617188 -8.082031 3.523438 -7.820312 3.421875 -7.75 C 3.160156 -7.582031 2.546875 -7.398438 1.578125 -7.203125 L 1.53125 -7.25 C 1.71875 -7.601562 1.8125 -8.378906 1.8125 -9.578125 C 1.8125 -10.109375 1.796875 -10.570312 1.765625 -10.96875 Z M 3.71875 -11.28125 "/></g></g></g><g fill="#ffffff" fill-opacity="1"><g transform="translate(117.181646, 25.873197)"><g><path d="M 7.609375 -9.796875 L 7.46875 -7.515625 L 7.40625 -7.5 C 7.019531 -8.070312 6.363281 -8.441406 5.4375 -8.609375 C 5.144531 -8.671875 4.863281 -8.703125 4.59375 -8.703125 C 4.332031 -8.703125 4.101562 -8.675781 3.90625 -8.625 C 3.71875 -8.582031 3.554688 -8.515625 3.421875 -8.421875 C 3.140625 -8.234375 3 -7.992188 3 -7.703125 C 3 -7.304688 3.125 -7.007812 3.375 -6.8125 C 3.6875 -6.570312 4.203125 -6.398438 4.921875 -6.296875 C 5.648438 -6.203125 6.234375 -6.070312 6.671875 -5.90625 C 7.109375 -5.738281 7.46875 -5.53125 7.75 -5.28125 C 8.269531 -4.800781 8.53125 -4.125 8.53125 -3.25 C 8.53125 -2.101562 8.101562 -1.21875 7.25 -0.59375 C 6.507812 -0.0703125 5.578125 0.1875 4.453125 0.1875 C 3.546875 0.1875 2.648438 0.0195312 1.765625 -0.3125 C 1.472656 -0.425781 1.21875 -0.5625 1 -0.71875 L 1.078125 -3.328125 L 1.109375 -3.34375 C 1.753906 -2.226562 2.816406 -1.671875 4.296875 -1.671875 C 5.335938 -1.671875 6.03125 -1.925781 6.375 -2.4375 C 6.488281 -2.601562 6.546875 -2.789062 6.546875 -3 C 6.546875 -3.21875 6.507812 -3.394531 6.4375 -3.53125 C 6.375 -3.664062 6.265625 -3.785156 6.109375 -3.890625 C 5.804688 -4.085938 5.296875 -4.21875 4.578125 -4.28125 C 3.867188 -4.351562 3.285156 -4.484375 2.828125 -4.671875 C 2.378906 -4.859375 2.019531 -5.085938 1.75 -5.359375 C 1.257812 -5.859375 1.015625 -6.554688 1.015625 -7.453125 C 1.015625 -8.378906 1.335938 -9.128906 1.984375 -9.703125 C 2.648438 -10.285156 3.539062 -10.578125 4.65625 -10.578125 C 5.78125 -10.578125 6.765625 -10.316406 7.609375 -9.796875 Z M 7.609375 -9.796875 "/></g></g></g><g fill="#ffffff" fill-opacity="1"><g transform="translate(126.494718, 25.873197)"><g/></g></g><g fill="#ffffff" fill-opacity="1"><g transform="translate(131.795287, 25.873197)"><g><path d="M 2.1875 -1.21875 C 1.71875 -1.675781 1.34375 -2.222656 1.0625 -2.859375 C 0.789062 -3.492188 0.65625 -4.191406 0.65625 -4.953125 C 0.65625 -5.710938 0.78125 -6.425781 1.03125 -7.09375 C 1.289062 -7.769531 1.65625 -8.363281 2.125 -8.875 C 2.601562 -9.394531 3.175781 -9.804688 3.84375 -10.109375 C 4.519531 -10.421875 5.273438 -10.578125 6.109375 -10.578125 C 7.546875 -10.578125 8.753906 -10.125 9.734375 -9.21875 C 10.785156 -8.25 11.3125 -6.941406 11.3125 -5.296875 C 11.3125 -3.703125 10.769531 -2.378906 9.6875 -1.328125 C 9.019531 -0.671875 8.226562 -0.222656 7.3125 0.015625 C 6.863281 0.128906 6.332031 0.1875 5.71875 0.1875 C 5.113281 0.1875 4.492188 0.0664062 3.859375 -0.171875 C 3.222656 -0.421875 2.664062 -0.769531 2.1875 -1.21875 Z M 2.828125 -5.0625 C 2.828125 -4.570312 2.90625 -4.125 3.0625 -3.71875 C 3.226562 -3.3125 3.457031 -2.960938 3.75 -2.671875 C 4.351562 -2.054688 5.132812 -1.75 6.09375 -1.75 C 7.007812 -1.75 7.738281 -2.046875 8.28125 -2.640625 C 8.84375 -3.242188 9.125 -4.070312 9.125 -5.125 C 9.125 -6.113281 8.859375 -6.941406 8.328125 -7.609375 C 7.753906 -8.304688 6.960938 -8.65625 5.953125 -8.65625 C 4.984375 -8.65625 4.210938 -8.300781 3.640625 -7.59375 C 3.097656 -6.914062 2.828125 -6.070312 2.828125 -5.0625 Z M 2.828125 -5.0625 "/></g></g></g><g fill="#ffffff" fill-opacity="1"><g transform="translate(143.778158, 25.873197)"><g><path d="M 1.40625 0 C 1.4375 -0.175781 1.453125 -0.367188 1.453125 -0.578125 L 1.453125 -10.375 L 3.015625 -10.375 L 7.15625 -3.875 L 7.15625 -9.84375 C 7.15625 -10.132812 7.128906 -10.3125 7.078125 -10.375 L 9.1875 -10.375 C 9.15625 -10.164062 9.140625 -9.9375 9.140625 -9.6875 L 9.140625 0 L 7.53125 0 L 3.453125 -6.25 L 3.453125 0 Z M 1.40625 0 "/></g></g></g></svg>